<svg width="124" height="112" viewBox="0 0 124 112" fill="none" xmlns="http://www.w3.org/2000/svg">
<path d="M75.7203 2.3721L63.3623 19.3415C62.0973 21.0542 63.4673 23.4521 65.5753 23.2676C67.0243 23.1359 68.1843 23.0832 68.7113 23.0832C86.8923 23.0832 101.596 38.129 101.095 56.4159C100.594 74.0704 88.4213 73.9124 70.7663 73.9124H38.7773C35.7473 73.9124 33.9023 70.6186 35.4573 68.0363L43.4153 51.3304C43.9423 49.8284 41.9133 48.7481 40.9643 50.0392L0.570298 105.48C-1.0107 108.088 0.886307 111.408 3.91631 111.408H66.3923C98.0653 111.408 124.309 85.7698 123.888 54.0971C123.545 28.2214 105.706 6.48269 81.7013 0.185042C79.4353 -0.421008 77.0643 0.501247 75.6943 2.3721H75.7203Z" fill="#7338F0"/>
</svg>
