<svg width="58" height="58" viewBox="0 0 58 58" fill="none" xmlns="http://www.w3.org/2000/svg">
<circle cx="29" cy="29" r="29" fill="#0034AB"/>
<path d="M40.7117 15.1996C40.7533 15.4456 40.9994 15.652 41.2474 15.5905C41.4936 15.5488 41.7416 15.3444 41.6384 14.9932C41.5968 14.8086 41.3506 14.6022 41.1026 14.6022C40.8565 14.6638 40.67 14.9118 40.7117 15.1996Z" fill="#FF9D0A"/>
<path d="M24.6656 23.1609C24.6656 23.7979 24.6855 24.4151 24.6656 25.0323C24.6239 27.4593 23.5344 29.2491 21.3119 30.2791C20.6333 30.6085 19.9129 30.7514 19.131 30.7315V17.6263H29.3549C31.4525 17.6263 33.4487 18.0589 35.3002 18.9837C39.6204 21.1447 42.3152 24.5996 43.0773 29.3722C43.8592 34.2479 42.337 38.445 38.7154 41.8186C36.5147 43.8765 33.8595 45.0889 30.8571 45.4184C28.5949 45.6645 26.3306 45.6645 24.11 45.0692C21.5183 44.3706 19.4188 42.8882 17.7736 40.7689C16.7457 39.4532 15.819 38.0324 14.8327 36.6552C14.1739 35.7284 13.4952 34.8453 12.5903 34.125C11.5405 33.3014 10.3479 32.8707 9.01035 32.7458C8.68093 32.7041 8.35151 32.7041 8.02209 32.6643V27.1913C8.41303 27.1913 8.76229 27.1715 9.15323 27.1913C11.6834 27.3561 13.9873 28.1578 16.0234 29.7215C17.4224 30.8327 18.5337 32.2099 19.5418 33.6705C20.3653 34.8433 21.1671 36.0578 22.0522 37.2088C22.9987 38.4629 24.1715 39.3897 25.7352 39.719C26.3326 39.8421 26.9695 39.9453 27.5867 39.9453C28.7178 39.9652 29.8291 39.987 30.9603 39.7608C34.1909 39.1237 36.9473 36.3654 37.5426 33.1169C38.3861 28.5507 35.4451 24.2087 30.8987 23.284C30.3233 23.1808 29.7259 23.0994 29.1505 23.0994C27.7317 23.0577 26.3326 23.0796 24.9116 23.0994C24.8502 23.1411 24.7887 23.1609 24.6656 23.1609Z" fill="#E6E6E6"/>
<path d="M34.6416 16.6795C34.4571 16.1853 34.2705 15.7527 34.086 15.3221C33.7764 14.7248 33.3457 14.3954 32.6869 14.3954H31.2878C31.5974 14.2724 32.0281 14.0858 32.3992 13.9628C33.1393 13.6532 33.5104 13.0995 33.5104 12.2958V11C33.572 11.1846 33.6335 11.3096 33.6951 11.4941C33.818 11.8037 34.0045 12.1728 34.1276 12.4605C34.3737 12.9547 34.8063 13.2007 35.362 13.2623C35.9176 13.3238 36.3899 13.3238 36.884 13.3238C36.5744 13.4468 36.2867 13.5699 35.9572 13.6949C35.7727 13.7564 35.5861 13.8794 35.4016 14.0044C34.9691 14.2505 34.7229 14.6018 34.6615 15.1157C34.5999 15.6099 34.6615 16.0822 34.5999 16.5148C34.6416 16.5763 34.6416 16.6378 34.6416 16.6795Z" fill="#FF9D0A"/>
<path d="M44.8251 19.231C44.3924 19.2925 43.9619 19.2925 43.5292 19.354C42.7891 19.4156 42.2949 19.8482 42.0687 20.5884C41.9456 20.8979 41.8841 21.267 41.7591 21.5548C41.7591 21.6163 41.6976 21.6778 41.6976 21.7393C41.6976 21.4933 41.6976 21.1837 41.6361 20.9376C41.6361 20.6916 41.5745 20.505 41.5131 20.2589C41.39 19.7033 41.0804 19.2925 40.5863 19.0861C40.1537 18.9016 39.723 18.8401 39.2905 18.7151C39.2289 18.7151 39.1674 18.6535 39.0444 18.6535C39.477 18.592 39.8461 18.592 40.2172 18.5305C41.0804 18.469 41.6777 18.0364 41.9456 17.1731C42.0687 16.802 42.1301 16.4329 42.2552 16.1452C42.2552 16.4548 42.3168 16.7425 42.3168 17.0719C42.3168 17.2565 42.3783 17.443 42.3783 17.6276C42.5013 18.1832 42.8108 18.5543 43.3049 18.7389C43.7376 18.9234 44.1683 18.9849 44.6008 19.1099C44.6425 19.1516 44.704 19.233 44.8271 19.233L44.8251 19.231Z" fill="#FF9D0A"/>
<path d="M36.6177 15.6517C37.3579 16.2074 37.481 16.3919 38.5109 15.7748C37.9553 16.3304 37.8322 16.8861 38.3263 17.5449C37.729 16.9476 37.1535 16.9476 36.5562 17.4834C37.1535 16.8861 37.1535 16.2689 36.6177 15.6517Z" fill="#FF9D0A"/>
<path d="M16.9081 39.659C16.805 39.4944 16.4557 38.9804 14.8106 36.6962C14.1518 35.7696 13.4731 34.8865 12.5682 34.1661C11.5402 33.3426 10.3258 32.9119 8.98825 32.7869C8.65883 32.7453 8.32942 32.7453 8 32.7055V27.2325C9.99634 28.447 14.6241 33.6304 16.9081 39.659Z" fill="#FF9D0A"/>
</svg>
