<svg width="53" height="52" viewBox="0 0 53 52" fill="none" xmlns="http://www.w3.org/2000/svg">
<mask id="mask0_26_54" style="mask-type:luminance" maskUnits="userSpaceOnUse" x="-1" y="0" width="54" height="52">
<path d="M6.73095 29.641C-0.535046 40.547 10.921 54.428 23.037 50.478C22.1832 49.754 21.4076 48.9426 20.723 48.057L19.952 47.17C14.002 47.818 7.83495 41.757 8.49495 35.91C12.13 38.01 15.322 38.224 19.069 36.353C18.7571 38.881 19.3003 41.4406 20.612 43.624L22.044 43.181C22.7749 42.8815 23.4757 42.5131 24.137 42.081C21.282 37.681 23.499 32.505 25.458 27.659C21.05 31.734 12.902 37.572 6.73095 29.641ZM23.131 46.041C31.173 56.176 47.585 49.676 47.807 37.121C46.8313 37.7439 45.7921 38.2611 44.707 38.664L43.634 39.01C42.419 45.51 35.042 48.71 29.642 46.281C32.617 43.417 33.832 40.442 33.189 36.257C35.4909 37.3442 38.0941 37.6161 40.571 37.028V35.91C40.5163 35.0015 40.331 34.1057 40.021 33.25C35.021 34.58 30.857 30.962 26.779 27.66C29.315 33.06 32.4 42.64 23.144 46.054M43.302 12.801V14.131C48.702 17.431 49.69 25.254 45.838 29.648C44.074 25.893 41.675 23.8 37.463 23.14C39.2821 21.277 40.3424 18.8032 40.437 16.201L39.337 15.868C38.4779 15.5964 37.5762 15.4852 36.677 15.54C36.477 20.718 31.627 23.693 27.221 26.552C33.166 25.785 43.181 25.785 43.621 35.698C55.737 31.18 54.633 13.669 42.85 9.59002C43.0595 10.6472 43.2074 11.7157 43.293 12.79M2.54095 30.967C3.00924 29.9314 3.56247 28.9363 4.19495 27.992L4.74495 27.105C1.99195 21.266 6.07495 14.217 11.794 12.918C11.023 16.992 11.794 20.184 14.894 23.048C12.3848 23.4917 10.1182 24.8209 8.50595 26.794L9.16695 27.787C9.71322 28.5217 10.384 29.155 11.149 29.658C14.349 25.584 19.849 26.023 25.141 26.244C19.841 23.362 11.686 17.524 17.196 9.15302C16.045 8.85372 14.8602 8.70481 13.671 8.71002C2.99095 8.68802 -4.02905 21.81 2.54295 30.961M14.884 5.63002C15.877 5.73602 16.866 5.95802 17.984 6.18002L19.194 6.50802C23.805 2.10802 32.064 3.75502 35.021 8.93302C30.947 9.37602 28.189 11.026 26.207 14.772C24.9828 12.4389 22.9466 10.635 20.483 9.70102L19.729 10.911C19.2894 11.5512 18.9554 12.2579 18.74 13.004C23.586 14.879 24.907 20.496 26.34 25.564C27.44 19.725 30.64 10.145 40.216 12.898C39.874 4.80102 33.038 0.00102224 26.122 0.00102224C23.9352 -0.02569 21.7739 0.471466 19.8186 1.45093C17.8634 2.43039 16.171 3.8637 14.883 5.63102" fill="white"/>
</mask>
<g mask="url(#mask0_26_54)">
<path d="M29.3774 -29.676L-31.926 24.79L22.3427 85.8714L83.6461 31.4054L29.3774 -29.676Z" fill="url(#paint0_linear_26_54)"/>
</g>
<defs>
<linearGradient id="paint0_linear_26_54" x1="-358.738" y1="339.961" x2="-358.37" y2="339.635" gradientUnits="userSpaceOnUse">
<stop stop-color="#202D5C"/>
<stop offset="1" stop-color="#116A9D"/>
</linearGradient>
</defs>
</svg>
