<svg id="الثوري_جديد_1_" data-name="الثوري جديد (1)" xmlns="http://www.w3.org/2000/svg" xmlns:xlink="http://www.w3.org/1999/xlink" width="251.741" height="84.86" viewBox="0 0 251.741 84.86">
  <defs>
    <clipPath id="clip-path">
      <path id="Path_24" data-name="Path 24" d="M327.693,19.4a4.837,4.837,0,0,0,6.82-.65l1.43-1.721V62.569L318.33,80.6v9.674h4.837v-7.7L340.78,64.545V17.192l1.168,1.458a4.837,4.837,0,0,0,6.813.76L338.4,6.44Z" transform="translate(-318.33 -6.44)" fill="none"/>
    </clipPath>
    <linearGradient id="linear-gradient" x1="-7.284" y1="4.786" x2="-7.261" y2="4.786" gradientUnits="objectBoundingBox">
      <stop offset="0" stop-color="#64c08a"/>
      <stop offset="0.5" stop-color="#00a550"/>
      <stop offset="1" stop-color="#00914c"/>
    </linearGradient>
    <clipPath id="clip-path-2">
      <path id="Path_25" data-name="Path 25" d="M279.529,58.685a4.837,4.837,0,0,0,6.827-.643l1.271-1.541V74.73L275.12,87.741l1.513,2.073,1.645,1.61,14.2-14.766V56.288l1.313,1.645a4.837,4.837,0,0,0,6.813.76L290.239,45.75Z" transform="translate(-275.12 -45.75)" fill="none"/>
    </clipPath>
    <linearGradient id="linear-gradient-2" x1="-7.528" y1="8.187" x2="-7.5" y2="8.187" xlink:href="#linear-gradient"/>
    <clipPath id="clip-path-3">
      <path id="Path_26" data-name="Path 26" d="M302.4,39.042h0a4.837,4.837,0,0,0,6.827-.643l1.382-1.707V68.644L293,86.672v5.8l4.837,2.018V88.648L315.45,70.62V36.838l1.182,1.479a4.837,4.837,0,0,0,6.813.76L313.08,26.1Z" transform="translate(-293 -26.1)" fill="none"/>
    </clipPath>
    <linearGradient id="linear-gradient-3" x1="-6.706" y1="5.67" x2="-6.683" y2="5.67" xlink:href="#linear-gradient"/>
  </defs>
  <path id="Path_23" data-name="Path 23" d="M301.615,94.987a38.308,38.308,0,1,1,38.3-38.3,38.31,38.31,0,0,1-38.3,38.3m0-75a36.7,36.7,0,1,0,36.7,36.7,36.7,36.7,0,0,0-36.7-36.7" transform="translate(-88.176 -10.127)" fill="#6360aa"/>
  <g id="Group_7" data-name="Group 7" transform="translate(213.149)" clip-path="url(#clip-path)">
    <rect id="Rectangle_15" data-name="Rectangle 15" width="30.445" height="83.838" transform="translate(0 0.014)" fill="url(#linear-gradient)"/>
  </g>
  <g id="Group_8" data-name="Group 8" transform="translate(183.292 27.163)" clip-path="url(#clip-path-2)">
    <rect id="Rectangle_16" data-name="Rectangle 16" width="25.491" height="45.695" fill="url(#linear-gradient-2)"/>
  </g>
  <g id="Group_9" data-name="Group 9" transform="translate(195.646 13.585)" clip-path="url(#clip-path-3)">
    <rect id="Rectangle_17" data-name="Rectangle 17" width="30.459" height="68.38" transform="translate(0.021 0)" fill="url(#linear-gradient-3)"/>
  </g>
  <path id="Path_27" data-name="Path 27" d="M338,82.89a36.685,36.685,0,0,1-72.291,0H264.07a38.3,38.3,0,0,0,75.566,0Z" transform="translate(-88.414 -30.064)" fill="#6360aa"/>
  <path id="Path_28" data-name="Path 28" d="M14.476,90.48,9.86,103.008h1.893l.947-2.764h5.058l.94,2.764h1.9L15.975,90.48Zm-1.2,8.105,1.955-5.673L17.184,98.6Z" transform="translate(-9.86 -32.409)" fill="#6360aa"/>
  <path id="Path_29" data-name="Path 29" d="M20.545,84.02H18.79V96.548h8.043V94.875H20.545Z" transform="translate(-5.806 -25.949)" fill="#6360aa"/>
  <rect id="Rectangle_18" data-name="Rectangle 18" width="5.79" height="1.672" transform="translate(23.279 63.668)" fill="#6360aa"/>
  <path id="Path_30" data-name="Path 30" d="M44.2,85.692h3.538V96.548H49.5V85.692h3.538V84.02H44.2Z" transform="translate(-13.658 -25.949)" fill="#6360aa"/>
  <path id="Path_31" data-name="Path 31" d="M67.107,89.541H61.752V84.02H59.99V96.548h1.762V91.213h5.355v5.334h1.762V84.02H67.107Z" transform="translate(-18.538 -25.949)" fill="#6360aa"/>
  <path id="Path_32" data-name="Path 32" d="M90.316,90.48,85.7,103.008h1.893l.947-2.764H93.6l.94,2.764h1.9L91.815,90.48Zm-1.2,8.105,1.955-5.673L93.024,98.6Z" transform="translate(-33.295 -32.409)" fill="#6360aa"/>
  <path id="Path_33" data-name="Path 33" d="M102.019,93.839,99.455,84.02H98.246l-2.57,9.819L93.464,84.02H91.64l3.054,12.528h1.8L98.9,87.793l2.308,8.755H103l3.061-12.528H104.23Z" transform="translate(-28.318 -25.949)" fill="#6360aa"/>
  <path id="Path_34" data-name="Path 34" d="M132.5,97.255a3.144,3.144,0,0,0,1.278-1.271,4.187,4.187,0,0,0,0-3.8,3.109,3.109,0,0,0-1.271-1.264,3.87,3.87,0,0,0-1.907-.449H125.62V103h1.762V97.7h2.646L132.7,103h2.073l-2.9-5.528a2.986,2.986,0,0,0,.636-.256M127.4,92.1h3.282a1.562,1.562,0,0,1,1.486.933,2.364,2.364,0,0,1,.207,1.016,2.391,2.391,0,0,1-.207,1.023,1.617,1.617,0,0,1-.6.691,1.652,1.652,0,0,1-.884.242H127.4Z" transform="translate(-45.631 -32.406)" fill="#6360aa"/>
  <rect id="Rectangle_19" data-name="Rectangle 19" width="1.755" height="12.528" transform="translate(91.846 58.071)" fill="#6360aa"/>
  <path id="Path_35" data-name="Path 35" d="M153.151,92.291l-3.676-8.271H147.83V96.548h1.714V88.076l3,6.73h1.223l3-6.9v8.637h1.714V84.02h-1.645Z" transform="translate(-45.681 -25.949)" fill="#6360aa"/>
  <path id="Path_36" data-name="Path 36" d="M184.436,90.864a4.934,4.934,0,0,0-4.616,0,3.925,3.925,0,0,0-1.548,1.617,5.147,5.147,0,0,0-.553,2.425v3.552a5.148,5.148,0,0,0,.553,2.425,3.938,3.938,0,0,0,1.548,1.624,4.982,4.982,0,0,0,4.616,0,3.987,3.987,0,0,0,1.548-1.624,5.231,5.231,0,0,0,.546-2.425V94.927a5.231,5.231,0,0,0-.546-2.425,3.966,3.966,0,0,0-1.548-1.617m.29,7.656a3.268,3.268,0,0,1-.325,1.486,2.3,2.3,0,0,1-.912.988,2.819,2.819,0,0,1-2.729,0,2.3,2.3,0,0,1-.912-.988,3.269,3.269,0,0,1-.325-1.486v-3.69a3.269,3.269,0,0,1,.325-1.486,2.356,2.356,0,0,1,.912-1,2.867,2.867,0,0,1,2.729,0,2.356,2.356,0,0,1,.912,1,3.268,3.268,0,0,1,.325,1.486Z" transform="translate(-61.73 -32.351)" fill="#6360aa"/>
  <path id="Path_37" data-name="Path 37" d="M182.74,85.692h3.538V96.548h1.762V85.692h3.538V84.02H182.74Z" transform="translate(-56.469 -25.949)" fill="#6360aa"/>
  <path id="Path_38" data-name="Path 38" d="M214.229,90.864a4.934,4.934,0,0,0-4.616,0,3.967,3.967,0,0,0-1.548,1.617,5.23,5.23,0,0,0-.546,2.425v3.552a5.23,5.23,0,0,0,.546,2.425,3.987,3.987,0,0,0,1.548,1.624,4.982,4.982,0,0,0,4.616,0,3.9,3.9,0,0,0,1.548-1.624,5.148,5.148,0,0,0,.553-2.425V94.927a5.148,5.148,0,0,0-.553-2.425,3.883,3.883,0,0,0-1.548-1.617m.3,7.656a3.27,3.27,0,0,1-.325,1.486,2.3,2.3,0,0,1-.912.988,2.819,2.819,0,0,1-2.764,0,2.3,2.3,0,0,1-.912-.988,3.267,3.267,0,0,1-.325-1.486v-3.69a3.267,3.267,0,0,1,.325-1.486,2.356,2.356,0,0,1,.912-1,2.867,2.867,0,0,1,2.764,0,2.356,2.356,0,0,1,.912,1,3.27,3.27,0,0,1,.325,1.486Z" transform="translate(-70.939 -32.351)" fill="#6360aa"/>
  <path id="Path_39" data-name="Path 39" d="M231.682,102.989h2.073l-2.9-5.528a2.764,2.764,0,0,0,.629-.256,3.165,3.165,0,0,0,1.285-1.271,3.925,3.925,0,0,0,.456-1.9,3.863,3.863,0,0,0-.456-1.9,3.158,3.158,0,0,0-1.271-1.265,3.891,3.891,0,0,0-1.907-.449H224.62v12.535h1.755v-5.3h2.653Zm-5.293-10.869h3.282a1.679,1.679,0,0,1,.9.242,1.652,1.652,0,0,1,.587.691,2.267,2.267,0,0,1,.214,1.016,2.294,2.294,0,0,1-.214,1.023,1.561,1.561,0,0,1-.594.691,1.672,1.672,0,0,1-.891.242h-3.282Z" transform="translate(-76.223 -32.39)" fill="#6360aa"/>
  <path id="Path_40" data-name="Path 40" d="M32.289,55.962H19.216a5.77,5.77,0,0,1-.9-.076,2.391,2.391,0,0,1-.843-.29,1.693,1.693,0,0,1-.615-.615,2.018,2.018,0,0,1-.228-1.023V48.43h-3.5V58.449a6.834,6.834,0,0,1-.415,2.729,1.493,1.493,0,0,1-1.465.891,4.283,4.283,0,0,1-.76-.062,1.762,1.762,0,0,1-.636-.256v2.515a4.547,4.547,0,0,0,1.036.29,6.46,6.46,0,0,0,1.14.1,4.754,4.754,0,0,0,2.2-.449,3.559,3.559,0,0,0,1.382-1.271,5.59,5.59,0,0,0,.76-1.955,12.8,12.8,0,0,0,.235-2.529V57.3h.1a2,2,0,0,0,.415.65,2.653,2.653,0,0,0,.622.477,3.732,3.732,0,0,0,.732.3,2.764,2.764,0,0,0,.691.111H35.758V48.437H32.3Z" transform="translate(-9.86 -19.415)" fill="#6360aa"/>
  <rect id="Rectangle_20" data-name="Rectangle 20" width="2.785" height="2.785" transform="translate(18.912 21.953)" fill="#6360aa"/>
  <rect id="Rectangle_21" data-name="Rectangle 21" width="2.812" height="2.785" transform="translate(23.065 21.953)" fill="#6360aa"/>
  <path id="Path_41" data-name="Path 41" d="M86.023,47.621A5.576,5.576,0,0,0,83.985,46.5a8.347,8.347,0,0,0-2.543-.366,7.829,7.829,0,0,0-2.529.387A5.784,5.784,0,0,0,76.9,47.683a5.4,5.4,0,0,0-1.327,1.879,6.529,6.529,0,0,0-.477,2.584,3.738,3.738,0,0,0,.4,1.672,4.394,4.394,0,0,0,.967,1.327v.1H62.924V53.536a13.647,13.647,0,0,0-.318-3.1,6.171,6.171,0,0,0-.988-2.322,4.747,4.747,0,0,0-1.873-1.465,7.863,7.863,0,0,0-5.632,0,5.093,5.093,0,0,0-1.879,1.465A5.528,5.528,0,0,0,51.2,50.185a8.755,8.755,0,0,0-.318,2.37,6.7,6.7,0,0,0,.38,2.336,4.837,4.837,0,0,0,1.085,1.734,4.636,4.636,0,0,0,1.686,1.112,5.942,5.942,0,0,0,2.211.394h3.013a3.552,3.552,0,0,1-1.278,2.418,4.885,4.885,0,0,1-2.992.788,4.145,4.145,0,0,1-.954-.1,5.708,5.708,0,0,1-.933-.29v2.612c.18.069.387.131.615.2a4.969,4.969,0,0,0,.691.117,9.176,9.176,0,0,0,5.915-1.417,6.91,6.91,0,0,0,2.294-4.346H81.442a8.568,8.568,0,0,0,2.543-.332,5.776,5.776,0,0,0,2.038-1.112A5.161,5.161,0,0,0,87.405,54.8a7.138,7.138,0,0,0,0-5.272,5.272,5.272,0,0,0-1.382-1.886m-26.5,7.6H56.94a4.146,4.146,0,0,1-1.285-.173,1.769,1.769,0,0,1-.795-.525,1.983,1.983,0,0,1-.4-.871,5.529,5.529,0,0,1-.111-1.2,6.633,6.633,0,0,1,.131-1.34,3.772,3.772,0,0,1,.442-1.175,2.384,2.384,0,0,1,.795-.822,2.633,2.633,0,0,1,2.481,0,2.267,2.267,0,0,1,.795.905,4.837,4.837,0,0,1,.415,1.444,13.489,13.489,0,0,1,.117,1.928ZM84.13,53.412a3.178,3.178,0,0,1-.539,1.03,2.639,2.639,0,0,1-.878.691,2.861,2.861,0,0,1-1.237.256,2.522,2.522,0,0,1-2.184-.9,3.669,3.669,0,0,1-.691-2.342,4.277,4.277,0,0,1,.193-1.271,3.075,3.075,0,0,1,.532-1.051,2.474,2.474,0,0,1,.884-.691,3.1,3.1,0,0,1,2.467,0,2.515,2.515,0,0,1,.878.691,3.213,3.213,0,0,1,.574,1.05,4.512,4.512,0,0,1,.18,1.285,4.368,4.368,0,0,1-.18,1.251" transform="translate(-22.535 -18.703)" fill="#6360aa"/>
  <rect id="Rectangle_22" data-name="Rectangle 22" width="2.812" height="2.785" transform="translate(82.995 48.1)" fill="#6360aa"/>
  <path id="Path_42" data-name="Path 42" d="M132.247,56.443A4.871,4.871,0,0,0,131,55.386a6.5,6.5,0,0,0-1.817-.746,10.585,10.585,0,0,1-1.859-.691,5.059,5.059,0,0,1-1.223-.795,2.888,2.888,0,0,1-.691-.85,1.941,1.941,0,0,1-.207-.843,2.681,2.681,0,0,1,.691-2,2.177,2.177,0,0,1,1.575-.691,2.073,2.073,0,0,1,1.6.587,3.752,3.752,0,0,1,.746,1.783h3a5.355,5.355,0,0,0-1.61-3.759,5.293,5.293,0,0,0-3.738-1.32,6.426,6.426,0,0,0-2.453.428,5.134,5.134,0,0,0-1.783,1.154,4.685,4.685,0,0,0-1.078,1.714,6.087,6.087,0,0,0-.352,2.073,4.035,4.035,0,0,0,.283,1.423,5.618,5.618,0,0,0,.8,1.479,6.04,6.04,0,0,0,1.271,1.361,4.837,4.837,0,0,0,1.741.815c.85.228,1.527.435,2.031.615a5.107,5.107,0,0,1,1.161.546,1.382,1.382,0,0,1,.525.629,2.328,2.328,0,0,1,.124.8,2.4,2.4,0,0,1-.428,1.458,2.861,2.861,0,0,1-1.175.891,6.405,6.405,0,0,1-1.748.435,17.39,17.39,0,0,1-2.149.124,9.881,9.881,0,0,1-3.089-.4,4.319,4.319,0,0,1-1.935-1.237,4.712,4.712,0,0,1-1-2.114,15.891,15.891,0,0,1-.3-3.061H114.91a17.842,17.842,0,0,0,.442,3.794,7.642,7.642,0,0,0,1.465,3.082,7.1,7.1,0,0,0,2.833,2.073,11.823,11.823,0,0,0,4.574.753,16.846,16.846,0,0,0,3.98-.415,8.334,8.334,0,0,0,2.764-1.182,5.051,5.051,0,0,0,1.638-1.845,5.294,5.294,0,0,0,.539-2.4,4.146,4.146,0,0,0-.9-2.612" transform="translate(-42.322 -18.681)" fill="#6360aa"/>
  <rect id="Rectangle_23" data-name="Rectangle 23" width="2.785" height="2.785" transform="translate(78.842 48.1)" fill="#6360aa"/>
  <path id="Path_43" data-name="Path 43" d="M146.365,58.452a6.834,6.834,0,0,1-.415,2.729,1.492,1.492,0,0,1-1.465.891,4.285,4.285,0,0,1-.76-.062,1.81,1.81,0,0,1-.636-.256v2.515a4.505,4.505,0,0,0,1.043.29,6.33,6.33,0,0,0,1.133.1,4.754,4.754,0,0,0,2.2-.449,3.628,3.628,0,0,0,1.382-1.271,5.72,5.72,0,0,0,.753-1.955,12.3,12.3,0,0,0,.235-2.529V48.44h-3.5Z" transform="translate(-51.03 -19.418)" fill="#6360aa"/>
  <rect id="Rectangle_24" data-name="Rectangle 24" width="2.785" height="2.785" transform="translate(127.66 21.953)" fill="#6360aa"/>
  <rect id="Rectangle_25" data-name="Rectangle 25" width="2.812" height="2.785" transform="translate(129.74 18.194)" fill="#6360aa"/>
  <rect id="Rectangle_26" data-name="Rectangle 26" width="2.812" height="2.785" transform="translate(131.813 21.953)" fill="#6360aa"/>
  <path id="Path_44" data-name="Path 44" d="M202.82,52.807H190.064a2.253,2.253,0,0,1-.746-.138,1.79,1.79,0,0,1-.691-.428,2.238,2.238,0,0,1-.477-.746,2.971,2.971,0,0,1-.18-1.085V45.282h-3.455V50.9a2.128,2.128,0,0,1-.173.926,1.749,1.749,0,0,1-.428.587,1.458,1.458,0,0,1-.553.3,1.748,1.748,0,0,1-.532.09H168.471V51.093a14.046,14.046,0,0,0-.318-3.1,6.171,6.171,0,0,0-.967-2.322,4.747,4.747,0,0,0-1.873-1.465,7.863,7.863,0,0,0-5.632,0,5.093,5.093,0,0,0-1.9,1.465,5.659,5.659,0,0,0-1.043,2.073,9.038,9.038,0,0,0-.318,2.37,6.869,6.869,0,0,0,.38,2.336,4.948,4.948,0,0,0,1.078,1.755,4.581,4.581,0,0,0,1.707,1.092,5.916,5.916,0,0,0,2.211.394h3.027a3.517,3.517,0,0,1-1.3,2.418,4.906,4.906,0,0,1-3,.788,4.1,4.1,0,0,1-.94-.1,5.526,5.526,0,0,1-.933-.29v2.612c.18.069.387.131.615.2a4.966,4.966,0,0,0,.691.117,9.176,9.176,0,0,0,5.915-1.417,6.91,6.91,0,0,0,2.294-4.346h14.663a6.729,6.729,0,0,0,.905-.076,5.4,5.4,0,0,0,1.057-.269,6.523,6.523,0,0,0,1.1-.511,3.9,3.9,0,0,0,1-.829,4.146,4.146,0,0,0,.594.622,4.691,4.691,0,0,0,.774.539,5.258,5.258,0,0,0,.878.38,3.117,3.117,0,0,0,.926.145h16.224V38.22h-3.455Zm-37.749,0H162.48a4.1,4.1,0,0,1-1.278-.173,1.727,1.727,0,0,1-.795-.525,2.073,2.073,0,0,1-.408-.871,6.062,6.062,0,0,1-.1-1.2,6.633,6.633,0,0,1,.131-1.341,3.606,3.606,0,0,1,.442-1.175,2.363,2.363,0,0,1,.788-.822,2.328,2.328,0,0,1,1.223-.3,2.28,2.28,0,0,1,1.258.318,2.17,2.17,0,0,1,.795.905,4.456,4.456,0,0,1,.415,1.444A13.425,13.425,0,0,1,165.071,51Z" transform="translate(-55.149 -16.26)" fill="#6360aa"/>
  <rect id="Rectangle_27" data-name="Rectangle 27" width="3.469" height="17.468" transform="translate(154.07 21.953)" fill="#6360aa"/>
</svg>
