<svg xmlns="http://www.w3.org/2000/svg" xmlns:xlink="http://www.w3.org/1999/xlink" width="175.743" height="67.245" viewBox="0 0 175.743 67.245">
  <defs>
    <linearGradient id="linear-gradient" x1="-9.553" y1="2.426" x2="-1.187" y2="0.251" gradientUnits="objectBoundingBox">
      <stop offset="0" stop-color="#fbd110"/>
      <stop offset="1" stop-color="#564497"/>
    </linearGradient>
    <linearGradient id="linear-gradient-2" x1="-2.471" y1="2.561" x2="-0.44" y2="0.424" xlink:href="#linear-gradient"/>
    <linearGradient id="linear-gradient-3" x1="-2.951" y1="3.066" x2="-0.92" y2="0.93" xlink:href="#linear-gradient"/>
    <linearGradient id="linear-gradient-4" x1="-2.954" y1="3.56" x2="-1.142" y2="1.461" xlink:href="#linear-gradient"/>
    <linearGradient id="linear-gradient-5" x1="-1.704" y1="1.341" x2="0.327" y2="-0.31" xlink:href="#linear-gradient"/>
    <linearGradient id="linear-gradient-6" x1="-2.025" y1="2.072" x2="0.006" y2="-0.065" xlink:href="#linear-gradient"/>
    <linearGradient id="linear-gradient-7" x1="-2.5" y1="2.12" x2="-0.619" y2="0.492" xlink:href="#linear-gradient"/>
    <linearGradient id="linear-gradient-8" x1="-5.415" y1="2.218" x2="2.919" y2="-1.342" xlink:href="#linear-gradient"/>
    <linearGradient id="linear-gradient-9" x1="-8.579" y1="0.59" x2="-0.213" y2="-0.001" xlink:href="#linear-gradient"/>
    <linearGradient id="linear-gradient-10" x1="-10.902" y1="4.544" x2="-2.536" y2="0.984" xlink:href="#linear-gradient"/>
    <linearGradient id="linear-gradient-11" x1="-1.573" y1="9.657" x2="-0.039" y2="-0.013" xlink:href="#linear-gradient"/>
    <linearGradient id="linear-gradient-12" x1="-0.112" y1="0.843" x2="0.87" y2="-8.868" xlink:href="#linear-gradient"/>
    <linearGradient id="linear-gradient-13" x1="-3.482" y1="4.08" x2="-1.651" y2="1.905" xlink:href="#linear-gradient"/>
    <linearGradient id="linear-gradient-14" x1="-4.191" y1="4.508" x2="-2.164" y2="2.408" xlink:href="#linear-gradient"/>
    <linearGradient id="linear-gradient-15" x1="-6.086" y1="4.271" x2="-3.479" y2="2.493" xlink:href="#linear-gradient"/>
    <linearGradient id="linear-gradient-16" x1="-17.517" y1="4.203" x2="-10.734" y2="2.575" xlink:href="#linear-gradient"/>
    <linearGradient id="linear-gradient-17" x1="-4.6" y1="5.467" x2="-2.788" y2="3.368" xlink:href="#linear-gradient"/>
    <linearGradient id="linear-gradient-18" x1="-5.77" y1="6.03" x2="-3.738" y2="3.893" xlink:href="#linear-gradient"/>
  </defs>
  <g id="Layer_1" data-name="Layer 1" transform="translate(-86.05 -364.7)">
    <g id="_Group_" data-name="&lt;Group&gt;" transform="translate(86.05 364.7)">
      <g id="_Group_2" data-name="&lt;Group&gt;" transform="translate(22.334 10.836)">
        <path id="_Compound_Path_" data-name="&lt;Compound Path&gt;" d="M476.7,428.8h4.094v18.275H476.7Z" transform="translate(-476.7 -428.469)" fill="url(#linear-gradient)"/>
        <path id="_Compound_Path_2" data-name="&lt;Compound Path&gt;" d="M515.921,430.959c1.359-2.352,3.414-4.059,6.341-4.059,3.728,0,5.8,2.422,5.8,6.254v12.352H523.97V434.3c0-2.526-1.359-4.094-3.92-4.094-2.526,0-4.791,2.108-4.791,4.3v10.993h-4.024l-.035-18.275h3.345l.714,3.728Z" transform="translate(-505.19 -426.9)" fill="url(#linear-gradient-2)"/>
        <path id="_Compound_Path_3" data-name="&lt;Compound Path&gt;" d="M625.1,430.959c1.376-2.352,3.415-4.059,6.359-4.059,3.711,0,5.8,2.422,5.8,6.254v12.352H633.17V434.3c0-2.526-1.376-4.094-3.937-4.094-2.526,0-4.773,2.108-4.773,4.3v10.993h-4.024l-.035-18.275h3.345l.714,3.728Z" transform="translate(-595.366 -426.9)" fill="url(#linear-gradient-3)"/>
        <path id="_Compound_Path_4" data-name="&lt;Compound Path&gt;" d="M743.2,436.394a9.026,9.026,0,0,1-9.407,9.442c-5.4,0-9.495-3.676-9.495-9.442a9.451,9.451,0,1,1,18.9,0Zm-14.912,0c0,3.345,2.213,6.063,5.505,6.063,3.205,0,5.453-2.718,5.453-6.063,0-3.38-2.247-6.115-5.453-6.115C730.5,430.28,728.289,433.015,728.289,436.394Z" transform="translate(-681.166 -426.9)" fill-rule="evenodd" fill="url(#linear-gradient-4)"/>
      </g>
      <g id="_Group_3" data-name="&lt;Group&gt;" transform="translate(22.142 32.002)">
        <path id="_Compound_Path_5" data-name="&lt;Compound Path&gt;" d="M480.478,557.755c1.429-2.247,3.484-3.885,6.341-3.885,3.693,0,5.644,2.247,5.644,6.115v12.491h-4.111v-11.2c0-2.526-1.359-4.094-3.885-4.094-2.561,0-4.808,2.125-4.808,4.3l.035,10.993h-4.076L475.6,548.4h4.059l.035,9.355Z" transform="translate(-475.6 -548.4)" fill="url(#linear-gradient-5)"/>
        <path id="_Compound_Path_6" data-name="&lt;Compound Path&gt;" d="M599.408,596.364a6.776,6.776,0,0,1-6.045,4.042c-3.92,0-6.063-2.631-6.063-6.463V581.8h4.094v11.184c0,2.526,1.394,4.111,3.955,4.111,2.491,0,4.756-2.125,4.756-4.268V581.8h4.059v18.257h-3.345l-.714-3.693Z" transform="translate(-567.841 -575.981)" fill="url(#linear-gradient-6)"/>
        <path id="_Compound_Path_7" data-name="&lt;Compound Path&gt;" d="M701.9,572.476V548.4h4.059v9.982h.662c1.028-2.7,2.962-4.512,6.01-4.512,4.878,0,7.474,4.2,7.474,9.285,0,5.122-2.665,9.669-7.857,9.669-2.84,0-4.477-1.551-5.4-4.077h-.976l-.627,3.728Zm4.042-9.042c0,3.536,1.9,6.01,5.052,6.01,3.206.035,5.017-2.631,5.017-6.08s-1.812-6.115-5.017-6.115C707.806,557.25,705.977,560.089,705.942,563.434Z" transform="translate(-662.476 -548.4)" fill-rule="evenodd" fill="url(#linear-gradient-7)"/>
      </g>
      <path id="_Path_" data-name="&lt;Path&gt;" d="M552.911,697.767H548.8V686.6h4.111Z" transform="translate(-513.906 -630.522)" fill="url(#linear-gradient-8)"/>
      <path id="_Path_2" data-name="&lt;Path&gt;" d="M352.594,431.945H348.5V364.7h4.094Z" transform="translate(-348.5 -364.7)" fill="url(#linear-gradient-9)"/>
      <path id="_Path_3" data-name="&lt;Path&gt;" d="M480.794,375.867H476.7V364.7h4.094Z" transform="translate(-454.366 -364.7)" fill="url(#linear-gradient-10)"/>
      <path id="_Path_4" data-name="&lt;Path&gt;" d="M370.834,364.7v4.111H348.5V364.7Z" transform="translate(-348.5 -364.7)" fill="url(#linear-gradient-11)"/>
      <path id="_Path_5" data-name="&lt;Path&gt;" d="M383.394,727.2v4.094H348.5V727.2Z" transform="translate(-348.5 -664.049)" fill="url(#linear-gradient-12)"/>
      <g id="_Group_4" data-name="&lt;Group&gt;" transform="translate(83.447 5.035)">
        <path id="_Compound_Path_8" data-name="&lt;Compound Path&gt;" d="M834.468,447.075,827.5,428.8h4.477l4.582,14.076h.575l4.582-14.076h4.495l-7,18.275Z" transform="translate(-827.5 -422.668)" fill="url(#linear-gradient-13)"/>
        <path id="_Compound_Path_9" data-name="&lt;Compound Path&gt;" d="M938.476,429.792a4.162,4.162,0,0,0-4.268,3.449l-3.449-1.829c1.307-2.909,4.477-4.512,8.031-4.512,4.529,0,7.909,2.108,7.909,6.725v11.881h-3.345l-.645-3.066h-.923a6.917,6.917,0,0,1-6.341,3.4c-3.31,0-5.644-1.829-5.644-4.948,0-4.6,4.826-5.975,10.453-5.975h2.456v-1.254c0-2.631-1.568-3.867-4.233-3.867Zm1.881,6.9c-3.885,0-6.55,1.167-6.55,3.484,0,1.707,1.463,2.735,3.484,2.735,3.066.035,5.418-1.812,5.418-4.233v-1.986Z" transform="translate(-911.978 -421.099)" fill-rule="evenodd" fill="url(#linear-gradient-14)"/>
        <path id="_Compound_Path_10" data-name="&lt;Compound Path&gt;" d="M1029.94,412.822h-3.24v-1.777h3.606l.749-3.746h2.979v3.746h4.982v1.777h-4.982v10.836c0,2.282,1.289,2.927,2.631,2.927a4.872,4.872,0,0,0,2.352-.61l.819,2.962a9.51,9.51,0,0,1-4.024.714c-3.275,0-5.871-2.073-5.871-6.272Z" transform="translate(-991.997 -404.913)" fill="url(#linear-gradient-15)"/>
        <path id="_Compound_Path_11" data-name="&lt;Compound Path&gt;" d="M1109.961,393.6a2.339,2.339,0,1,1,0,4.669,2.344,2.344,0,1,1,0-4.669Zm-2.038,6.132h4.094v18.275h-4.094Z" transform="translate(-1058.639 -393.6)" fill="url(#linear-gradient-16)"/>
        <path id="_Compound_Path_12" data-name="&lt;Compound Path&gt;" d="M1162.4,436.394a9.026,9.026,0,0,1-9.407,9.442c-5.4,0-9.495-3.676-9.495-9.442a9.451,9.451,0,1,1,18.9,0Zm-14.912,0c0,3.345,2.212,6.063,5.505,6.063,3.205,0,5.453-2.718,5.453-6.063,0-3.38-2.247-6.115-5.453-6.115C1149.7,430.28,1147.49,433.015,1147.49,436.394Z" transform="translate(-1088.45 -421.099)" fill-rule="evenodd" fill="url(#linear-gradient-17)"/>
        <path id="_Compound_Path_13" data-name="&lt;Compound Path&gt;" d="M1265.2,430.959c1.376-2.352,3.415-4.059,6.359-4.059,3.711,0,5.8,2.422,5.8,6.254v12.352h-4.094V434.3c0-2.526-1.376-4.094-3.937-4.094-2.526,0-4.773,2.108-4.773,4.3v10.993h-4.024l-.035-18.275h3.345l.714,3.728Z" transform="translate(-1185.067 -421.099)" fill="url(#linear-gradient-18)"/>
      </g>
    </g>
  </g>
</svg>
