<svg width="395" height="68" viewBox="0 0 395 68" fill="none" xmlns="http://www.w3.org/2000/svg">
<g clip-path="url(#clip0_51_3152)">
<path d="M341.57 5.79367L341.562 5.80169C341.567 5.80741 341.57 5.81276 341.575 5.81543L341.57 5.79367ZM341.57 5.79367L341.562 5.80169C341.567 5.80741 341.57 5.81276 341.575 5.81543L341.57 5.79367ZM341.57 5.79367L341.562 5.80169C341.567 5.80741 341.57 5.81276 341.575 5.81543L341.57 5.79367ZM341.57 5.79367L341.562 5.80169C341.567 5.80741 341.57 5.81276 341.575 5.81543L341.57 5.79367ZM341.57 5.79367L341.562 5.80169C341.567 5.80741 341.57 5.81276 341.575 5.81543L341.57 5.79367ZM341.57 5.79367L341.562 5.80169C341.567 5.80741 341.57 5.81276 341.575 5.81543L341.57 5.79367Z" fill="#434244"/>
<path d="M341.576 5.81543C341.57 5.81276 341.568 5.80741 341.562 5.80207L341.57 5.79367L341.576 5.81543Z" fill="#434244"/>
<path d="M341.576 5.81543C341.57 5.81276 341.568 5.80741 341.562 5.80207L341.57 5.79367L341.576 5.81543Z" fill="#434244"/>
<path d="M375.069 32.2487C370.755 21.4785 361.312 12.9851 346.995 7.00213C346.961 6.9878 343.686 5.79253 341.803 3.71932L341.518 3.72219C340.306 5.07225 336.984 6.64384 336.955 6.65817C321.908 13.166 312.192 22.3646 308.081 34.0008C304.643 43.7243 305.874 53.2788 307.608 59.7719C305.824 53.3402 304.507 43.8267 307.858 34.068C311.908 22.2713 321.71 12.8655 336.995 6.11028C337.132 6.04026 340.329 4.41912 341.666 3.04286C343.723 5.28518 347.384 6.62622 347.413 6.63483C362.046 13.1046 371.524 21.9506 375.585 32.9309C377.981 39.4154 378.065 45.637 377.427 50.5295C377.972 45.4331 377.746 38.9281 375.069 32.2487ZM377.158 50.3108C377.578 45.0658 377.175 38.395 374.256 31.6508C369.728 21.1869 360.381 13.1075 346.467 7.63805C346.439 7.62617 343.561 6.57668 341.788 4.66113L341.516 4.664C340.361 6.01119 337.071 7.4542 337.039 7.46894C322.299 13.6996 312.726 22.6328 308.583 34.027C305.07 43.6867 306.228 53.2554 307.904 59.7662C306.172 53.3168 304.928 43.7915 308.354 34.0971C312.438 22.5427 322.099 13.399 337.074 6.92351C337.21 6.85963 340.367 5.36667 341.661 3.99327C343.601 6.0722 346.862 7.26461 346.891 7.27361C361.124 13.2213 370.514 21.6591 374.799 32.3535C377.424 38.9019 377.677 45.2816 377.158 50.3108ZM376.922 49.5586C377.041 46.7656 376.917 43.6138 376.325 40.2986C375.167 33.8174 372.466 27.9978 368.298 23.0063C363.09 16.7695 355.571 11.8131 345.943 8.2707C345.916 8.26169 343.433 7.36083 341.774 5.60006L341.513 5.60867C340.413 6.95258 337.155 8.26497 337.123 8.2793C322.691 14.2332 313.259 22.9072 309.085 34.0532C305.479 43.6867 306.587 53.314 308.224 59.839C306.535 53.3721 305.34 43.7915 308.856 34.1233C312.973 22.8109 322.491 13.9326 337.152 7.73715C337.286 7.67572 340.402 6.31134 341.658 4.94408C343.479 6.85635 346.253 7.86818 346.366 7.90913C360.198 13.3495 369.493 21.3733 373.989 31.7647C376.754 38.1497 377.244 44.4708 376.922 49.5586ZM341.562 5.80112L341.571 5.79252L341.576 5.81545C341.571 5.81258 341.568 5.80686 341.562 5.80112ZM376.627 49.6839C376.696 46.8061 376.513 43.5409 375.837 40.1238C374.558 33.6393 371.785 27.8754 367.598 22.9887C362.368 16.8862 354.904 12.1485 345.414 8.90908C345.394 8.90048 343.305 8.14213 341.759 6.54188L341.51 6.55334C340.468 7.89152 337.242 9.07533 337.207 9.09007C323.082 14.7724 313.793 23.1783 309.593 34.0799C305.874 43.7362 306.961 53.4712 308.566 60.02C306.909 53.5326 305.728 43.8439 309.358 34.1527C313.503 23.0849 322.879 14.4723 337.231 8.55038C337.364 8.4951 340.445 7.25314 341.652 5.89162C343.355 7.64092 345.742 8.50984 345.844 8.54751C367.52 16.5189 374.227 30.234 376.038 40.3367C376.638 43.6867 376.754 46.8733 376.627 49.6839ZM376.339 49.5034C376.339 46.6141 376.084 43.3484 375.35 39.9457C373.949 33.4615 371.106 27.7497 366.899 22.9711C361.645 17.0029 354.24 12.4838 344.889 9.54459C344.872 9.536 343.178 8.92669 341.742 7.4804L341.51 7.49801C340.521 8.83333 337.329 9.88897 337.289 9.90044C323.474 15.3117 314.327 23.4551 310.103 34.1089C306.274 43.7596 307.327 53.5822 308.896 60.1482C307.275 53.6432 306.132 43.8701 309.866 34.1818C314.034 23.3617 323.271 15.0116 337.309 9.36115C337.442 9.31447 340.48 8.20068 341.649 6.84202C343.23 8.42507 345.235 9.15108 345.322 9.18303C366.687 16.4808 373.551 30.0592 375.55 40.1676C376.209 43.5 376.397 46.6837 376.339 49.5034ZM374.86 39.7708C373.34 33.2838 370.427 27.6244 366.203 22.9567C360.923 17.1196 353.572 12.8188 344.361 10.1805C344.35 10.1744 343.05 9.71085 341.727 8.41934L341.507 8.44268C340.576 9.77227 337.416 10.6993 337.373 10.7108C323.866 15.8543 314.864 23.7351 310.617 34.1351C306.718 43.6777 307.672 53.486 309.175 60.0725C307.617 53.5502 306.573 43.7944 310.373 34.2138C314.568 23.6418 323.66 15.5509 337.387 10.1744C337.521 10.131 340.517 9.14248 341.643 7.79243C343.102 9.21251 344.724 9.79274 344.797 9.81895C365.852 16.4431 372.878 29.8868 375.063 39.9985C375.776 43.3046 376.038 46.4797 376.049 49.3052C375.977 46.4069 375.652 43.1503 374.86 39.7708ZM375.858 32.8346C371.77 21.7758 362.237 12.8716 347.521 6.36375C347.495 6.35515 345.899 5.77205 344.24 4.73975L344.237 4.73689C343.764 4.27909 343.401 3.84749 343.401 3.84749V1.72516L342.519 1.416L342.409 0.786217H340.863L340.75 1.416L339.862 1.72516V3.84749C339.769 4.01947 339.595 4.2152 339.389 4.40725C339.389 4.41053 339.389 4.41052 339.386 4.41052C338.13 5.20615 336.885 5.83879 336.871 5.84781C321.516 12.6325 311.661 22.0964 307.582 33.9746C301.945 50.3895 309.43 66.1221 310.298 67.8452H311.928C311.6 67.1135 304.327 50.3022 310.884 34.2457C315.099 23.9215 324.046 16.0963 337.466 10.988C337.596 10.9499 340.558 10.0814 341.643 8.74284C342.972 9.9938 344.216 10.434 344.274 10.4573C365.019 16.405 372.202 29.7119 374.575 39.8294C377.032 50.3108 374.981 59.6261 374.776 60.5212L374.755 60.597L375.025 60.6994L375.098 60.5274C375.103 60.5098 375.112 60.4922 375.121 60.4746C375.887 58.7195 380.85 46.3368 375.858 32.8346Z" fill="#434244"/>
<path d="M395 67.0684V13.7365C395 13.2217 394.506 12.8049 393.896 12.8049C393.286 12.8049 392.791 13.2217 392.791 13.7365V68H395V67.0684Z" fill="#434244"/>
<path d="M390.542 67.0684V6.20406C390.542 5.68975 390.048 5.2725 389.438 5.2725C388.828 5.2725 388.333 5.68975 388.333 6.20406V68H390.56L390.542 67.0684Z" fill="#717142"/>
<path d="M385.985 67.0684V0.93158C385.985 0.416862 385.49 1.52588e-05 384.88 1.52588e-05C384.271 1.52588e-05 383.776 0.416862 383.776 0.93158V68H385.985V67.0684Z" fill="#434244"/>
<path d="M147.601 23.0721H146.09C146.004 23.0721 145.964 23.1184 145.964 23.2044V29.4002C145.964 29.6512 145.918 29.8293 145.82 29.9219C145.728 30.0144 145.577 30.0673 145.373 30.0673H144.236V24.9676C144.236 24.882 144.19 24.8423 144.111 24.8423H142.593C142.514 24.8423 142.468 24.882 142.468 24.9676V30.0673H140.49C140.411 30.0673 140.365 30.107 140.365 30.1926V31.4476C140.365 31.5336 140.411 31.5799 140.49 31.5799H146.274C146.799 31.5799 147.174 31.4476 147.391 31.19C147.621 30.9456 147.733 30.5427 147.733 30.0013V23.2044C147.733 23.1184 147.693 23.0721 147.601 23.0721ZM144.709 34.3672H143.467C143.369 34.3078 143.29 34.2284 143.211 34.1162C143.132 34.004 143.092 33.8721 143.092 33.7264C143.092 33.5613 143.139 33.4295 143.244 33.3238C143.342 33.2243 143.467 33.1719 143.625 33.1719C143.842 33.1719 144.039 33.2776 144.21 33.4688C144.249 33.502 144.295 33.502 144.341 33.4492L144.709 33.0659C144.736 33.0262 144.749 32.9934 144.723 32.9537C144.617 32.8083 144.459 32.6896 144.269 32.597C144.072 32.4979 143.842 32.4517 143.572 32.4517C143.336 32.4517 143.132 32.4848 142.961 32.5573C142.802 32.6214 142.659 32.7182 142.54 32.8415C142.437 32.962 142.356 33.1008 142.304 33.251C142.253 33.3952 142.226 33.5471 142.225 33.7002C142.225 33.8386 142.238 33.9577 142.271 34.0634C142.304 34.176 142.343 34.2681 142.396 34.3672H141.929C141.89 34.3672 141.857 34.3938 141.857 34.4532V35.0146C141.857 35.074 141.89 35.1006 141.929 35.1006H144.709C144.762 35.1006 144.782 35.074 144.782 35.0146V34.4532C144.782 34.3938 144.762 34.3672 144.709 34.3672ZM110.375 32.6629H109.114C109.035 32.6629 108.989 32.7027 108.989 32.7887V34.0105C108.989 34.0965 109.035 34.1363 109.114 34.1363H110.375C110.461 34.1363 110.494 34.0965 110.494 34.0105V32.7887C110.494 32.7027 110.461 32.6629 110.375 32.6629ZM108.443 32.6629H107.201C107.122 32.6629 107.076 32.7027 107.076 32.7887V34.0105C107.076 34.0965 107.122 34.1363 107.201 34.1363H108.443C108.529 34.1363 108.568 34.0965 108.568 34.0105V32.7887C108.568 32.7027 108.529 32.6629 108.443 32.6629ZM102.41 23.0721H101.161C101.076 23.0721 101.036 23.1184 101.036 23.2044V24.4262C101.036 24.5118 101.076 24.5515 101.161 24.5515H102.41C102.495 24.5515 102.541 24.5118 102.541 24.4262V23.2044C102.541 23.1184 102.495 23.0721 102.41 23.0721ZM100.484 23.0721H99.242C99.1633 23.0721 99.1173 23.1184 99.1173 23.2044V24.4262C99.1173 24.5118 99.1633 24.5515 99.242 24.5515H100.484C100.57 24.5515 100.609 24.5118 100.609 24.4262V23.2044C100.609 23.1184 100.57 23.0721 100.484 23.0721ZM91.9995 30.0673H91.0396C90.7242 30.0673 90.4679 29.9878 90.2773 29.8359C90.0801 29.6774 89.9815 29.3736 89.9815 28.9113C89.9815 28.5084 90.0735 28.198 90.2447 27.9601C90.4219 27.7287 90.6717 27.61 91.0135 27.61C91.6707 27.61 91.9995 28.026 91.9995 28.8519V30.0673ZM93.5176 27.5637C93.3794 27.1939 93.1757 26.9097 92.926 26.6985C92.6827 26.4872 92.3935 26.3352 92.0585 26.2362C91.7152 26.1457 91.3619 26.099 91.007 26.0973C90.6613 26.0967 90.3177 26.1502 89.9884 26.2558C89.6661 26.3549 89.3703 26.5134 89.1206 26.7447C88.8708 26.9626 88.6606 27.2599 88.5094 27.6296C88.3517 27.9932 88.2792 28.442 88.2792 28.9772C88.2792 29.5386 88.3517 29.9944 88.4964 30.3314C88.641 30.6749 88.8578 30.9325 89.1336 31.1176C89.4098 31.3088 89.7452 31.4345 90.1391 31.4939C90.527 31.5533 90.9805 31.5799 91.4735 31.5799H91.9995C91.9995 31.8043 91.9665 31.9959 91.9204 32.1347C91.8614 32.2666 91.7888 32.3792 91.6902 32.4517C91.5986 32.5311 91.48 32.5774 91.3488 32.597C91.2007 32.6167 91.0513 32.6256 90.9019 32.6236H89.4754C89.3903 32.6236 89.3508 32.6699 89.3508 32.7489V34.0105C89.3508 34.0965 89.3903 34.1363 89.4754 34.1363H91.2828C92.1307 34.1363 92.7487 33.9512 93.1497 33.5613C93.5371 33.1781 93.7343 32.597 93.7343 31.8108V28.8978C93.7343 28.3695 93.6622 27.9203 93.5176 27.5637ZM86.6691 23.0721H85.177C85.0919 23.0721 85.0524 23.1184 85.0524 23.2044V31.4476C85.0524 31.5336 85.0919 31.5799 85.177 31.5799H86.6691C86.7481 31.5799 86.7941 31.5336 86.7941 31.4476V23.2044C86.7941 23.1184 86.7481 23.0721 86.6691 23.0721ZM83.2581 23.0721H81.74C81.6479 23.0721 81.6149 23.1184 81.6149 23.2044V29.4002C81.6149 29.6512 81.5623 29.8293 81.4707 29.9219C81.3721 30.0144 81.2209 30.0673 81.0168 30.0673H79.8866V24.9676C79.8866 24.882 79.8405 24.8423 79.7615 24.8423H78.2369C78.1578 24.8423 78.1187 24.882 78.1187 24.9676V30.0673H76.1402C76.0616 30.0673 76.0156 30.107 76.0156 30.1926V31.4476C76.0156 31.5336 76.0616 31.5799 76.1402 31.5799H81.9172C82.4432 31.5799 82.8246 31.4476 83.0413 31.19C83.2646 30.9456 83.3831 30.5427 83.3831 30.0013V23.2044C83.3831 23.1184 83.3371 23.0721 83.2581 23.0721ZM80.34 23.2899H79.0978C79.0122 23.2371 78.9205 23.1446 78.8415 23.0389C78.7629 22.9267 78.7299 22.801 78.7299 22.6491C78.7299 22.4841 78.7759 22.3522 78.8745 22.2531C78.9731 22.154 79.1043 22.1012 79.2555 22.1012C79.4791 22.1012 79.6698 22.1933 79.847 22.385C79.8931 22.4313 79.9261 22.4313 79.9721 22.3784L80.34 21.9886C80.3796 21.9559 80.3796 21.9161 80.3531 21.8764C80.248 21.7376 80.0968 21.6188 79.9061 21.5198C79.7089 21.4207 79.4791 21.3809 79.2163 21.3809C78.9731 21.3809 78.7629 21.4141 78.5983 21.48C78.4276 21.5529 78.2829 21.6451 78.1843 21.7708C78.0769 21.8883 77.9922 22.025 77.9346 22.1737C77.8829 22.3201 77.8562 22.4741 77.8555 22.6294C77.8555 22.7617 77.869 22.8805 77.9081 22.9861C77.9411 23.0987 77.9806 23.1974 78.0266 23.2899H77.5732C77.5206 23.2899 77.5007 23.3231 77.5007 23.3759V23.9373C77.5007 23.9967 77.5206 24.0233 77.5732 24.0233H80.34C80.3926 24.0233 80.4191 23.9967 80.4191 23.9373V23.3759C80.4191 23.3231 80.3926 23.2899 80.34 23.2899ZM73.025 30.0673H72.0655C71.7567 30.0673 71.5004 29.9878 71.3032 29.8359C71.106 29.6774 71.014 29.3736 71.014 28.9113C71.014 28.5084 71.0995 28.198 71.2767 27.9601C71.4409 27.7287 71.7041 27.61 72.046 27.61C72.6966 27.61 73.025 28.026 73.025 28.8519V30.0673ZM74.5431 27.5637C74.3985 27.1939 74.2017 26.9097 73.9585 26.6985C73.7017 26.4857 73.404 26.3283 73.0841 26.2362C72.7488 26.1502 72.4008 26.0973 72.039 26.0973C71.6934 26.0968 71.3498 26.1502 71.0205 26.2558C70.6964 26.3508 70.3977 26.5179 70.1465 26.7447C69.8899 26.9626 69.6861 27.2599 69.535 27.6296C69.3838 27.9932 69.3052 28.442 69.3052 28.9772C69.3052 29.5386 69.3773 29.9944 69.5219 30.3314C69.6666 30.6749 69.8768 30.9325 70.1531 31.1176C70.4354 31.3088 70.7707 31.4345 71.1651 31.4939C71.5595 31.5533 71.9999 31.5799 72.506 31.5799H73.025C73.025 31.8043 72.9986 31.9959 72.9464 32.1347C72.8869 32.2666 72.8148 32.3792 72.7227 32.4517C72.6241 32.5305 72.5059 32.5808 72.3809 32.597C72.2305 32.6167 72.079 32.6256 71.9274 32.6236H70.4949C70.4158 32.6236 70.3698 32.6699 70.3698 32.7489V34.0105C70.3698 34.0965 70.4158 34.1363 70.4949 34.1363H72.3153C73.1566 34.1363 73.7743 33.9512 74.1687 33.5613C74.5696 33.1781 74.7668 32.597 74.7668 31.8108V28.8978C74.7668 28.3695 74.6943 27.9203 74.5431 27.5637ZM66.7746 23.5807H65.5128C65.4342 23.5807 65.3947 23.6204 65.3947 23.6994V24.9283C65.3947 25.0073 65.4342 25.0536 65.5128 25.0536H66.7746C66.8602 25.0536 66.8997 25.0073 66.8997 24.9283V23.6994C66.8997 23.6204 66.8602 23.5807 66.7746 23.5807ZM64.8491 23.5807H63.6004C63.5213 23.5807 63.4822 23.6204 63.4822 23.6994V24.9283C63.4822 25.0073 63.5213 25.0536 63.6004 25.0536H64.8491C64.9278 25.0536 64.9673 25.0073 64.9673 24.9283V23.6994C64.9673 23.6204 64.9278 23.5807 64.8491 23.5807ZM53.512 23.5807H51.9674C51.8818 23.5807 51.8423 23.6204 51.8423 23.6994V24.9283C51.8423 25.0073 51.8818 25.0536 51.9674 25.0536H53.512C53.5906 25.0536 53.6301 25.0073 53.6301 24.9283V23.6994C53.6301 23.6204 53.5906 23.5807 53.512 23.5807ZM53.4659 29.8494C53.3017 30.021 53.0451 30.1135 52.7101 30.1135C52.3683 30.1135 52.112 30.021 51.9478 29.8424C51.7767 29.6578 51.6912 29.3208 51.6912 28.8384C51.6912 28.0194 52.033 27.61 52.7101 27.61C53.3869 27.61 53.7222 28.033 53.7222 28.8781C53.7222 29.3474 53.6301 29.6643 53.4659 29.8494ZM55.2403 27.5702C55.0891 27.207 54.8854 26.9163 54.6291 26.6985C54.3794 26.4872 54.0836 26.3352 53.7552 26.2362C53.4199 26.1502 53.0715 26.0973 52.7101 26.0973C52.3618 26.0973 52.02 26.1502 51.6846 26.2362C51.3614 26.3297 51.06 26.4869 50.7977 26.6985C50.541 26.9163 50.3373 27.207 50.1796 27.5702C50.0284 27.9334 49.9563 28.3892 49.9563 28.944C49.9563 29.4199 50.0219 29.7896 50.1535 30.0673H46.8277C46.6239 30.0673 46.4728 30.0144 46.3742 29.9219C46.2821 29.8293 46.2296 29.6512 46.2296 29.4002V27.2402C46.2296 27.1608 46.197 27.1145 46.1049 27.1145H44.5933C44.5078 27.1145 44.4617 27.1608 44.4617 27.2402V30.0013C44.4617 30.5427 44.5799 30.9456 44.8035 31.19C45.0268 31.4476 45.4017 31.5799 45.9272 31.5799H52.7101C53.1045 31.5799 53.4659 31.5336 53.8008 31.4476C54.1213 31.3742 54.4205 31.2273 54.6752 31.0185C54.9184 30.8137 55.1091 30.5427 55.2468 30.2057C55.3914 29.8691 55.457 29.4461 55.457 28.944C55.457 28.3892 55.3849 27.9334 55.2403 27.5702ZM38.3169 30.0673H37.3569C37.0481 30.0673 36.7918 29.9878 36.5946 29.8359C36.3974 29.6774 36.3054 29.3736 36.3054 28.9113C36.3054 28.5084 36.3909 28.198 36.5616 27.9601C36.7328 27.7287 36.9956 27.61 37.3374 27.61C37.9946 27.61 38.3169 28.026 38.3169 28.8519V30.0673ZM39.8415 27.5637C39.6968 27.1939 39.4996 26.9097 39.2499 26.6985C38.9932 26.4858 38.6957 26.3284 38.3759 26.2362C38.0406 26.1502 37.6923 26.0973 37.3309 26.0973C36.9852 26.0967 36.6416 26.1502 36.3123 26.2558C35.988 26.3507 35.6892 26.5178 35.4379 26.7447C35.1882 26.9626 34.9845 27.2599 34.8268 27.6296C34.6756 27.9932 34.5966 28.442 34.5966 28.9772C34.5966 29.5386 34.6691 29.9944 34.8138 30.3314C34.958 30.6749 35.1686 30.9325 35.4445 31.1176C35.7337 31.3088 36.0625 31.4345 36.4565 31.4939C36.8509 31.5533 37.2914 31.5799 37.7974 31.5799H38.3169C38.3169 31.8043 38.2904 31.9959 38.2378 32.1347C38.1787 32.2666 38.1062 32.3792 38.0141 32.4517C37.9225 32.5311 37.8039 32.5774 37.6727 32.597C37.5224 32.6167 37.3708 32.6256 37.2192 32.6236H35.7863C35.7073 32.6236 35.6681 32.6699 35.6681 32.7489V34.0105C35.6681 34.0965 35.7073 34.1363 35.7863 34.1363H37.6067C38.448 34.1363 39.0657 33.9512 39.4601 33.5613C39.861 33.1781 40.0582 32.597 40.0582 31.8108V28.8978C40.0582 28.3695 39.9861 27.9203 39.8415 27.5637ZM32.9864 23.0721H31.4944C31.4093 23.0721 31.3698 23.1184 31.3698 23.2044V31.4476C31.3698 31.5336 31.4093 31.5799 31.4944 31.5799H32.9864C33.072 31.5799 33.1115 31.5336 33.1115 31.4476V23.2044C33.1115 23.1184 33.072 23.0721 32.9864 23.0721ZM21.807 23.5807H20.2624C20.1772 23.5807 20.1377 23.6204 20.1377 23.6994V24.9283C20.1377 25.0073 20.1772 25.0536 20.2624 25.0536H21.807C21.886 25.0536 21.932 25.0073 21.932 24.9283V23.6994C21.932 23.6204 21.886 23.5807 21.807 23.5807ZM4.26545 23.5807H3.03012C2.95108 23.5807 2.91155 23.6204 2.91155 23.6994V24.9283C2.91155 25.0073 2.95108 25.0536 3.03012 25.0536H4.26545C4.35101 25.0536 4.39052 25.0073 4.39052 24.9283V23.6994C4.39052 23.6204 4.35101 23.5807 4.26545 23.5807ZM2.37252 23.5807H1.15023C1.07119 23.5807 1.03208 23.6204 1.03208 23.6994V24.9283C1.03208 25.0073 1.07119 25.0536 1.15023 25.0536H2.37252C2.45808 25.0536 2.4976 25.0073 2.4976 24.9283V23.6994C2.4976 23.6204 2.45808 23.5807 2.37252 23.5807ZM3.47014 29.8691C3.30594 30.0607 3.04967 30.1532 2.70783 30.1532C2.38596 30.1532 2.13621 30.0607 1.96509 29.8691C1.80089 29.6774 1.71534 29.3539 1.71534 28.8781C1.71534 28.033 2.04413 27.61 2.70783 27.61C3.37154 27.61 3.70686 28.033 3.70686 28.8781C3.70686 29.3539 3.62129 29.6774 3.47014 29.8691ZM5.19887 27.5702C5.05423 27.207 4.85052 26.9163 4.60077 26.6985C4.34885 26.4859 4.05566 26.3285 3.73986 26.2362C3.40319 26.1457 3.05634 26.099 2.70783 26.0973C2.36164 26.0994 2.01714 26.1461 1.68274 26.2362C1.36047 26.3352 1.06467 26.4872 0.814914 26.6985C0.571678 26.9163 0.374484 27.207 0.223327 27.5702C0.0790966 27.9334 5.34058e-05 28.3892 5.34058e-05 28.944C5.34058e-05 29.4461 0.0721774 29.8756 0.210296 30.2257C0.354934 30.5758 0.545608 30.86 0.782325 31.0713C1.02967 31.2855 1.32161 31.4412 1.6367 31.527C1.96509 31.6196 2.33341 31.6589 2.70783 31.6589C3.09571 31.6589 3.45059 31.6196 3.77898 31.527C4.09673 31.4427 4.39125 31.2868 4.64028 31.0713C4.88311 30.86 5.07379 30.5758 5.21191 30.2257C5.34351 29.8756 5.41563 29.4461 5.41563 28.944C5.41563 28.3892 5.34351 27.9334 5.19887 27.5702Z" fill="#717142"/>
<path d="M139.096 26.4411V30.0011C139.096 30.5428 138.978 30.9458 138.755 31.1902C138.538 31.4478 138.156 31.58 137.631 31.58H136.947C136.632 31.58 136.369 31.5141 136.165 31.395C135.962 31.2762 135.803 31.1108 135.698 30.9126C135.58 31.1706 135.403 31.3487 135.166 31.4412C134.93 31.5272 134.607 31.58 134.2 31.58H133.72C133.392 31.58 133.135 31.5141 132.925 31.395C132.721 31.2762 132.557 31.1108 132.452 30.9126C132.333 31.1771 132.156 31.3618 131.926 31.4478C131.696 31.5338 131.367 31.58 130.947 31.58H129.455C129.435 31.58 129.415 31.58 129.395 31.5735H129.336C129.317 31.58 129.297 31.58 129.271 31.58H127.674C127.634 31.58 127.595 31.5735 127.555 31.5735C127.536 31.58 127.509 31.58 127.489 31.58C127.216 31.5815 126.943 31.5414 126.681 31.4609C126.451 31.3884 126.248 31.2168 126.077 30.9523C125.958 31.2099 125.774 31.3749 125.524 31.4543C125.288 31.5338 124.946 31.58 124.519 31.58H119.031C118.946 31.58 118.913 31.5338 118.913 31.4478V30.1927C118.913 30.1067 118.946 30.0674 119.031 30.0674H121.009V24.9677C121.009 24.8822 121.049 24.8424 121.134 24.8424H122.646C122.732 24.8424 122.777 24.8822 122.777 24.9677V30.0674H123.908C124.118 30.0674 124.263 30.0146 124.361 29.9221C124.46 29.8295 124.499 29.6514 124.499 29.4004V23.2041C124.499 23.1185 124.545 23.0723 124.624 23.0723H126.143C126.228 23.0723 126.267 23.1185 126.267 23.2041V29.4597C126.307 29.6579 126.399 29.8029 126.55 29.9089C126.714 30.008 126.931 30.0674 127.201 30.0674H127.489C127.522 30.0674 127.555 30.0674 127.582 30.0805C127.611 30.0693 127.642 30.0648 127.674 30.0674H129.271C129.304 30.0674 129.336 30.0674 129.363 30.0805C129.389 30.0674 129.422 30.0674 129.455 30.0674H130.289C130.533 30.0674 130.684 30.0011 130.749 29.8823C130.815 29.7636 130.848 29.5388 130.848 29.2153V27.3395C130.848 27.2535 130.887 27.2203 130.973 27.2203H132.485C132.57 27.2203 132.61 27.2535 132.61 27.3395V29.3869C132.61 29.6579 132.695 29.8361 132.866 29.9286C133.024 30.0146 133.214 30.0674 133.411 30.0674C133.569 30.0674 133.694 30.0478 133.786 30.0146C133.885 29.9814 133.957 29.9286 133.99 29.8627C134.036 29.7963 134.062 29.7103 134.069 29.5916C134.088 29.486 134.095 29.3475 134.095 29.1756V27.3395C134.095 27.2535 134.134 27.2203 134.213 27.2203H135.738C135.817 27.2203 135.863 27.2535 135.863 27.3395V29.3738C135.863 29.6579 135.948 29.8496 136.112 29.9352C136.283 30.0211 136.481 30.0674 136.691 30.0674C136.849 30.0674 136.974 30.0478 137.052 30.0146C137.132 29.9847 137.199 29.9289 137.243 29.8561C137.276 29.7898 137.309 29.6977 137.315 29.585C137.322 29.4663 137.329 29.3275 137.329 29.1625V26.4411C137.329 26.3551 137.368 26.3088 137.453 26.3088H138.971C139.05 26.3088 139.096 26.3551 139.096 26.4411Z" fill="#717142"/>
<path d="M115.791 29.8691C115.62 30.0607 115.37 30.1533 115.022 30.1533C114.68 30.1533 114.424 30.0607 114.246 29.8691C114.076 29.6775 113.99 29.354 113.99 28.8782C113.99 28.033 114.332 27.61 115.022 27.61C115.705 27.61 116.041 28.033 116.041 28.8782C116.041 29.354 115.955 29.6775 115.791 29.8691ZM101.772 28.4752C101.772 28.8585 101.673 29.1423 101.49 29.3208C101.306 29.4993 101.049 29.5915 100.74 29.5915C100.458 29.5915 100.214 29.519 100.024 29.3802C99.8335 29.2483 99.7415 29.0104 99.7415 28.6669C99.7415 28.2639 99.8335 27.9933 100.024 27.8413C100.214 27.6894 100.464 27.61 100.78 27.61H101.772V28.4752ZM117.559 27.5703C117.408 27.2071 117.204 26.9163 116.954 26.6985C116.695 26.4857 116.395 26.3284 116.074 26.2362C115.738 26.1502 115.39 26.0974 115.029 26.0974C114.674 26.0974 114.332 26.1436 114.003 26.2231C113.668 26.3087 113.379 26.4475 113.123 26.6522C112.858 26.8649 112.648 27.1393 112.512 27.4515C112.36 27.7881 112.288 28.198 112.288 28.6865V28.9441C112.262 29.3736 112.176 29.6644 112.025 29.8294C111.861 29.9878 111.696 30.0673 111.513 30.0673H111.151C111.118 30.0673 111.085 30.0673 111.052 30.0804C111.026 30.0673 110.993 30.0673 110.96 30.0673H110.671C110.382 30.0673 110.152 30.0014 109.994 29.8822C109.836 29.7635 109.744 29.598 109.725 29.3867V26.4409C109.725 26.3549 109.692 26.3087 109.6 26.3087H108.115C108.022 26.3087 107.989 26.3549 107.989 26.4409V29.0366C107.989 29.4199 107.95 29.6775 107.884 29.8359C107.819 29.9878 107.655 30.0673 107.391 30.0673H106.623C106.583 30.0673 106.55 30.0673 106.517 30.0804C106.511 30.0738 106.504 30.0804 106.498 30.0804C106.471 30.0673 106.438 30.0673 106.406 30.0673H104.796C104.743 30.0673 104.697 30.0738 104.658 30.0869C104.613 30.074 104.566 30.0674 104.519 30.0673H104.125C103.921 30.0673 103.77 30.0145 103.678 29.9219C103.579 29.8294 103.533 29.6513 103.533 29.4002V25.5691C103.533 25.4766 103.494 25.4434 103.409 25.4434H101.897C101.805 25.4434 101.772 25.4766 101.772 25.5691V26.0974H100.517C100.206 26.0997 99.8969 26.1419 99.5968 26.2231C99.2987 26.2928 99.0216 26.4332 98.7885 26.6326C98.5518 26.8308 98.3611 27.0949 98.2164 27.4249C98.0718 27.7488 97.9997 28.1648 97.9997 28.6669C97.9997 29.103 98.0653 29.4858 98.1904 29.7897C98.3078 30.0768 98.4873 30.334 98.716 30.5427C98.9438 30.7344 99.2076 30.8782 99.4917 30.9657C99.7947 31.0556 100.109 31.1022 100.425 31.1041C100.688 31.1041 100.944 31.0648 101.181 30.9853C101.41 30.9183 101.625 30.8061 101.812 30.6553C101.897 31.012 102.042 31.2495 102.272 31.3817C102.495 31.514 102.817 31.5799 103.225 31.5799H104.519C104.565 31.5799 104.611 31.5734 104.651 31.5603C104.698 31.5736 104.747 31.5803 104.796 31.5799H106.406C106.452 31.5799 106.498 31.5734 106.537 31.5734C106.563 31.5799 106.59 31.5799 106.623 31.5799H107.897C108.351 31.5799 108.706 31.5336 108.969 31.4607C109.232 31.3883 109.422 31.2167 109.561 30.9522C109.712 31.2167 109.909 31.3883 110.139 31.4607C110.405 31.5417 110.682 31.5819 110.96 31.5799C110.993 31.5799 111.026 31.5799 111.059 31.5664C111.092 31.5799 111.118 31.5799 111.151 31.5799C111.269 31.5799 111.4 31.5734 111.552 31.5664C111.696 31.5603 111.847 31.5271 112.012 31.4874C112.17 31.4345 112.321 31.3686 112.472 31.2826C112.63 31.1901 112.768 31.0713 112.879 30.8998C113.129 31.182 113.452 31.388 113.813 31.4939C114.181 31.6061 114.582 31.6589 115.029 31.6589C115.41 31.6589 115.784 31.6196 116.12 31.5271C116.439 31.4427 116.736 31.2869 116.987 31.0713C117.23 30.86 117.428 30.5759 117.572 30.2258C117.71 29.8756 117.782 29.4461 117.782 28.9441C117.782 28.3892 117.703 27.9335 117.559 27.5703Z" fill="#717142"/>
<path d="M65.9728 29.836C65.8086 30.0076 65.5523 30.1067 65.217 30.1067C64.8752 30.1067 64.6189 30.0076 64.4547 29.8295C64.2836 29.6444 64.1985 29.3143 64.1985 28.832C64.1985 28.0196 64.5399 27.6101 65.217 27.6101C65.8872 27.6101 66.2291 28.0327 66.2291 28.8717C66.2291 29.334 66.137 29.6575 65.9728 29.836ZM67.7472 27.5704C67.596 27.2072 67.3923 26.9164 67.136 26.6986C66.8863 26.4869 66.5905 26.335 66.2556 26.2363C65.9268 26.1503 65.5784 26.0975 65.217 26.0975C64.8687 26.0975 64.5268 26.1503 64.1919 26.2363C63.8684 26.3294 63.5667 26.4866 63.3045 26.6986C63.0483 26.9164 62.838 27.2006 62.6865 27.5704C62.5353 27.927 62.4632 28.3762 62.4632 28.9245C62.4632 29.3999 62.5288 29.7766 62.6604 30.0539H61.7074C61.6536 30.052 61.6 30.061 61.5497 30.0805C61.5167 30.067 61.4841 30.067 61.4446 30.067H59.841C59.808 30.067 59.7685 30.067 59.7424 30.0805C59.7159 30.067 59.6764 30.067 59.6438 30.067H59.315C59.0982 30.067 58.9536 30.0146 58.855 29.922C58.7564 29.8295 58.7169 29.6509 58.7169 29.3999V23.2041C58.7169 23.1181 58.6708 23.0722 58.5922 23.0722H57.0937C57.0146 23.0722 56.9686 23.1181 56.9686 23.2041V30.001C56.9686 30.5428 57.0872 30.9457 57.3039 31.1902C57.5341 31.4477 57.902 31.5796 58.4146 31.5796H59.6438C59.6764 31.5796 59.7029 31.5796 59.7289 31.573H59.7685C59.7949 31.5796 59.8145 31.5796 59.841 31.5796H61.4446C61.4972 31.5796 61.5432 31.573 61.5823 31.5665C61.6219 31.573 61.6614 31.5796 61.7074 31.5796H65.217C65.6049 31.5796 65.9663 31.5337 66.3016 31.4477C66.6228 31.3768 66.9225 31.2297 67.1755 31.0186C67.4188 30.8135 67.616 30.5428 67.7541 30.2058C67.8987 29.8692 67.9643 29.4462 67.9643 28.9442C67.9643 28.3893 67.8918 27.9336 67.7472 27.5704Z" fill="#717142"/>
<path d="M29.6936 23.2041V30.0011C29.6936 30.5428 29.5885 30.9457 29.3583 31.1902C29.135 31.4477 28.7667 31.5796 28.2411 31.5796H26.8937C26.8607 31.5796 26.8346 31.5796 26.8082 31.573H26.7821C26.7621 31.5796 26.7426 31.5796 26.723 31.5796H25.1128C25.0929 31.5796 25.0733 31.5796 25.0534 31.573H25.0008C24.9812 31.5796 24.9617 31.5796 24.9352 31.5796H23.3316C23.292 31.5796 23.2525 31.573 23.2134 31.573C23.1934 31.5796 23.1739 31.5796 23.1539 31.5796C22.8716 31.5796 22.6414 31.5534 22.4376 31.494C22.2405 31.4408 22.0697 31.322 21.9316 31.1505V31.3552C21.9316 32.3064 21.7475 33.0066 21.3861 33.4558C21.0182 33.9116 20.3936 34.136 19.5131 34.136H18.948C18.8624 34.136 18.8164 34.0963 18.8164 34.0107V32.7487C18.8164 32.6696 18.8624 32.6234 18.948 32.6234H19.2173C19.4406 32.6234 19.6182 32.5902 19.7429 32.5243C19.8615 32.4518 19.9601 32.3461 20.0257 32.2073C20.0847 32.0685 20.1177 31.9035 20.1373 31.7053C20.1573 31.5006 20.1638 31.2758 20.1638 31.0182V26.441C20.1638 26.355 20.2033 26.3088 20.2885 26.3088H21.8069C21.8856 26.3088 21.9316 26.355 21.9316 26.441V29.3868C21.9447 29.5981 22.0367 29.7631 22.2009 29.8823C22.359 30.0011 22.5823 30.067 22.8716 30.067H23.1539C23.1869 30.067 23.2134 30.067 23.246 30.0801C23.2731 30.0689 23.3024 30.0644 23.3316 30.067H24.9352C24.9682 30.067 24.9943 30.067 25.0273 30.0801C25.0534 30.067 25.0798 30.067 25.1128 30.067H26.723C26.7556 30.067 26.7886 30.067 26.8151 30.0801C26.8412 30.0739 26.8676 30.067 26.8937 30.067H27.3341C27.5444 30.067 27.6955 30.0142 27.7876 29.9216C27.8862 29.8295 27.9257 29.6509 27.9257 29.3999V23.2041C27.9257 23.1181 27.9718 23.0718 28.0569 23.0718H29.5685C29.6606 23.0718 29.6936 23.1181 29.6936 23.2041Z" fill="#717142"/>
<path d="M17.995 28.7068V29.4463C17.995 29.8496 17.949 30.1928 17.87 30.4704C17.7978 30.7411 17.6862 30.9593 17.5285 31.1178C17.3709 31.2828 17.1802 31.395 16.9435 31.4679C16.7067 31.5469 16.4309 31.5801 16.1156 31.5801H12.4613C12.4414 31.5801 12.4283 31.5801 12.4088 31.5735H12.4018C12.3692 31.5801 12.3297 31.5801 12.2902 31.5801H10.7065C10.6866 31.5801 10.647 31.5801 10.5945 31.5735C10.5749 31.5801 10.5484 31.5801 10.5224 31.5801H8.32712C7.81457 31.5801 7.44666 31.4478 7.2295 31.1903C7.01275 30.9458 6.90112 30.5429 6.90112 30.0015V23.2046C6.90112 23.1186 6.94715 23.0723 7.02579 23.0723H8.49132C8.57688 23.0723 8.60988 23.1186 8.60988 23.2046V29.4004C8.60988 29.6514 8.66244 29.8295 8.75452 29.9221C8.84619 30.0146 8.99734 30.0675 9.19454 30.0675H10.5224C10.5354 30.0675 10.5554 30.0675 10.5684 30.074C10.634 30.0675 10.68 30.0675 10.7065 30.0675H12.2902C12.3102 30.0675 12.3232 30.0675 12.3428 30.074C12.3758 30.0675 12.4218 30.0675 12.4613 30.0675H15.2477C15.4449 30.0675 15.6026 30.0539 15.7277 30.0212C15.8589 30.0015 15.951 29.9553 16.017 29.8889C16.0826 29.8361 16.1286 29.744 16.1482 29.6379C16.1681 29.5323 16.1746 29.3935 16.1746 29.2284V28.6474C16.1746 28.3235 16.0891 28.0794 15.9114 27.9275C15.7342 27.7817 15.4514 27.7027 15.0571 27.7027H13.1906C13.112 27.7027 13.0659 27.663 13.0659 27.577V26.5598C13.0659 26.5005 13.0985 26.4411 13.1645 26.3686C13.2301 26.2957 13.2892 26.2364 13.3418 26.177L15.984 23.0391C16.0235 22.9798 16.0826 22.9732 16.1416 22.9994L17.1737 23.8782C17.2393 23.931 17.2523 23.9904 17.2262 24.0497L15.3529 26.2233C15.7868 26.2429 16.1681 26.2892 16.4965 26.3617C16.8253 26.4411 17.1011 26.5668 17.3183 26.758C17.5416 26.9497 17.7123 27.1941 17.8308 27.5111C17.936 27.8215 17.995 28.2244 17.995 28.7068Z" fill="#717142"/>
<path d="M151.018 23.0722H149.533C149.441 23.0722 149.408 23.1184 149.408 23.2044V31.4477C149.408 31.5337 149.441 31.5799 149.533 31.5799H151.018C151.104 31.5799 151.143 31.5337 151.143 31.4477V23.2044C151.143 23.1184 151.104 23.0722 151.018 23.0722ZM159.746 24.9283H158.202C158.116 24.9283 158.083 24.9676 158.083 25.0536V26.2759C158.083 26.3615 158.116 26.4012 158.202 26.4012H159.746C159.825 26.4012 159.871 26.3615 159.871 26.2759V25.0536C159.871 24.9676 159.825 24.9283 159.746 24.9283ZM161.731 27.3459H160.239C160.16 27.3459 160.115 27.3922 160.115 27.4778V31.2298C160.115 31.7319 160.002 32.1082 159.759 32.3526C159.516 32.5971 159.188 32.7163 158.767 32.7163C158.589 32.7163 158.419 32.6827 158.248 32.6303C158.077 32.584 157.919 32.4849 157.781 32.3592C157.65 32.2404 157.538 32.0754 157.452 31.8772C157.374 31.6725 157.334 31.4346 157.334 31.1438C157.334 30.7675 157.38 30.4371 157.485 30.1533C157.577 29.8626 157.689 29.5981 157.808 29.3671C157.82 29.3355 157.826 29.3019 157.827 29.268C157.821 29.2414 157.794 29.2217 157.755 29.2021L156.408 28.766C156.322 28.7398 156.257 28.7529 156.23 28.8057C156.007 29.1558 155.842 29.5452 155.718 29.9879C155.604 30.4078 155.547 30.841 155.546 31.2761C155.546 31.7978 155.625 32.2535 155.796 32.6303C155.967 33.0131 156.191 33.317 156.48 33.5614C156.779 33.8 157.123 33.9752 157.492 34.0765C157.891 34.1969 158.305 34.2571 158.721 34.2551C159.155 34.2551 159.569 34.1957 159.956 34.0765C160.322 33.9767 160.662 33.8013 160.955 33.5614C161.238 33.317 161.455 33.0131 161.613 32.6499C161.777 32.2736 161.862 31.831 161.862 31.3023V27.4778C161.862 27.3922 161.816 27.3459 161.731 27.3459ZM167.042 30.0673H166.082C165.766 30.0673 165.51 29.9879 165.313 29.836C165.122 29.6775 165.024 29.3737 165.024 28.9114C165.024 28.5084 165.116 28.198 165.287 27.9601C165.464 27.7288 165.714 27.61 166.056 27.61C166.713 27.61 167.042 28.0261 167.042 28.852V30.0673ZM168.56 27.5638C168.422 27.194 168.218 26.9098 167.968 26.6985C167.725 26.4872 167.429 26.3353 167.101 26.2362C166.757 26.1457 166.404 26.0991 166.049 26.0974C165.703 26.0968 165.36 26.1503 165.031 26.2559C164.708 26.355 164.412 26.5134 164.163 26.7448C163.913 26.9626 163.703 27.2599 163.552 27.6297C163.394 27.9933 163.322 28.4421 163.322 28.9773C163.322 29.5387 163.394 29.9944 163.532 30.3314C163.683 30.675 163.9 30.9326 164.176 31.1176C164.452 31.3089 164.787 31.4346 165.175 31.494C165.569 31.5533 166.023 31.5799 166.516 31.5799H167.042C167.042 31.8043 167.009 31.996 166.963 32.1348C166.904 32.2666 166.831 32.3792 166.733 32.4517C166.641 32.5312 166.522 32.5774 166.391 32.5971C166.243 32.6167 166.093 32.6256 165.944 32.6237H164.518C164.432 32.6237 164.393 32.67 164.393 32.749V34.0106C164.393 34.0966 164.432 34.1363 164.518 34.1363H166.325C167.173 34.1363 167.791 33.9512 168.192 33.5614C168.579 33.1781 168.776 32.5971 168.776 31.8109V28.8978C168.776 28.3696 168.704 27.9204 168.56 27.5638ZM174.422 24.3207H173.121C173.022 24.281 172.943 24.2085 172.865 24.109C172.792 24.0234 172.753 23.8977 172.753 23.7527C172.753 23.5938 172.799 23.4685 172.898 23.376C172.996 23.2835 173.127 23.2437 173.285 23.2437C173.423 23.2437 173.535 23.2638 173.633 23.3166C173.732 23.3629 173.818 23.4288 173.91 23.5148C173.956 23.5611 173.988 23.5676 174.021 23.541L174.422 23.1184C174.462 23.0722 174.462 23.0324 174.435 22.9862C174.33 22.8474 174.179 22.7286 173.969 22.6295C173.759 22.5239 173.515 22.4776 173.253 22.4776C173.003 22.4776 172.792 22.5108 172.608 22.5832C172.437 22.6561 172.293 22.7417 172.174 22.8609C172.067 22.9761 171.982 23.1105 171.925 23.2572C171.873 23.3988 171.846 23.5486 171.846 23.6995C171.846 23.8317 171.859 23.9509 171.899 24.0496C171.924 24.1466 171.966 24.2384 172.023 24.3207H171.583C171.53 24.3207 171.511 24.3534 171.511 24.4132V25.0008C171.511 25.0602 171.53 25.0934 171.583 25.0934H174.422C174.468 25.0934 174.494 25.0602 174.494 25.0008V24.4132C174.494 24.3534 174.468 24.3207 174.422 24.3207ZM205.089 23.0722H203.846C203.768 23.0722 203.722 23.1184 203.722 23.2044V24.4263C203.722 24.5119 203.768 24.5516 203.846 24.5516H205.089C205.181 24.5516 205.213 24.5119 205.213 24.4263V23.2044C205.213 23.1184 205.181 23.0722 205.089 23.0722ZM207.021 23.0722H205.765C205.68 23.0722 205.634 23.1184 205.634 23.2044V24.4263C205.634 24.5119 205.68 24.5516 205.765 24.5516H207.021C207.106 24.5516 207.139 24.5119 207.139 24.4263V23.2044C207.139 23.1184 207.106 23.0722 207.021 23.0722ZM240.967 23.0722H239.482C239.389 23.0722 239.357 23.1184 239.357 23.2044V31.4477C239.357 31.5337 239.389 31.5799 239.482 31.5799H240.967C241.052 31.5799 241.092 31.5337 241.092 31.4477V23.2044C241.092 23.1184 241.052 23.0722 240.967 23.0722ZM247.907 23.0722H246.665C246.573 23.0722 246.534 23.1184 246.534 23.2044V24.4263C246.534 24.5119 246.573 24.5516 246.665 24.5516H247.907C247.986 24.5516 248.032 24.5119 248.032 24.4263V23.2044C248.032 23.1184 247.986 23.0722 247.907 23.0722ZM249.833 23.0722H248.578C248.492 23.0722 248.453 23.1184 248.453 23.2044V24.4263C248.453 24.5119 248.492 24.5516 248.578 24.5516H249.833C249.912 24.5516 249.958 24.5119 249.958 24.4263V23.2044C249.958 23.1184 249.912 23.0722 249.833 23.0722ZM257.358 24.3207H256.051C255.95 24.2738 255.864 24.2007 255.801 24.109C255.728 24.0234 255.689 23.8977 255.689 23.7527C255.689 23.5938 255.735 23.4685 255.833 23.376C255.925 23.2835 256.057 23.2437 256.228 23.2437C256.353 23.2437 256.471 23.2638 256.57 23.3166C256.662 23.3629 256.754 23.4288 256.846 23.5148C256.885 23.5611 256.924 23.5676 256.957 23.541L257.358 23.1184C257.398 23.0722 257.404 23.0324 257.365 22.9862C257.273 22.8474 257.115 22.7286 256.898 22.6295C256.688 22.5239 256.451 22.4776 256.188 22.4776C255.938 22.4776 255.722 22.5108 255.551 22.5832C255.367 22.6561 255.222 22.7417 255.111 22.8609C255.001 22.9729 254.918 23.1084 254.867 23.2572C254.81 23.3975 254.781 23.5478 254.782 23.6995C254.782 23.8317 254.802 23.9509 254.828 24.0496C254.862 24.1434 254.904 24.2341 254.953 24.3207H254.525C254.473 24.3207 254.44 24.3534 254.44 24.4132V25.0008C254.44 25.0602 254.473 25.0934 254.525 25.0934H257.358C257.404 25.0934 257.43 25.0602 257.43 25.0008V24.4132C257.43 24.3534 257.404 24.3207 257.358 24.3207ZM263.635 32.663H262.393C262.3 32.663 262.261 32.7027 262.261 32.7887V34.0106C262.261 34.0966 262.3 34.1363 262.393 34.1363H263.635C263.714 34.1363 263.759 34.0966 263.759 34.0106V32.7887C263.759 32.7027 263.714 32.663 263.635 32.663ZM265.56 32.663H264.305C264.226 32.663 264.18 32.7027 264.18 32.7887V34.0106C264.18 34.0966 264.226 34.1363 264.305 34.1363H265.56C265.639 34.1363 265.685 34.0966 265.685 34.0106V32.7887C265.685 32.7027 265.639 32.663 265.56 32.663Z" fill="#717142"/>
<path d="M274.447 29.7173C274.302 29.9684 274.065 30.0871 273.744 30.0871H272.705V28.7661C272.705 28.3697 272.791 28.0794 272.961 27.8939C273.139 27.7092 273.369 27.6102 273.658 27.6102C273.974 27.6102 274.23 27.7092 274.407 27.9074C274.578 28.0925 274.67 28.3894 274.67 28.7858C274.67 29.1559 274.591 29.4598 274.447 29.7173ZM274.368 32.6701C274.23 32.7889 274 32.8351 273.678 32.8351C273.343 32.8351 273.099 32.7823 272.942 32.6631C272.784 32.5444 272.705 32.3528 272.705 32.0952V31.481H273.559C273.974 31.481 274.25 31.5469 274.375 31.6661C274.506 31.7979 274.572 31.9764 274.572 32.1877C274.572 32.399 274.506 32.5575 274.368 32.6701ZM249.189 28.4754C249.189 28.8587 249.091 29.1424 248.914 29.321C248.723 29.4995 248.473 29.5916 248.164 29.5916C247.868 29.5916 247.632 29.5192 247.441 29.3803C247.25 29.2485 247.159 29.0106 247.159 28.667C247.159 28.2641 247.25 27.9934 247.441 27.8415C247.632 27.6896 247.888 27.6102 248.197 27.6102H249.189V28.4754ZM286.113 23.0723H284.594C284.516 23.0723 284.47 23.1186 284.47 23.2045V29.4004C284.47 29.6514 284.43 29.8295 284.325 29.9221C284.233 30.0146 284.088 30.0674 283.878 30.0674H283.438C283.411 30.0686 283.385 30.073 283.359 30.0805C283.326 30.0674 283.293 30.0674 283.26 30.0674H279.14C279.107 30.0674 279.074 30.0674 279.047 30.0805C279.021 30.0674 278.988 30.0674 278.955 30.0674H277.352C277.319 30.0674 277.293 30.0674 277.266 30.074C277.24 30.0674 277.214 30.0674 277.181 30.0674H276.024C276.123 29.9221 276.202 29.7104 276.274 29.4266C276.353 29.1494 276.392 28.8521 276.392 28.5614C276.392 28.1122 276.307 27.7223 276.162 27.3989C276.011 27.0885 275.814 26.8309 275.57 26.6393C275.31 26.4421 275.013 26.3005 274.697 26.2232C274.361 26.1438 274.013 26.0975 273.638 26.0975C273.312 26.0992 272.987 26.1437 272.672 26.2298C272.359 26.3173 272.068 26.4704 271.818 26.679C271.561 26.8903 271.358 27.1675 271.2 27.5242C271.042 27.8812 270.964 28.33 270.964 28.8587V30.0674H269.912C269.879 30.0674 269.846 30.0674 269.82 30.0805C269.794 30.0674 269.761 30.0674 269.728 30.0674H268.124C268.091 30.0674 268.059 30.0674 268.032 30.0805C267.999 30.0674 267.973 30.0674 267.94 30.0674H266.343C266.31 30.0674 266.277 30.0674 266.244 30.0805H266.238C266.231 30.074 266.225 30.0805 266.218 30.0805C266.192 30.0674 266.172 30.0674 266.146 30.0674H265.863C265.568 30.0674 265.344 30.0015 265.18 29.8824C265.016 29.7636 264.93 29.5982 264.917 29.3869V26.4411C264.917 26.3551 264.871 26.3088 264.792 26.3088H263.293C263.215 26.3088 263.169 26.3551 263.169 26.4411V29.0368C263.169 29.4201 263.142 29.6776 263.077 29.8361C263.005 29.988 262.84 30.0674 262.571 30.0674H261.802C261.769 30.0674 261.729 30.0674 261.703 30.0805C261.697 30.074 261.69 30.0805 261.683 30.0805C261.651 30.0674 261.618 30.0674 261.585 30.0674H259.987C259.955 30.0674 259.922 30.0674 259.896 30.0805C259.863 30.0674 259.837 30.0674 259.804 30.0674H258.194C258.167 30.0674 258.148 30.0674 258.128 30.074C258.108 30.0674 258.088 30.0674 258.062 30.0674H257.779C257.49 30.0674 257.267 30.0015 257.102 29.8824C256.938 29.7636 256.853 29.5982 256.833 29.3869V26.4411C256.833 26.3551 256.794 26.3088 256.715 26.3088H255.564C255.479 26.3088 255.367 26.3154 255.249 26.3289C255.124 26.3354 255.071 26.3682 255.071 26.4411V29.0634C255.071 29.4397 255.032 29.7042 254.96 29.8496C254.894 29.9946 254.73 30.0674 254.473 30.0674H254.059C254.021 30.0671 253.983 30.0737 253.948 30.0871C253.908 30.074 253.862 30.0674 253.816 30.0674H252.212C252.16 30.0674 252.114 30.074 252.075 30.0871C252.03 30.0742 251.983 30.0675 251.937 30.0674H251.549C251.339 30.0674 251.187 30.0146 251.089 29.9221C250.997 29.8295 250.951 29.6514 250.951 29.4004V25.5693C250.951 25.4768 250.911 25.4436 250.833 25.4436H249.308C249.222 25.4436 249.189 25.4768 249.189 25.5693V26.0975H247.941C247.628 26.0994 247.316 26.1416 247.014 26.2232C246.717 26.2943 246.44 26.4344 246.206 26.6323C245.976 26.8309 245.778 27.095 245.634 27.4251C245.496 27.749 245.417 28.165 245.417 28.667C245.417 29.1031 245.476 29.486 245.608 29.7898C245.739 30.0937 245.916 30.3447 246.14 30.5429C246.367 30.7358 246.631 30.8798 246.915 30.9658C247.216 31.0557 247.528 31.1023 247.842 31.1042C248.112 31.1042 248.355 31.0649 248.598 30.9855C248.834 30.9126 249.058 30.8004 249.235 30.655C249.308 31.0121 249.466 31.2496 249.689 31.3819C249.913 31.5141 250.234 31.5801 250.642 31.5801H251.937C251.983 31.5801 252.029 31.5735 252.068 31.5666C252.107 31.5735 252.16 31.5801 252.212 31.5801H253.816C253.856 31.5801 253.889 31.5801 253.921 31.5735H253.941C253.967 31.5801 254.007 31.5801 254.04 31.5801H255.032C255.479 31.5801 255.828 31.5338 256.07 31.4544C256.327 31.3753 256.517 31.2099 256.662 30.9523C256.813 31.2169 257.01 31.3884 257.241 31.4609C257.507 31.5414 257.784 31.5815 258.062 31.5801C258.075 31.5801 258.095 31.5801 258.108 31.5735C258.134 31.5801 258.161 31.5801 258.194 31.5801H259.804C259.83 31.5801 259.85 31.5801 259.869 31.5735H259.922C259.942 31.5801 259.961 31.5801 259.987 31.5801H261.585C261.631 31.5801 261.67 31.5735 261.71 31.5735H261.716C261.743 31.5801 261.769 31.5801 261.802 31.5801H263.083C263.544 31.5801 263.891 31.5338 264.155 31.4609C264.411 31.3884 264.608 31.2169 264.739 30.9523C264.891 31.2169 265.088 31.3884 265.324 31.4609C265.591 31.5423 265.868 31.5825 266.146 31.5801C266.172 31.5801 266.198 31.5801 266.218 31.5735H266.225C266.258 31.5735 266.297 31.5801 266.343 31.5801H267.94C267.967 31.5801 267.986 31.5801 268.006 31.5735H268.059C268.078 31.5801 268.098 31.5801 268.124 31.5801H269.728C269.774 31.5801 269.813 31.5735 269.853 31.5735C269.873 31.5801 269.892 31.5801 269.912 31.5801H270.964V32.313C270.964 32.6898 271.029 33.0067 271.167 33.2643C271.305 33.5117 271.504 33.7189 271.746 33.8654C271.982 34.0243 272.272 34.1295 272.6 34.1958C272.951 34.2607 273.307 34.2938 273.665 34.2949C274.033 34.2949 274.381 34.2552 274.697 34.1893C274.988 34.1275 275.268 34.0181 275.525 33.8654C275.751 33.7252 275.94 33.5327 276.077 33.304C276.208 33.0726 276.274 32.7889 276.274 32.465C276.274 32.2934 276.254 32.1349 276.208 31.983C276.162 31.8311 276.096 31.6923 276.011 31.5801H277.181C277.199 31.5815 277.217 31.5793 277.234 31.5735H277.24C277.273 31.5801 277.312 31.5801 277.352 31.5801H278.955C278.981 31.5801 279.001 31.5801 279.021 31.5735H279.08C279.1 31.5801 279.12 31.5801 279.14 31.5801H283.26C283.28 31.5801 283.3 31.5801 283.319 31.5735C283.339 31.5735 283.359 31.5801 283.378 31.5735C283.398 31.5801 283.418 31.5801 283.438 31.5801H284.785C285.311 31.5801 285.679 31.4478 285.903 31.1902C286.132 30.9458 286.237 30.5429 286.237 30.0015V23.2045C286.237 23.1186 286.191 23.0723 286.113 23.0723Z" fill="#717142"/>
<path d="M230.149 29.1558C229.956 29.3989 229.723 29.6067 229.459 29.77C229.367 29.4002 229.209 29.0501 228.986 28.7066C228.765 28.3654 228.479 28.0714 228.145 27.8413C228.217 27.7951 228.362 27.7488 228.579 27.6894C228.823 27.6362 229.071 27.6096 229.321 27.61C229.669 27.61 229.939 27.6763 230.136 27.8016C230.333 27.9273 230.425 28.1251 230.425 28.3896C230.425 28.6603 230.34 28.9113 230.149 29.1558ZM237.556 23.0721H236.038C235.953 23.0721 235.913 23.1184 235.913 23.2044V29.4002C235.913 29.6512 235.867 29.8294 235.769 29.9219C235.677 30.0144 235.525 30.0673 235.322 30.0673H234.881C234.855 30.0684 234.828 30.0728 234.803 30.0804C234.77 30.0673 234.737 30.0673 234.704 30.0673H233.094C233.061 30.0673 233.028 30.0673 233.002 30.0804C232.975 30.0673 232.943 30.0673 232.91 30.0673H231.319C231.227 30.0673 231.129 30.0607 231.037 30.0542C231.187 29.9452 231.33 29.8261 231.464 29.6975C231.608 29.5587 231.74 29.4002 231.858 29.2352C231.976 29.0567 232.068 28.8785 232.141 28.6804C232.21 28.4715 232.245 28.253 232.246 28.033C232.246 27.7684 232.187 27.5109 232.075 27.2668C231.97 27.0355 231.786 26.8307 231.543 26.6522C231.306 26.4806 230.997 26.3418 230.636 26.2427C230.267 26.1502 229.827 26.0974 229.321 26.0974C228.971 26.1008 228.622 26.1273 228.276 26.1768C227.958 26.229 227.644 26.304 227.336 26.4012C227.06 26.4872 226.837 26.5797 226.659 26.6854C226.482 26.7845 226.396 26.8967 226.396 27.0023V27.8147C226.396 27.9404 226.41 28.033 226.436 28.112C226.462 28.1849 226.508 28.2377 226.574 28.2905C226.88 28.5062 227.162 28.7543 227.415 29.0305C227.67 29.3016 227.861 29.6264 227.974 29.9813C227.829 30.0144 227.678 30.0476 227.507 30.0542C227.349 30.0607 227.198 30.0673 227.06 30.0673H225.752C225.72 30.0673 225.68 30.0673 225.654 30.0738C225.628 30.0673 225.601 30.0673 225.569 30.0673H223.971C223.938 30.0673 223.905 30.0673 223.879 30.0804C223.846 30.0673 223.82 30.0673 223.787 30.0673H222.177C222.144 30.0673 222.112 30.0673 222.085 30.0804C222.052 30.0673 222.026 30.0673 221.993 30.0673H221.658C221.447 30.0673 221.29 30.0144 221.198 29.9219C221.106 29.8294 221.06 29.6512 221.06 29.4002V23.2044C221.06 23.1184 221.014 23.0721 220.928 23.0721H219.436C219.358 23.0721 219.318 23.1184 219.318 23.2044V30.0013C219.318 30.5431 219.423 30.9456 219.647 31.1905C219.87 31.4476 220.238 31.5799 220.764 31.5799H221.993C222.019 31.5799 222.046 31.5799 222.066 31.5733H222.112C222.131 31.5799 222.151 31.5799 222.177 31.5799H223.787C223.814 31.5799 223.833 31.5799 223.853 31.5733H223.912C223.932 31.5799 223.952 31.5799 223.971 31.5799H225.569C225.595 31.5799 225.614 31.5799 225.634 31.5733H225.693C225.713 31.5799 225.733 31.5799 225.752 31.5799H227.632C227.875 31.5799 228.145 31.5533 228.447 31.4939C228.762 31.4411 229.052 31.3424 229.321 31.1835C229.552 31.3373 229.811 31.4428 230.084 31.4939C230.367 31.5539 230.655 31.5827 230.945 31.5799H232.91C232.936 31.5799 232.956 31.5799 232.975 31.5733H232.982C233.015 31.5733 233.054 31.5799 233.094 31.5799H234.704C234.724 31.5799 234.744 31.5799 234.763 31.5733C234.783 31.5733 234.803 31.5799 234.822 31.5733C234.842 31.5799 234.862 31.5799 234.881 31.5799H236.222C236.748 31.5799 237.123 31.4476 237.339 31.1905C237.569 30.9456 237.681 30.5431 237.681 30.0013V23.2044C237.681 23.1184 237.642 23.0721 237.556 23.0721Z" fill="#717142"/>
<path d="M215.822 29.8691C215.657 30.0607 215.401 30.1533 215.053 30.1533C214.711 30.1533 214.455 30.0607 214.284 29.8691C214.106 29.6775 214.021 29.354 214.021 28.8782C214.021 28.033 214.369 27.61 215.053 27.61C215.736 27.61 216.071 28.033 216.071 28.8782C216.071 29.354 215.992 29.6775 215.822 29.8691ZM206.37 28.4752C206.37 28.8585 206.279 29.1423 206.095 29.3208C205.904 29.4993 205.661 29.5915 205.345 29.5915C205.063 29.5915 204.819 29.519 204.636 29.3802C204.445 29.2483 204.353 29.0104 204.353 28.6669C204.353 28.2639 204.445 27.9933 204.636 27.8413C204.819 27.6894 205.069 27.61 205.385 27.61H206.37V28.4752ZM217.589 27.5703C217.445 27.2071 217.241 26.9163 216.985 26.6985C216.729 26.4845 216.431 26.327 216.111 26.2362C215.768 26.1457 215.414 26.0991 215.059 26.0974C214.704 26.0974 214.363 26.1436 214.034 26.2231C213.712 26.3087 213.41 26.4475 213.166 26.6522C212.91 26.8504 212.706 27.1145 212.555 27.4515C212.391 27.7881 212.319 28.198 212.319 28.6865V28.9441C212.306 29.3736 212.22 29.6644 212.056 29.8294C211.898 29.9878 211.733 30.0673 211.55 30.0673H211.188C211.155 30.0673 211.122 30.0673 211.096 30.0804C211.063 30.0673 211.037 30.0673 211.004 30.0673H209.407C209.358 30.0669 209.309 30.0736 209.262 30.0869C209.215 30.0736 209.167 30.0669 209.118 30.0673H208.737C208.533 30.0673 208.382 30.0145 208.283 29.9219C208.191 29.8294 208.139 29.6513 208.139 29.4002V25.5691C208.139 25.4766 208.093 25.4434 208.014 25.4434H206.496C206.417 25.4434 206.37 25.4766 206.37 25.5691V26.0974H205.129C204.816 26.0992 204.504 26.1414 204.202 26.2231C203.906 26.293 203.631 26.4334 203.4 26.6326C203.157 26.8308 202.966 27.0949 202.822 27.4249C202.677 27.7488 202.605 28.1648 202.605 28.6669C202.605 29.103 202.671 29.4858 202.802 29.7897C202.927 30.0935 203.098 30.3445 203.328 30.5427C203.555 30.7344 203.819 30.8783 204.103 30.9657C204.406 31.0561 204.72 31.1027 205.037 31.1041C205.293 31.1041 205.549 31.0648 205.792 30.9853C206.021 30.9155 206.235 30.8036 206.423 30.6553C206.496 31.012 206.647 31.2495 206.883 31.3817C207.107 31.514 207.429 31.5799 207.823 31.5799H209.118C209.17 31.5799 209.216 31.5734 209.256 31.5603C209.302 31.5734 209.348 31.5799 209.407 31.5799H211.004C211.05 31.5799 211.09 31.5734 211.122 31.5734C211.142 31.5799 211.162 31.5799 211.188 31.5799C211.3 31.5799 211.438 31.5734 211.582 31.5664C211.738 31.557 211.893 31.5305 212.043 31.4874C212.2 31.4345 212.358 31.3686 212.509 31.2826C212.667 31.1901 212.799 31.0713 212.917 30.8998C213.166 31.182 213.49 31.388 213.85 31.4939C214.218 31.6061 214.625 31.6589 215.059 31.6589C215.454 31.6589 215.815 31.6196 216.15 31.5271C216.471 31.4413 216.77 31.2857 217.024 31.0713C217.274 30.86 217.458 30.5759 217.609 30.2258C217.748 29.8756 217.82 29.4461 217.82 28.9441C217.82 28.3892 217.748 27.9335 217.589 27.5703Z" fill="#717142"/>
<path d="M173.923 30.067H172.964C172.655 30.067 172.399 29.9879 172.201 29.836C172.004 29.6772 171.912 29.3737 171.912 28.911C171.912 28.5081 171.998 28.1977 172.175 27.9598C172.353 27.7284 172.609 27.6097 172.944 27.6097C173.601 27.6097 173.923 28.0261 173.923 28.8516V30.067ZM198.169 23.0718H196.657C196.571 23.0718 196.532 23.1181 196.532 23.2041V29.3999C196.532 29.6509 196.479 29.8291 196.387 29.9216C196.295 30.0142 196.137 30.067 195.927 30.067H195.5C195.474 30.067 195.447 30.0739 195.421 30.0801C195.388 30.067 195.362 30.067 195.329 30.067H195.04C194.744 30.067 194.521 30.0076 194.357 29.8884C194.199 29.7762 194.113 29.6047 194.1 29.3868V23.2041C194.1 23.1181 194.054 23.0718 193.975 23.0718H192.457C192.372 23.0718 192.332 23.1181 192.332 23.2041V28.9241C192.332 29.1092 192.332 29.2677 192.326 29.4196C192.312 29.5382 192.288 29.6553 192.253 29.7697C192.217 29.8602 192.152 29.9367 192.069 29.9879C191.991 30.0404 191.879 30.067 191.734 30.067H191.3C191.274 30.067 191.248 30.0739 191.221 30.0801C191.189 30.067 191.156 30.067 191.116 30.067H189.519C189.493 30.067 189.467 30.067 189.441 30.0739C189.417 30.0679 189.392 30.0655 189.368 30.067H189.086C188.796 30.067 188.573 30.0011 188.409 29.8823C188.244 29.7631 188.159 29.5981 188.139 29.3868V26.4406C188.139 26.3546 188.1 26.3084 188.021 26.3084H186.496C186.417 26.3084 186.378 26.3546 186.378 26.4406V29.162C186.378 29.3275 186.364 29.4659 186.358 29.5846C186.351 29.6972 186.332 29.7898 186.286 29.8557C186.246 29.9295 186.18 29.9859 186.102 30.0142C186.016 30.0473 185.898 30.067 185.74 30.067C185.523 30.067 185.326 30.0207 185.162 29.9347C184.991 29.8491 184.905 29.6575 184.905 29.3737V27.339C184.905 27.2534 184.859 27.2203 184.781 27.2203H183.262C183.184 27.2203 183.138 27.2534 183.138 27.339V29.1755C183.138 29.3471 183.131 29.4859 183.125 29.5916C183.111 29.7103 183.079 29.7963 183.039 29.8622C182.999 29.9282 182.927 29.981 182.835 30.0142C182.737 30.0473 182.619 30.067 182.454 30.067C182.257 30.067 182.079 30.0142 181.908 29.9282C181.744 29.836 181.666 29.6575 181.666 29.3868V27.339C181.666 27.2534 181.62 27.2203 181.54 27.2203H180.022C179.93 27.2203 179.897 27.2534 179.897 27.339V29.2148C179.897 29.5387 179.858 29.7631 179.792 29.8823C179.727 30.0011 179.575 30.067 179.339 30.067H178.497C178.465 30.067 178.425 30.067 178.399 30.0801C178.392 30.0739 178.386 30.0801 178.379 30.0801C178.346 30.067 178.314 30.067 178.281 30.067H176.683C176.65 30.067 176.618 30.067 176.591 30.0739C176.565 30.067 176.539 30.067 176.506 30.067H175.665V28.8979C175.665 28.3697 175.592 27.9201 175.448 27.5634C175.304 27.1937 175.106 26.9099 174.857 26.6982C174.6 26.4854 174.302 26.328 173.982 26.2359C173.641 26.1459 173.29 26.0994 172.937 26.0975C172.592 26.0968 172.248 26.1501 171.919 26.2555C171.595 26.3506 171.296 26.5177 171.045 26.7445C170.795 26.9623 170.591 27.2596 170.433 27.6297C170.282 27.993 170.203 28.4422 170.203 28.9773C170.203 29.9282 170.42 30.6022 170.86 30.985C171.294 31.3814 171.919 31.5796 172.733 31.5796H173.923C173.923 31.7909 173.897 31.9694 173.844 32.1082C173.812 32.2347 173.738 32.3465 173.634 32.4252C173.549 32.4981 173.43 32.5509 173.292 32.5836C173.138 32.6121 172.982 32.6254 172.826 32.6234H171.406C171.314 32.6234 171.274 32.6696 171.274 32.7487V34.0107C171.274 34.0963 171.314 34.136 171.406 34.136H173.213C174.055 34.136 174.672 33.9509 175.067 33.5611C175.468 33.1782 175.665 32.5967 175.665 31.811V31.5796H176.506C176.539 31.5796 176.572 31.5796 176.598 31.573C176.624 31.5796 176.65 31.5796 176.683 31.5796H178.281C178.314 31.5796 178.346 31.5796 178.379 31.573H178.405C178.438 31.5796 178.465 31.5796 178.497 31.5796H179.989C180.417 31.5796 180.745 31.5333 180.982 31.4477C181.205 31.3618 181.383 31.1767 181.494 30.9126C181.606 31.1131 181.77 31.2797 181.968 31.3949C182.178 31.5137 182.441 31.5796 182.77 31.5796H183.256C183.657 31.5796 183.985 31.5268 184.215 31.4408C184.458 31.3487 184.63 31.1701 184.748 30.9126C184.855 31.1141 185.017 31.2813 185.214 31.3949C185.418 31.5137 185.674 31.5796 186.003 31.5796H186.687C186.976 31.5796 187.232 31.5333 187.456 31.4477C187.679 31.3618 187.85 31.1902 187.968 30.9523C188.119 31.2164 188.316 31.388 188.547 31.4608C188.813 31.541 189.09 31.581 189.368 31.5796C189.381 31.5796 189.395 31.5796 189.401 31.573H189.421C189.454 31.5796 189.487 31.5796 189.519 31.5796H191.116C191.143 31.5796 191.162 31.5796 191.182 31.573C191.202 31.573 191.221 31.5796 191.241 31.573C191.261 31.5796 191.28 31.5796 191.3 31.5796H192.418C192.825 31.5796 193.147 31.5333 193.384 31.4477C193.62 31.3618 193.798 31.1902 193.923 30.9523C194.08 31.2164 194.278 31.388 194.514 31.4608C194.778 31.5425 195.053 31.5825 195.329 31.5796C195.349 31.5796 195.362 31.5796 195.382 31.573H195.388C195.428 31.5796 195.461 31.5796 195.5 31.5796H196.841C197.36 31.5796 197.735 31.4477 197.958 31.1902C198.182 30.9457 198.293 30.5428 198.293 30.0011V23.2041C198.293 23.1181 198.254 23.0718 198.169 23.0718Z" fill="#717142"/>
<path d="M289.523 23.0723H288.031C287.953 23.0723 287.913 23.1186 287.913 23.2046V31.4478C287.913 31.5338 287.953 31.5801 288.031 31.5801H289.523C289.609 31.5801 289.655 31.5338 289.655 31.4478V23.2046C289.655 23.1186 289.609 23.0723 289.523 23.0723Z" fill="#717142"/>
<path d="M286.921 44.5537V39.3066H284.973V38.6121H289.648V39.3066H287.7V44.5537H286.921ZM281.221 42.1127H283.228L282.617 40.4683C282.462 40.0584 282.318 39.6441 282.188 39.2259C282.106 39.6149 281.999 39.9981 281.868 40.3733L281.221 42.1127ZM279.519 44.5537L281.78 38.6121H282.646L285.045 44.5537H284.158L283.475 42.7487H280.988L280.348 44.5537H279.519ZM274.269 44.5537V38.6121H275.054V41.5575L277.985 38.6121H279.046L276.567 41.0239L279.155 44.5537H278.123L276.021 41.5575L275.054 42.4927V44.5537H274.269ZM269.492 42.1127H271.506L270.888 40.4683C270.706 39.9642 270.561 39.5547 270.466 39.2259C270.385 39.6159 270.275 39.9994 270.139 40.3733L269.492 42.1127ZM267.79 44.5537L270.059 38.6121H270.917L273.324 44.5537H272.429L271.746 42.7487H269.259L268.619 44.5537H267.79ZM262.569 44.5537V43.8227L265.594 40.0228C265.79 39.7752 265.996 39.5363 266.212 39.3066H262.918V38.6121H267.143V39.3066L263.82 43.428L263.471 43.8522H267.237V44.5537H262.569ZM257.352 43.2749L256.029 41.6156C255.636 41.8495 255.367 42.0689 255.236 42.2663C255.098 42.471 255.025 42.668 255.025 42.8654C255.025 43.0992 255.12 43.3477 255.316 43.611C255.505 43.8666 255.775 43.9984 256.123 43.9984C256.342 43.9984 256.567 43.9325 256.792 43.7937C257.018 43.6686 257.21 43.4906 257.352 43.2749ZM256.327 40.7606C256.647 40.578 256.851 40.4101 256.945 40.2709C257.032 40.1321 257.083 39.9716 257.083 39.8033C257.083 39.5989 257.018 39.4306 256.887 39.3066C256.763 39.1747 256.603 39.1092 256.407 39.1092C256.317 39.107 256.228 39.1227 256.144 39.1553C256.061 39.1879 255.984 39.2368 255.92 39.2992C255.857 39.3594 255.807 39.432 255.773 39.5125C255.739 39.5929 255.723 39.6795 255.724 39.7668C255.724 39.8618 255.745 39.9568 255.796 40.0592C255.84 40.1616 255.913 40.2709 256.007 40.3806L256.327 40.7606ZM257.818 43.8449C257.578 44.1077 257.316 44.3125 257.032 44.4439C256.745 44.5765 256.432 44.6439 256.116 44.6413C255.513 44.6413 255.033 44.4366 254.677 44.0275C254.386 43.6913 254.248 43.3187 254.248 42.9092C254.248 42.5439 254.364 42.2151 254.596 41.9227C254.829 41.623 255.185 41.3675 255.651 41.1406C255.382 40.8339 255.2 40.5854 255.113 40.3954C255.025 40.198 254.982 40.0154 254.982 39.8397C254.982 39.4818 255.12 39.1747 255.397 38.9118C255.673 38.6485 256.022 38.5171 256.451 38.5171C256.851 38.5171 257.185 38.6416 257.44 38.8897C257.694 39.1383 257.825 39.438 257.825 39.7816C257.825 40.3516 257.454 40.8339 256.705 41.2356L257.774 42.5804C257.89 42.3466 257.992 42.0689 258.058 41.7545L258.807 41.9154C258.676 42.4342 258.501 42.858 258.283 43.1872C258.542 43.5378 258.854 43.8459 259.207 44.1004L258.72 44.6777C258.421 44.4877 258.123 44.2101 257.818 43.8449ZM246.111 42.6463L246.845 42.5804C246.881 42.8727 246.961 43.1213 247.092 43.3113C247.216 43.5013 247.419 43.6549 247.688 43.7789C247.95 43.896 248.256 43.9546 248.59 43.9546C248.888 43.9546 249.15 43.9104 249.383 43.8227C249.608 43.7277 249.776 43.6037 249.892 43.4501C250.001 43.2966 250.059 43.1213 250.059 42.9387C250.059 42.756 250.001 42.5951 249.899 42.4563C249.79 42.3175 249.616 42.2004 249.361 42.1054C249.208 42.0468 248.859 41.9518 248.314 41.8204C247.769 41.6889 247.391 41.5645 247.172 41.4478C246.889 41.2942 246.685 41.1116 246.547 40.8925C246.407 40.6718 246.334 40.4155 246.336 40.1542C246.336 39.8545 246.423 39.5695 246.59 39.3135C246.758 39.0507 247.005 38.8533 247.332 38.7145C247.659 38.583 248.016 38.5171 248.416 38.5171C248.852 38.5171 249.237 38.583 249.572 38.7292C249.906 38.868 250.168 39.0797 250.343 39.3504C250.524 39.628 250.619 39.9421 250.634 40.2856L249.884 40.3442C249.841 39.9716 249.71 39.6866 249.477 39.4966C249.245 39.3066 248.903 39.2116 248.445 39.2116C247.972 39.2116 247.631 39.2992 247.412 39.4745C247.194 39.6428 247.085 39.8545 247.085 40.103C247.085 40.3151 247.165 40.4904 247.318 40.6292C247.47 40.768 247.863 40.9068 248.495 41.053C249.128 41.1992 249.565 41.3237 249.805 41.433C250.146 41.5866 250.401 41.7913 250.561 42.0325C250.728 42.2806 250.808 42.5587 250.808 42.8727C250.808 43.1942 250.721 43.4866 250.539 43.7642C250.357 44.0496 250.103 44.2613 249.768 44.4148C249.426 44.5758 249.048 44.6487 248.627 44.6487C248.096 44.6487 247.645 44.5684 247.289 44.4148C246.925 44.2613 246.641 44.0275 246.438 43.706C246.234 43.3989 246.125 43.041 246.111 42.6463ZM242.475 44.5537V39.3066H240.526V38.6121H245.202V39.3066H243.253V44.5537H242.475ZM234.643 44.5537V38.6121H235.443L238.548 43.2749V38.6121H239.297V44.5537H238.49L235.393 39.8909V44.5537H234.643ZM228.804 44.5537V38.6121H233.073V39.3066H229.589V41.1333H232.847V41.8277H229.589V43.8522H233.211V44.5537H228.804ZM221.54 44.5537V38.6121H222.711L224.107 42.8142C224.238 43.2089 224.332 43.5013 224.391 43.6987C224.456 43.4792 224.565 43.1651 224.703 42.7413L226.128 38.6121H227.175V44.5537H226.427V39.5842L224.696 44.5537H223.998L222.289 39.4892V44.5537H221.54ZM214.429 44.5537L212.873 38.6121H213.687L214.567 42.5075C214.669 42.9166 214.748 43.3187 214.821 43.7204C214.981 43.0849 215.068 42.7192 215.098 42.6242L216.21 38.6121H217.156L217.999 41.6156C218.196 42.3072 218.351 43.0101 218.464 43.7204C218.537 43.3477 218.639 42.9166 218.762 42.4342L219.686 38.6121H220.471L218.857 44.5537H218.093L216.857 40.0301C216.748 39.6497 216.69 39.4159 216.661 39.3283C216.605 39.5604 216.547 39.7919 216.487 40.0228L215.243 44.5537H214.429ZM207.201 41.6742C207.201 42.3904 207.39 42.953 207.775 43.3625C208.153 43.7716 208.633 43.9763 209.215 43.9763C209.804 43.9763 210.284 43.7716 210.662 43.3551C211.047 42.9387 211.236 42.3539 211.236 41.5939C211.236 41.1116 211.157 40.6878 210.989 40.3295C210.829 39.9716 210.589 39.6866 210.276 39.4892C209.964 39.2918 209.615 39.1968 209.222 39.1968C208.67 39.1968 208.197 39.3868 207.797 39.7668C207.397 40.1468 207.201 40.7828 207.201 41.6742ZM206.394 41.6595C206.394 40.6804 206.655 39.9056 207.179 39.3504C207.71 38.7947 208.386 38.5171 209.222 38.5171C209.768 38.5171 210.254 38.6485 210.698 38.9045C211.131 39.1625 211.478 39.5441 211.694 40.0006C211.927 40.4683 212.043 41.0018 212.043 41.5939C212.043 42.193 211.92 42.7339 211.68 43.2089C211.44 43.6839 211.098 44.0422 210.655 44.2834C210.211 44.5315 209.731 44.6487 209.215 44.6487C208.662 44.6487 208.161 44.5172 207.724 44.2466C207.292 43.984 206.946 43.6004 206.728 43.143C206.505 42.6807 206.391 42.1732 206.394 41.6595ZM201.093 43.8522H202.358C202.743 43.8522 203.049 43.8154 203.274 43.7425C203.492 43.6692 203.667 43.5672 203.798 43.4354C203.987 43.2527 204.132 42.9972 204.234 42.6827C204.336 42.3687 204.387 41.9887 204.387 41.5354C204.387 40.9142 204.285 40.4392 204.081 40.103C203.885 39.7668 203.638 39.5478 203.347 39.4306C203.136 39.3504 202.801 39.3066 202.336 39.3066H201.093V43.8522ZM200.314 44.5537V38.6121H202.351C202.809 38.6121 203.158 38.6416 203.398 38.6997C203.739 38.773 204.03 38.9192 204.263 39.1235C204.576 39.3868 204.808 39.723 204.961 40.1395C205.121 40.5489 205.194 41.0239 205.194 41.5501C205.194 42.003 205.143 42.3977 205.041 42.7487C204.939 43.0992 204.801 43.3842 204.634 43.611C204.491 43.8243 204.308 44.0079 204.096 44.1516C203.907 44.2834 203.667 44.3858 203.398 44.4513C203.085 44.5218 202.766 44.5562 202.445 44.5537H200.314ZM193.988 44.5537V38.6121H194.788L197.886 43.2749V38.6121H198.642V44.5537H197.835L194.737 39.8909V44.5537H193.988ZM188.149 44.5537V38.6121H192.41V39.3066H188.934V41.1333H192.192V41.8277H188.934V43.8522H192.556V44.5537H188.149ZM179.722 42.6463L180.456 42.5804C180.485 42.8727 180.572 43.1213 180.696 43.3113C180.827 43.5013 181.023 43.6549 181.292 43.7789C181.561 43.896 181.859 43.9546 182.201 43.9546C182.499 43.9546 182.761 43.9104 182.986 43.8227C183.212 43.7277 183.386 43.6037 183.496 43.4501C183.604 43.2966 183.663 43.1213 183.663 42.9387C183.663 42.756 183.612 42.5951 183.503 42.4563C183.394 42.3175 183.219 42.2004 182.972 42.1054C182.812 42.0468 182.463 41.9518 181.918 41.8204C181.372 41.6889 180.994 41.5645 180.776 41.4478C180.499 41.2942 180.289 41.1116 180.151 40.8925C180.011 40.6719 179.938 40.4156 179.94 40.1542C179.94 39.8545 180.027 39.5695 180.194 39.3135C180.369 39.0507 180.609 38.8533 180.936 38.7145C181.263 38.583 181.627 38.5171 182.02 38.5171C182.455 38.5171 182.848 38.583 183.183 38.7292C183.517 38.868 183.772 39.0797 183.954 39.3504C184.131 39.6309 184.231 39.9536 184.245 40.2856L183.488 40.3442C183.452 39.9716 183.314 39.6866 183.081 39.4966C182.848 39.3066 182.506 39.2116 182.048 39.2116C181.576 39.2116 181.234 39.2992 181.016 39.4745C180.805 39.6428 180.696 39.8545 180.696 40.103C180.696 40.3151 180.769 40.4904 180.922 40.6292C181.074 40.768 181.467 40.9068 182.099 41.053C182.739 41.1992 183.175 41.3237 183.408 41.433C183.75 41.5866 184.005 41.7913 184.172 42.0325C184.332 42.2826 184.416 42.575 184.412 42.8727C184.412 43.1942 184.324 43.4866 184.143 43.7642C183.968 44.0496 183.706 44.2613 183.372 44.4148C183.037 44.5758 182.659 44.6487 182.23 44.6487C181.699 44.6487 181.256 44.5684 180.892 44.4148C180.543 44.2715 180.246 44.0241 180.041 43.706C179.838 43.3989 179.729 43.041 179.722 42.6463ZM174.457 41.2356H176.137C176.493 41.2356 176.769 41.1992 176.973 41.1189C177.169 41.0456 177.322 40.9289 177.431 40.768C177.533 40.6001 177.584 40.4245 177.584 40.2345C177.584 39.9495 177.482 39.723 177.286 39.5404C177.082 39.3578 176.762 39.2697 176.326 39.2697H174.457V41.2356ZM173.672 44.5537V38.6121H176.289C176.82 38.6121 177.22 38.6707 177.489 38.773C177.766 38.8824 177.984 39.0654 178.151 39.3357C178.311 39.6076 178.394 39.9184 178.391 40.2345C178.391 40.6513 178.26 41.0092 177.984 41.2942C177.715 41.5866 177.3 41.7692 176.733 41.8495C176.936 41.9449 177.097 42.0468 177.206 42.1418C177.452 42.3763 177.667 42.6416 177.845 42.9313L178.871 44.5537H177.896L177.111 43.3187C176.886 42.9604 176.696 42.6827 176.551 42.4927C176.399 42.3027 176.267 42.1787 176.151 42.098C176.042 42.0274 175.921 41.9757 175.795 41.9449C175.708 41.9227 175.562 41.9154 175.366 41.9154H174.457V44.5537H173.672ZM171.134 38.6121H171.919V44.5537H171.134V38.6121ZM166.197 42.1127H168.211L167.592 40.4683C167.436 40.0598 167.295 39.6453 167.171 39.2259C167.083 39.6142 166.974 39.9972 166.844 40.3733L166.197 42.1127ZM164.495 44.5537L166.764 38.6121H167.622L170.028 44.5537H169.134L168.45 42.7487H165.964L165.324 44.5537H164.495ZM160.241 44.5537V38.6121H164.226V39.3066H161.019V41.1628H163.797V41.8568H161.019V44.5537H160.241ZM154.838 44.5537V38.6121H158.823V39.3066H155.624V41.1628H158.394V41.8568H155.624V44.5537H154.838ZM149.988 42.1127H152.003L151.384 40.4683C151.228 40.0598 151.087 39.6453 150.963 39.2259C150.882 39.6158 150.772 39.9993 150.636 40.3733L149.988 42.1127ZM148.287 44.5537L150.555 38.6121H151.413L153.82 44.5537H152.926L152.242 42.7487H149.756L149.116 44.5537H148.287ZM144.985 42.471L145.771 42.668C145.611 43.3113 145.313 43.801 144.891 44.1446C144.462 44.4808 143.946 44.6487 143.328 44.6487C142.695 44.6487 142.179 44.5172 141.779 44.2613C141.379 43.9984 141.073 43.6254 140.87 43.1287C140.659 42.6316 140.557 42.1054 140.557 41.5354C140.557 40.9216 140.674 40.3806 140.906 39.9204C141.146 39.4597 141.481 39.1092 141.91 38.8754C142.346 38.6342 142.819 38.5171 143.342 38.5171C143.931 38.5171 144.426 38.6633 144.833 38.9704C145.233 39.2697 145.516 39.6939 145.669 40.2418L144.905 40.4245C144.767 39.9933 144.571 39.6792 144.309 39.4818C144.047 39.2845 143.72 39.1821 143.328 39.1821C142.877 39.1821 142.498 39.2918 142.193 39.5109C141.888 39.7258 141.662 40.0371 141.553 40.3954C141.428 40.7623 141.364 41.1475 141.364 41.5354C141.364 42.0399 141.437 42.478 141.582 42.858C141.728 43.231 141.953 43.516 142.266 43.6987C142.565 43.8841 142.91 43.9804 143.262 43.9763C143.698 43.9763 144.069 43.8522 144.375 43.5963C144.673 43.3477 144.877 42.9677 144.985 42.471ZM138.259 38.6121H139.045V44.5537H138.259V38.6121ZM130.879 44.5537V38.6121H132.049L133.446 42.8142C133.576 43.2089 133.671 43.5013 133.729 43.6987C133.794 43.4792 133.904 43.1651 134.042 42.7413L135.467 38.6121H136.514V44.5537H135.765V39.5842L134.034 44.5537H133.337L131.628 39.4892V44.5537H130.879ZM126.079 42.1127H128.094L127.483 40.4683C127.328 40.0584 127.185 39.6441 127.054 39.2259C126.972 39.6149 126.865 39.9981 126.734 40.3733L126.079 42.1127ZM124.385 44.5537L126.646 38.6121H127.512L129.912 44.5537H129.024L128.341 42.7487H125.854L125.214 44.5537H124.385ZM120.051 44.5537V38.6121H120.837V43.8522H123.738V44.5537H120.051ZM113.965 42.6463L114.699 42.5804C114.736 42.8727 114.816 43.1213 114.939 43.3113C115.071 43.5013 115.267 43.6549 115.536 43.7789C115.805 43.896 116.103 43.9546 116.445 43.9546C116.743 43.9546 117.005 43.9104 117.23 43.8227C117.463 43.7277 117.63 43.6037 117.739 43.4501C117.848 43.2966 117.906 43.1213 117.906 42.9387C117.906 42.756 117.855 42.5951 117.746 42.4563C117.637 42.3175 117.463 42.2004 117.215 42.1054C117.056 42.0468 116.706 41.9518 116.161 41.8204C115.616 41.6889 115.238 41.5645 115.02 41.4478C114.743 41.2942 114.532 41.1116 114.394 40.8925C114.255 40.6719 114.182 40.4156 114.183 40.1542C114.183 39.8545 114.27 39.5695 114.438 39.3135C114.612 39.0507 114.86 38.8533 115.179 38.7145C115.507 38.583 115.87 38.5171 116.263 38.5171C116.706 38.5171 117.092 38.583 117.426 38.7292C117.761 38.868 118.015 39.0797 118.197 39.3504C118.375 39.6309 118.475 39.9536 118.488 40.2856L117.732 40.3442C117.695 39.9716 117.557 39.6866 117.324 39.4966C117.092 39.3066 116.75 39.2116 116.299 39.2116C115.819 39.2116 115.478 39.2992 115.26 39.4745C115.049 39.6428 114.939 39.8545 114.939 40.103C114.939 40.3151 115.012 40.4904 115.165 40.6292C115.317 40.768 115.71 40.9068 116.343 41.053C116.983 41.1992 117.419 41.3237 117.652 41.433C117.993 41.5866 118.248 41.7913 118.415 42.0325C118.576 42.2826 118.66 42.575 118.655 42.8727C118.655 43.1942 118.568 43.4866 118.386 43.7642C118.212 44.0496 117.95 44.2613 117.615 44.4148C117.281 44.5758 116.903 44.6487 116.474 44.6487C115.943 44.6487 115.499 44.5684 115.136 44.4148C114.787 44.2715 114.49 44.0241 114.285 43.706C114.081 43.3989 113.973 43.041 113.965 42.6463ZM111.696 38.6121H112.482V44.5537H111.696V38.6121ZM103.916 44.5537V38.6121H107.901V39.3066H104.701V41.1628H107.472V41.8568H104.701V44.5537H103.916ZM97.6696 41.6742C97.6696 42.3904 97.8587 42.953 98.2368 43.3625C98.6222 43.7716 99.1022 43.9763 99.6766 43.9763C100.265 43.9763 100.753 43.7716 101.131 43.3551C101.509 42.9387 101.698 42.3539 101.698 41.5939C101.698 41.1116 101.618 40.6878 101.458 40.3295C101.298 39.9716 101.058 39.6866 100.745 39.4892C100.433 39.2918 100.084 39.1968 99.6913 39.1968C99.1384 39.1968 98.6658 39.3868 98.2657 39.7668C97.866 40.1468 97.6696 40.7828 97.6696 41.6742ZM96.8552 41.6595C96.8552 40.6804 97.1241 39.9056 97.6477 39.3504C98.1785 38.7947 98.8549 38.5171 99.6913 38.5171C100.236 38.5171 100.724 38.6485 101.167 38.9045C101.6 39.1626 101.947 39.5441 102.164 40.0006C102.396 40.4683 102.512 41.0018 102.512 41.5939C102.512 42.193 102.389 42.7339 102.149 43.2089C101.902 43.6839 101.56 44.0422 101.117 44.2834C100.673 44.5315 100.2 44.6487 99.684 44.6487C99.1238 44.6487 98.6296 44.5172 98.1932 44.2466C97.7614 43.984 97.4152 43.6004 97.197 43.143C96.972 42.6812 96.8551 42.1737 96.8552 41.6595ZM90.7543 44.5537V42.0325L88.4784 38.6121H89.4163L90.5873 40.4101C90.8016 40.7356 91.0029 41.0696 91.1907 41.4113C91.3724 41.0968 91.5908 40.7533 91.845 40.3659L92.9866 38.6121H93.903L91.5399 42.0325V44.5537H90.7543ZM85.1917 44.5537V39.3066H83.2429V38.6121H87.926V39.3066H85.9772V44.5537H85.1917ZM81.1703 38.6121H81.9555V44.5537H81.1703V38.6121ZM75.5205 41.2356H77.2003C77.5564 41.2356 77.8331 41.1992 78.0364 41.1189C78.2328 41.0456 78.3856 40.9289 78.4948 40.768C78.5966 40.6001 78.6471 40.4245 78.6471 40.2345C78.6471 39.9495 78.5457 39.723 78.342 39.5404C78.1456 39.3578 77.8258 39.2697 77.3894 39.2697H75.5205V41.2356ZM74.7354 44.5537V38.6121H77.3531C77.8836 38.6121 78.2837 38.6707 78.5526 38.773C78.8293 38.8824 79.0472 39.0654 79.2147 39.3357C79.375 39.6076 79.4579 39.9184 79.4547 40.2345C79.4547 40.6513 79.3235 41.0092 79.0472 41.2942C78.7783 41.5866 78.3636 41.7692 77.7964 41.8495C78.0001 41.9449 78.1603 42.0468 78.269 42.1418C78.5153 42.3762 78.7305 42.6415 78.9091 42.9313L79.9342 44.5537H78.96L78.1745 43.3187C77.9492 42.9604 77.7602 42.6827 77.6147 42.4927C77.4619 42.3027 77.3311 42.1787 77.215 42.098C77.1054 42.0275 76.9849 41.9758 76.8585 41.9449C76.7713 41.9227 76.6259 41.9154 76.4222 41.9154H75.5205V44.5537H74.7354ZM68.5107 41.6742C68.5107 42.3904 68.6997 42.953 69.0852 43.3625C69.4706 43.7716 69.9505 43.9763 70.525 43.9763C71.1142 43.9763 71.5941 43.7716 71.9791 43.3551C72.3576 42.9387 72.5467 42.3539 72.5467 41.5939C72.5467 41.1116 72.4664 40.6878 72.3067 40.3295C72.1392 39.9716 71.9066 39.6866 71.5941 39.4892C71.2812 39.2918 70.9251 39.1968 70.5397 39.1968C69.9868 39.1968 69.5069 39.3868 69.1072 39.7668C68.7144 40.1468 68.5107 40.7828 68.5107 41.6742ZM67.7036 41.6595C67.7036 40.6804 67.9655 39.9056 68.4964 39.3504C69.02 38.7947 69.7032 38.5171 70.5323 38.5171C71.0775 38.5171 71.5721 38.6485 72.0085 38.9045C72.4417 39.1643 72.7904 39.5451 73.012 40.0006C73.2373 40.4683 73.3538 41.0018 73.3538 41.5939C73.3538 42.193 73.2373 42.7339 72.99 43.2089C72.75 43.6839 72.4081 44.0422 71.9649 44.2834C71.5212 44.5315 71.0412 44.6487 70.5323 44.6487C69.9725 44.6487 69.4779 44.5172 69.0342 44.2466C68.6046 43.9835 68.2608 43.5999 68.0454 43.143C67.8204 42.6812 67.7034 42.1737 67.7036 41.6595ZM61.661 44.5537V38.6121H62.4391V41.0604H65.4933V38.6121H66.2784V44.5537H65.4933V41.7545H62.4391V44.5537H61.661ZM57.7272 44.5537V39.3066H55.7785V38.6121H60.4611V39.3066H58.5123V44.5537H57.7272ZM53.7788 38.6121H54.5566V42.0399C54.5566 42.6389 54.4914 43.1139 54.3606 43.4649C54.2221 43.8154 53.9821 44.1004 53.6334 44.3198C53.2842 44.5389 52.8262 44.6487 52.2591 44.6487C51.7062 44.6487 51.2483 44.5537 50.8991 44.3637C50.5503 44.1737 50.2957 43.896 50.1502 43.5304C49.9974 43.1651 49.9249 42.668 49.9249 42.0399V38.6121H50.7101V42.0399C50.7101 42.5587 50.7536 42.9387 50.8482 43.1799C50.9397 43.4233 51.1153 43.6256 51.3428 43.7499C51.5681 43.8813 51.8517 43.9472 52.1862 43.9472C52.7606 43.9472 53.1681 43.8154 53.415 43.5525C53.6549 43.2892 53.7788 42.7851 53.7788 42.0399V38.6121ZM45.0965 42.1127H47.1108L46.4927 40.4683C46.3363 40.0598 46.1956 39.6453 46.071 39.2259C45.9899 39.6159 45.8804 39.9994 45.7435 40.3733L45.0965 42.1127ZM43.395 44.5537L45.6636 38.6121H46.5217L48.9288 44.5537H48.034L47.3508 42.7487H44.8638L44.2237 44.5537H43.395ZM37.1748 44.5537V38.6121H37.9526V43.8522H40.8612V44.5537H37.1748ZM32.3973 42.1127H34.4043L33.7935 40.4683C33.6385 40.0584 33.4954 39.6441 33.3645 39.2259C33.2824 39.6148 33.1756 39.9981 33.0447 40.3733L32.3973 42.1127ZM30.6958 44.5537L32.9571 38.6121H33.8225L36.2222 44.5537H35.3349L34.6516 42.7487H32.1646L31.5245 44.5537H30.6958ZM25.8238 41.2356H27.5036C27.8597 41.2356 28.1364 41.1992 28.3397 41.1189C28.5361 41.0456 28.6888 40.9289 28.7907 40.768C28.8999 40.6001 28.9504 40.4245 28.9504 40.2345C28.9504 39.9495 28.849 39.723 28.6453 39.5404C28.4489 39.3578 28.129 39.2697 27.6927 39.2697H25.8238V41.2356ZM25.0387 44.5537V38.6121H27.6564C28.1873 38.6121 28.587 38.6707 28.8559 38.773C29.1325 38.8824 29.3505 39.0654 29.518 39.3357C29.6782 39.6076 29.7612 39.9184 29.7579 40.2345C29.7579 40.6513 29.6267 41.0092 29.3505 41.2942C29.0816 41.5866 28.6668 41.7692 28.0997 41.8495C28.3034 41.9449 28.4635 42.0468 28.5654 42.1418C28.8159 42.3741 29.0336 42.6397 29.2124 42.9313L30.2375 44.5537H29.2633L28.4778 43.3187C28.2525 42.9604 28.0634 42.6827 27.918 42.4927C27.7652 42.3027 27.6344 42.1787 27.5183 42.098C27.4087 42.0275 27.2882 41.9758 27.1618 41.9449C27.0746 41.9227 26.9291 41.9154 26.7254 41.9154H25.8238V44.5537H25.0387ZM19.1778 44.5537V38.6121H23.446V39.3066H19.9629V41.1333H23.2207V41.8277H19.9629V43.8522H23.5842V44.5537H19.1778ZM12.8369 44.5537V38.6121H13.6367L16.7344 43.2749V38.6121H17.4906V44.5537H16.6835L13.5858 39.8909V44.5537H12.8369ZM6.99765 44.5537V38.6121H11.259V39.3066H7.77583V41.1333H11.041V41.8277H7.77583V43.8522H11.4044V44.5537H6.99765ZM2.96204 42.2225V41.5206H5.46367V43.7277C5.07824 44.0275 4.68548 44.2613 4.27846 44.4148C3.8775 44.5718 3.45061 44.6512 3.02031 44.6487C2.4385 44.6487 1.91496 44.5246 1.44234 44.276C0.978188 44.0398 0.601215 43.6608 0.366316 43.1942C0.12634 42.7192 0.00247891 42.193 0.00247891 41.6087C0.000233043 41.0494 0.124655 40.497 0.366316 39.9933C0.606293 39.4892 0.948126 39.1235 1.39874 38.8754C1.84977 38.6342 2.37331 38.5171 2.96204 38.5171C3.38373 38.5171 3.76917 38.583 4.11834 38.7218C4.46017 38.8607 4.73642 39.058 4.9328 39.3066C5.12918 39.5547 5.27463 39.8766 5.37649 40.2783L4.67082 40.4683C4.58363 40.1689 4.47445 39.9278 4.34366 39.7595C4.20554 39.5842 4.02382 39.4454 3.77651 39.343C3.51851 39.235 3.24152 39.1803 2.96204 39.1821C2.60595 39.1821 2.30038 39.2407 2.03881 39.3504C1.79994 39.4476 1.5843 39.5945 1.40608 39.7816C1.24915 39.9556 1.12366 40.1558 1.0353 40.3733C0.884555 40.7521 0.807934 41.1565 0.809606 41.5645C0.809606 42.098 0.904111 42.5439 1.08623 42.9022C1.26795 43.2527 1.52952 43.5234 1.87135 43.6913C2.21389 43.8657 2.59273 43.9559 2.97672 43.9546C3.31596 43.9541 3.65185 43.887 3.96555 43.7572C4.28538 43.6254 4.53271 43.4866 4.70016 43.3334V42.2225H2.96204Z" fill="#717142"/>
<path d="M108.169 24.1859C107.532 24.3071 107.259 23.577 107.259 23.577L107.157 22.6995C107.154 22.6679 107.168 22.6503 107.199 22.6466L107.772 22.5795C107.803 22.5758 107.82 22.5897 107.824 22.6213L107.915 23.4009C107.926 23.5021 107.966 23.5667 108.033 23.5942C108.102 23.6216 108.173 23.6306 108.249 23.6216C108.31 23.6147 108.358 23.6024 108.393 23.5856C108.424 23.5727 108.449 23.5492 108.465 23.5192C108.479 23.486 108.485 23.4498 108.484 23.4136C108.484 23.3702 108.48 23.317 108.473 23.2535L108.392 22.5549C108.388 22.5234 108.402 22.5058 108.433 22.5021L109.01 22.4345C109.042 22.4309 109.059 22.4448 109.063 22.4763L109.153 23.251C109.165 23.3587 109.206 23.4251 109.275 23.4513C109.343 23.4767 109.418 23.4849 109.5 23.475C109.546 23.4717 109.592 23.4599 109.635 23.4402C109.663 23.4256 109.686 23.4018 109.699 23.3727C109.712 23.3383 109.718 23.3013 109.715 23.2646C109.712 23.2112 109.708 23.1579 109.701 23.1049L109.581 22.0689C109.577 22.0369 109.591 22.0197 109.623 22.016L110.2 21.9485C110.231 21.9448 110.249 21.9583 110.253 21.9902L110.41 23.3448C110.434 23.5504 110.408 23.7068 110.335 23.8133C110.261 23.9197 110.124 23.9848 109.926 24.0082L109.666 24.0385C109.543 24.0528 109.44 24.0417 109.358 24.0049C109.275 23.968 109.209 23.914 109.159 23.8427C109.146 23.8901 109.123 23.9343 109.093 23.9727C109.062 24.011 109.024 24.0427 108.981 24.0659C108.894 24.1114 108.774 24.1429 108.619 24.1613L108.434 24.183L108.169 24.1859Z" fill="#717142"/>
<path d="M185.969 44.9394V45.6326C185.969 45.8722 185.911 46.0781 185.794 46.2497C185.676 46.4217 185.498 46.5445 185.257 46.6187V46.2943C185.369 46.2538 185.459 46.1809 185.529 46.0749C185.599 45.9688 185.634 45.8427 185.634 45.6965V45.6613H185.251V44.9394H185.969Z" fill="#717142"/>
<path d="M114.838 22.4231C114.788 22.3969 114.736 22.3707 114.687 22.3445L114.838 22.4231Z" fill="#434244"/>
<path d="M184.482 21.6152H183.151C183.059 21.6152 183.017 21.6574 183.017 21.7426V23.0603C183.017 23.145 183.059 23.1946 183.151 23.1946H184.482C184.567 23.1946 184.617 23.145 184.617 23.0603V21.7426C184.617 21.6574 184.567 21.6152 184.482 21.6152Z" fill="#717142"/>
<path d="M185.511 23.5349H184.158C184.073 23.5349 184.031 23.5775 184.031 23.6622V24.9799C184.031 25.0647 184.073 25.1143 184.158 25.1143H185.511C185.596 25.1143 185.645 25.0647 185.645 24.9799V23.6622C185.645 23.5775 185.596 23.5349 185.511 23.5349Z" fill="#717142"/>
<path d="M183.447 23.5349H182.108C182.016 23.5349 181.967 23.5775 181.967 23.6622V24.9799C181.967 25.0647 182.016 25.1143 182.108 25.1143H183.447C183.532 25.1143 183.574 25.0647 183.574 24.9799V23.6622C183.574 23.5775 183.532 23.5349 183.447 23.5349Z" fill="#717142"/>
</g>
<defs>
<clipPath id="clip0_51_3152">
<rect width="395" height="68" fill="white"/>
</clipPath>
</defs>
</svg>
