<svg width="167" height="40" viewBox="0 0 167 40" fill="none" xmlns="http://www.w3.org/2000/svg">
<g clip-path="url(#clip0_5610_2191)">
<g clip-path="url(#clip1_5610_2191)">
<g clip-path="url(#clip2_5610_2191)">
<mask id="mask0_5610_2191" style="mask-type:luminance" maskUnits="userSpaceOnUse" x="0" y="0" width="167" height="40">
<path d="M166.695 0H0.0280762V40H166.695V0Z" fill="white"/>
</mask>
<g mask="url(#mask0_5610_2191)">
<path d="M166.684 19.3221C166.562 10.2443 160.306 2.61097 151.884 0.399864C151.095 0.188754 150.251 0.510971 149.773 1.16653L145.439 7.12208C144.995 7.72208 145.473 8.56653 146.217 8.49987C146.728 8.45541 147.128 8.4332 147.317 8.4332C153.695 8.4332 158.862 13.711 158.673 20.1221C158.495 26.311 154.228 26.2665 148.028 26.2665H136.806C135.751 26.2665 135.095 25.111 135.639 24.1999L138.439 18.3443C138.628 17.811 137.917 17.4443 137.584 17.8999L123.406 37.3555C122.851 38.2664 123.517 39.4331 124.584 39.4331H146.506C157.617 39.4331 166.828 30.4443 166.673 19.3221H166.684Z" fill="#090F30"/>
<path d="M7.90586 23.8777C7.01695 23.4333 6.00586 23.2221 4.85031 23.2221H0.0280762V33.8443H4.85031C6.00586 33.8443 7.02807 33.6221 7.90586 33.1888C8.79474 32.7443 9.48362 32.1333 9.97252 31.3333C10.4614 30.5333 10.7059 29.6 10.7059 28.5443C10.7059 27.4888 10.4614 26.5555 9.97252 25.7555C9.48362 24.9555 8.79474 24.3333 7.90586 23.8999V23.8777ZM7.2614 30.9333C6.62807 31.5221 5.78362 31.8221 4.71695 31.8221H2.47252V25.2333H4.71695C5.78362 25.2333 6.62807 25.5333 7.2614 26.1221C7.89474 26.7109 8.20586 27.5109 8.20586 28.5333C8.20586 29.5555 7.89474 30.3443 7.2614 30.9443V30.9333Z" fill="#090F30"/>
<path d="M18.6171 26.5445C18.0282 25.8889 17.2171 25.5556 16.1726 25.5556C15.406 25.5556 14.706 25.7223 14.0837 26.0667C13.4615 26.4111 12.9726 26.9 12.6171 27.5445C12.2615 28.1779 12.0837 28.9221 12.0837 29.7555C12.0837 30.5888 12.2615 31.3333 12.6171 31.9667C12.9726 32.6 13.4615 33.1 14.0837 33.4445C14.706 33.7888 15.406 33.9555 16.1726 33.9555C17.2837 33.9555 18.1393 33.6 18.7282 32.8888V33.8333H20.9948V25.6667H18.6282V26.5334L18.6171 26.5445ZM18.0615 31.4C17.6615 31.8112 17.1726 32.0112 16.5726 32.0112C15.9726 32.0112 15.4615 31.8112 15.0726 31.4C14.6726 30.9888 14.4837 30.4445 14.4837 29.7555C14.4837 29.0667 14.6837 28.5221 15.0726 28.1112C15.4726 27.7 15.9726 27.5 16.5726 27.5C17.1726 27.5 17.6615 27.7 18.0615 28.1112C18.4615 28.5221 18.6504 29.0667 18.6504 29.7555C18.6504 30.4445 18.4504 30.9888 18.0615 31.4Z" fill="#090F30"/>
<path d="M27.2282 32.0333C27.106 32.0667 26.9727 32.0779 26.8615 32.0779C26.5393 32.0779 26.2838 31.9891 26.106 31.8C25.9282 31.6112 25.8393 31.3445 25.8393 31V22.5779H23.4727V31.1445C23.4727 32.0445 23.7282 32.7445 24.2504 33.2333C24.7615 33.7224 25.4838 33.9667 26.406 33.9667C26.8282 33.9667 27.2394 33.9 27.6394 33.7667L27.5282 31.9333C27.4615 31.9779 27.3615 32.0112 27.2282 32.0445V32.0333Z" fill="#090F30"/>
<path d="M36.3726 27.4779C35.995 26.8555 35.4838 26.3778 34.8505 26.0555C34.2171 25.7222 33.5059 25.5667 32.7283 25.5667C31.895 25.5667 31.1505 25.7445 30.4838 26.1C29.8171 26.4555 29.295 26.9555 28.9171 27.6C28.5393 28.2445 28.3505 28.9667 28.3505 29.7667C28.3505 30.5667 28.5393 31.3 28.9283 31.9333C29.3171 32.5667 29.8617 33.0667 30.5726 33.4333C31.2838 33.7888 32.095 33.9779 33.0171 33.9779C34.495 33.9779 35.6171 33.5333 36.3838 32.6555L35.1283 31.2888C34.8393 31.5667 34.5393 31.7667 34.2059 31.8888C33.8726 32.0112 33.495 32.0779 33.0726 32.0779C32.5393 32.0779 32.0838 31.9779 31.7171 31.7779C31.3505 31.5779 31.0726 31.2667 30.9059 30.8667L36.9505 29.7C36.9505 28.8445 36.7617 28.1112 36.3838 27.4888L36.3726 27.4779ZM30.6617 29.5112C30.6838 28.8333 30.8838 28.3 31.2505 27.9221C31.6283 27.5333 32.1059 27.3445 32.7059 27.3445C33.195 27.3445 33.6059 27.4667 33.9505 27.7221C34.295 27.9779 34.5171 28.3112 34.6283 28.7445L30.6505 29.5221L30.6617 29.5112Z" fill="#090F30"/>
<path d="M46.2503 27.4779C45.8724 26.8555 45.3612 26.3778 44.7279 26.0555C44.0946 25.7333 43.3836 25.5667 42.6058 25.5667C41.7724 25.5667 41.0279 25.7445 40.3612 26.1C39.6946 26.4555 39.1724 26.9555 38.7946 27.6C38.417 28.2445 38.2279 28.9667 38.2279 29.7667C38.2279 30.5667 38.417 31.3 38.8058 31.9333C39.1946 32.5667 39.7391 33.0667 40.4503 33.4333C41.1612 33.7888 41.9724 33.9779 42.8946 33.9779C44.3724 33.9779 45.4946 33.5333 46.2612 32.6555L45.0058 31.2888C44.717 31.5667 44.417 31.7667 44.0836 31.8888C43.7503 32.0112 43.3724 32.0779 42.9503 32.0779C42.417 32.0779 41.9612 31.9779 41.5946 31.7779C41.2279 31.5779 40.9503 31.2667 40.7836 30.8667L46.8279 29.7C46.8279 28.8445 46.6391 28.1112 46.2612 27.4888L46.2503 27.4779ZM40.5503 29.5112C40.5724 28.8333 40.7724 28.3 41.1391 27.9221C41.517 27.5333 41.9946 27.3445 42.5946 27.3445C43.0836 27.3445 43.4946 27.4667 43.8391 27.7221C44.1836 27.9779 44.4058 28.3112 44.517 28.7445L40.5391 29.5221L40.5503 29.5112Z" fill="#090F30"/>
<path d="M52.4724 32.0333C52.35 32.0667 52.2167 32.0779 52.1057 32.0779C51.7833 32.0779 51.5279 31.9891 51.35 31.8C51.1724 31.6112 51.0833 31.3445 51.0833 31V22.5779H48.7167V31.1445C48.7167 32.0445 48.9724 32.7445 49.4945 33.2333C50.0057 33.7224 50.7279 33.9667 51.65 33.9667C52.0724 33.9667 52.4833 33.9 52.8833 33.7667L52.7724 31.9333C52.7057 31.9779 52.6057 32.0112 52.4724 32.0445V32.0333Z" fill="#090F30"/>
<path d="M62.339 28.5112C62.85 28.3112 63.239 28 63.5278 27.5888C63.8166 27.1779 63.9612 26.6779 63.9612 26.0889C63.9612 25.2223 63.639 24.5445 62.9833 24.0667C62.3278 23.5889 61.4166 23.3556 60.2278 23.3556H55.639V33.9779H60.5278C61.839 33.9779 62.839 33.7333 63.5057 33.2445C64.1833 32.7555 64.5166 32.0555 64.5166 31.1445C64.5166 30.4333 64.3278 29.8555 63.95 29.4112C63.5724 28.9555 63.0278 28.6555 62.3278 28.5112H62.339ZM56.7612 24.2889H60.15C61.0057 24.2889 61.6724 24.4556 62.139 24.7778C62.6057 25.1111 62.839 25.5889 62.839 26.2111C62.839 26.8333 62.6057 27.3221 62.139 27.6445C61.6724 27.9779 61.0057 28.1333 60.15 28.1333H56.7612V24.2778V24.2889ZM62.6724 32.5779C62.1833 32.9 61.4724 33.0667 60.5166 33.0667H56.7724V29.0779H60.5166C62.439 29.0779 63.4057 29.7445 63.4057 31.0667C63.4057 31.7555 63.1612 32.2555 62.6724 32.5888V32.5779Z" fill="#090F30"/>
<path d="M72.9723 30.1888C72.9723 31.1 72.7278 31.8109 72.239 32.3221C71.7499 32.8333 71.0945 33.0888 70.2502 33.0888C69.4835 33.0888 68.8833 32.8667 68.4723 32.4333C68.0611 32 67.8502 31.3555 67.8502 30.5221V25.9999H66.7723V30.6333C66.7723 31.7555 67.0723 32.6109 67.6723 33.1888C68.2723 33.7667 69.0945 34.0667 70.139 34.0667C70.7723 34.0667 71.339 33.9333 71.839 33.6667C72.339 33.4 72.7278 33.0221 73.0057 32.5333V33.9888H74.039V25.9999H72.9611V30.1888H72.9723Z" fill="#090F30"/>
<path d="M81.117 29.9445C80.7279 29.8224 80.217 29.7 79.5836 29.5779C79.0724 29.4891 78.6612 29.4 78.3724 29.3112C78.0836 29.2224 77.8279 29.0891 77.6391 28.9112C77.4391 28.7333 77.3391 28.4891 77.3391 28.1779C77.3391 27.7779 77.517 27.4667 77.8612 27.2224C78.2058 26.9779 78.7279 26.8557 79.417 26.8557C80.3279 26.8557 81.117 27.0779 81.7724 27.5333L82.2391 26.6667C81.9058 26.4446 81.4836 26.2668 80.9612 26.1335C80.4503 26.0001 79.9279 25.9335 79.417 25.9335C78.4279 25.9335 77.6503 26.1446 77.0946 26.5668C76.5391 26.9891 76.2612 27.5333 76.2612 28.2112C76.2612 28.7445 76.4058 29.1667 76.6836 29.4667C76.9612 29.7667 77.2946 29.9891 77.6946 30.1112C78.0946 30.2333 78.6058 30.3667 79.2612 30.4779C79.7503 30.5557 80.1391 30.6445 80.4279 30.7333C80.717 30.8224 80.9612 30.9445 81.1612 31.1112C81.3503 31.2779 81.4503 31.5112 81.4503 31.8C81.4503 32.2112 81.2724 32.5333 80.9279 32.7667C80.5836 33 80.0391 33.1112 79.3058 33.1112C78.7612 33.1112 78.2279 33.0224 77.7279 32.8557C77.217 32.6891 76.8058 32.4779 76.4724 32.2112L75.9836 33.0667C76.317 33.3557 76.7836 33.5891 77.3724 33.7779C77.9612 33.9667 78.5836 34.0557 79.2279 34.0557C80.2612 34.0557 81.0724 33.8557 81.6503 33.4445C82.2279 33.0333 82.5279 32.4779 82.5279 31.7779C82.5279 31.2667 82.3946 30.8557 82.117 30.5667C81.8391 30.2779 81.517 30.0667 81.1279 29.9445H81.117Z" fill="#090F30"/>
<path d="M85.0503 22.7222C84.8281 22.7222 84.6393 22.7999 84.4836 22.9444C84.3281 23.0889 84.2615 23.2777 84.2615 23.4777C84.2615 23.6889 84.3393 23.8777 84.4836 24.0222C84.6281 24.1666 84.8281 24.2555 85.0503 24.2555C85.2727 24.2555 85.4615 24.1777 85.6169 24.0222C85.7727 23.8666 85.8393 23.6889 85.8393 23.4555C85.8393 23.2555 85.7615 23.0777 85.6169 22.9333C85.4615 22.7889 85.2727 22.7111 85.0503 22.7111V22.7222Z" fill="#090F30"/>
<path d="M85.5724 25.9999H84.4948V33.9888H85.5724V25.9999Z" fill="#090F30"/>
<path d="M92.6505 25.9446C91.9617 25.9446 91.3615 26.0779 90.8393 26.3446C90.3172 26.6113 89.906 26.9891 89.6172 27.4779V26.0001H88.5839V33.9891H89.6617V29.8C89.6617 28.9 89.9172 28.1891 90.4172 27.6779C90.9172 27.1667 91.5948 26.9112 92.4615 26.9112C93.2281 26.9112 93.8172 27.1333 94.2393 27.5667C94.6505 28 94.8617 28.6333 94.8617 29.4667V33.9891H95.9393V29.3557C95.9393 28.2445 95.6393 27.4 95.0505 26.8112C94.4617 26.2335 93.6615 25.9335 92.6615 25.9335L92.6505 25.9446Z" fill="#090F30"/>
<path d="M105.317 27.7779C104.972 27.2 104.517 26.7557 103.95 26.4223C103.384 26.1001 102.739 25.9335 102.028 25.9335C101.272 25.9335 100.595 26.1001 99.9948 26.4446C99.3948 26.7891 98.9281 27.2667 98.5948 27.8891C98.2503 28.5112 98.0836 29.2 98.0836 29.9891C98.0836 30.7779 98.2615 31.4667 98.617 32.0891C98.9724 32.7112 99.4724 33.1891 100.106 33.5333C100.739 33.8779 101.472 34.0557 102.295 34.0557C102.928 34.0557 103.517 33.9445 104.039 33.7224C104.561 33.5 105.006 33.1779 105.361 32.7557L104.75 32.0557C104.461 32.4 104.095 32.6557 103.684 32.8333C103.261 33.0112 102.806 33.1 102.306 33.1C101.561 33.1 100.928 32.9112 100.406 32.5445C99.8724 32.1779 99.5058 31.6667 99.3058 31.0224L105.861 29.7445C105.839 29.0112 105.661 28.3445 105.328 27.7667L105.317 27.7779ZM99.1503 30.2557C99.1503 30.1891 99.1391 30.0779 99.1391 29.9224C99.1391 29.3224 99.2615 28.8 99.5058 28.3333C99.7503 27.8779 100.095 27.5112 100.539 27.2557C100.984 27 101.472 26.8667 102.039 26.8667C102.761 26.8667 103.361 27.0779 103.861 27.5112C104.361 27.9445 104.661 28.4891 104.784 29.1557L99.1503 30.2445V30.2557Z" fill="#090F30"/>
<path d="M112.095 29.9445C111.706 29.8224 111.195 29.7 110.562 29.5779C110.05 29.4891 109.639 29.4 109.35 29.3112C109.062 29.2224 108.806 29.0891 108.617 28.9112C108.428 28.7333 108.317 28.4891 108.317 28.1779C108.317 27.7779 108.495 27.4667 108.839 27.2224C109.184 26.9779 109.706 26.8557 110.395 26.8557C111.306 26.8557 112.095 27.0779 112.75 27.5333L113.217 26.6667C112.884 26.4446 112.462 26.2668 111.939 26.1335C111.428 26.0001 110.906 25.9335 110.395 25.9335C109.406 25.9335 108.628 26.1446 108.073 26.5668C107.517 26.9891 107.239 27.5333 107.239 28.2112C107.239 28.7445 107.384 29.1667 107.662 29.4667C107.939 29.7667 108.273 29.9891 108.673 30.1112C109.073 30.2333 109.584 30.3667 110.239 30.4779C110.728 30.5557 111.117 30.6445 111.406 30.7333C111.695 30.8224 111.939 30.9445 112.139 31.1112C112.328 31.2779 112.428 31.5112 112.428 31.8C112.428 32.2112 112.25 32.5333 111.906 32.7667C111.562 32.9891 111.017 33.1112 110.284 33.1112C109.739 33.1112 109.206 33.0224 108.706 32.8557C108.195 32.6891 107.784 32.4779 107.45 32.2112L106.962 33.0667C107.295 33.3557 107.762 33.5891 108.35 33.7779C108.939 33.9667 109.562 34.0557 110.206 34.0557C111.239 34.0557 112.05 33.8557 112.628 33.4445C113.206 33.0333 113.506 32.4779 113.506 31.7779C113.506 31.2667 113.373 30.8557 113.095 30.5667C112.817 30.2779 112.495 30.0667 112.106 29.9445H112.095Z" fill="#090F30"/>
<path d="M119.517 29.9445C119.128 29.8224 118.617 29.7 117.984 29.5779C117.472 29.4891 117.061 29.4 116.772 29.3112C116.484 29.2224 116.239 29.0891 116.039 28.9112C115.839 28.7333 115.739 28.4891 115.739 28.1779C115.739 27.7779 115.917 27.4667 116.261 27.2224C116.606 26.9779 117.128 26.8557 117.817 26.8557C118.728 26.8557 119.517 27.0779 120.172 27.5333L120.639 26.6667C120.306 26.4446 119.884 26.2668 119.361 26.1335C118.839 26.0001 118.328 25.9335 117.817 25.9335C116.828 25.9335 116.05 26.1446 115.494 26.5668C114.939 26.9891 114.661 27.5333 114.661 28.2112C114.661 28.7445 114.806 29.1667 115.084 29.4667C115.361 29.7667 115.694 29.9891 116.094 30.1112C116.494 30.2333 117.006 30.3667 117.661 30.4779C118.15 30.5557 118.539 30.6445 118.828 30.7333C119.117 30.8224 119.361 30.9445 119.561 31.1112C119.75 31.2779 119.85 31.5112 119.85 31.8C119.85 32.2112 119.672 32.5333 119.328 32.7667C118.984 32.9891 118.439 33.1112 117.706 33.1112C117.161 33.1112 116.628 33.0224 116.128 32.8557C115.617 32.6891 115.206 32.4779 114.872 32.2112L114.384 33.0667C114.717 33.3557 115.184 33.5891 115.772 33.7779C116.361 33.9667 116.984 34.0557 117.628 34.0557C118.661 34.0557 119.472 33.8557 120.05 33.4445C120.628 33.0333 120.928 32.4779 120.928 31.7779C120.928 31.2667 120.795 30.8557 120.517 30.5667C120.239 30.2779 119.917 30.0667 119.528 29.9445H119.517Z" fill="#090F30"/>
<path d="M102.372 16.8109H103.75C103.839 16.8109 103.917 16.8887 103.917 16.9776V18.4109C103.917 18.4998 103.839 18.5776 103.75 18.5776H102.372C102.284 18.5776 102.206 18.4998 102.206 18.4109V16.9776C102.206 16.8887 102.284 16.8109 102.372 16.8109Z" fill="#090F30"/>
<path d="M104.506 16.8109H105.884C105.972 16.8109 106.05 16.8887 106.05 16.9776V18.4109C106.05 18.4998 105.972 18.5776 105.884 18.5776H104.506C104.417 18.5776 104.339 18.4998 104.339 18.4109V16.9776C104.339 16.8887 104.417 16.8109 104.506 16.8109Z" fill="#090F30"/>
<path d="M108.784 15.4111H110.317C111.006 15.4111 111.495 15.2445 111.784 14.9111C112.072 14.5778 112.228 14.0556 112.228 13.3445V4.40005C112.228 4.28893 112.172 4.23339 112.061 4.23339H110.55C110.439 4.23339 110.384 4.28893 110.384 4.40005V12.9111C110.384 13.2445 110.317 13.4667 110.195 13.5889C110.072 13.7111 109.872 13.7778 109.595 13.7778H106.817H106.539C106.117 13.7778 105.795 13.6889 105.539 13.5111C105.295 13.3334 105.172 13.0889 105.172 12.7556V8.7556C105.172 8.64448 105.117 8.58893 105.006 8.58893H103.606C103.539 8.58893 103.484 8.58893 103.417 8.62227C103.361 8.64448 103.328 8.68893 103.328 8.7556V12.1667C103.328 12.4667 103.328 12.7111 103.317 12.9111C103.317 13.1111 103.272 13.2778 103.228 13.4001C103.184 13.5223 103.106 13.6223 102.995 13.6778C102.895 13.7334 102.739 13.7667 102.539 13.7667H101.472C101.472 13.7667 101.439 13.7667 101.428 13.7667C101.406 13.7667 101.395 13.7667 101.384 13.7667H101.117C100.695 13.7667 100.372 13.6778 100.117 13.5001C99.8724 13.3223 99.7503 13.0778 99.7503 12.7445V4.38893C99.7503 4.27781 99.6948 4.22227 99.5836 4.22227H98.0724C97.9615 4.22227 97.9058 4.27781 97.9058 4.38893V15.0223C97.9058 15.7667 97.717 16.3111 97.3282 16.6445C96.9391 16.9778 96.4391 17.1445 95.7948 17.1445C95.5391 17.1445 95.2836 17.1111 95.017 17.0334C94.7503 16.9667 94.517 16.8334 94.3058 16.6667C94.0948 16.4889 93.917 16.2556 93.7836 15.9667C93.6503 15.6778 93.5724 15.3223 93.5724 14.8889C93.5724 14.4001 93.6503 13.9445 93.8058 13.5334C93.9615 13.1223 94.1282 12.7667 94.3058 12.4556C94.3282 12.4111 94.3391 12.3667 94.3282 12.3334C94.3282 12.3001 94.2948 12.2667 94.2391 12.2445L92.9058 11.7223C92.7836 11.6667 92.7058 11.6778 92.6615 11.7556C92.3836 12.1889 92.1615 12.6889 91.9724 13.2889C91.7836 13.8778 91.6948 14.4778 91.6948 15.0667C91.6948 15.7001 91.7948 16.2556 91.9948 16.7334C92.1948 17.2001 92.4836 17.6001 92.8391 17.9111C93.2058 18.2223 93.6282 18.4556 94.117 18.6111C94.6058 18.7667 95.1391 18.8445 95.717 18.8445C96.2948 18.8445 96.8615 18.7667 97.3615 18.6111C97.8503 18.4556 98.2836 18.2223 98.6391 17.9111C98.9948 17.6001 99.2724 17.2001 99.4615 16.7334C99.6503 16.2556 99.7503 15.7111 99.7503 15.0889V14.9111C99.9503 15.1445 100.184 15.2889 100.45 15.3556C100.717 15.4111 101.028 15.4445 101.384 15.4445C101.406 15.4445 101.417 15.4445 101.428 15.4445C101.45 15.4445 101.461 15.4445 101.484 15.4445H103.017C103.539 15.4445 103.961 15.3889 104.272 15.2667C104.584 15.1445 104.817 14.9223 104.961 14.6001C105.15 14.9556 105.395 15.1889 105.717 15.2889C106.039 15.3889 106.406 15.4445 106.839 15.4445H108.817L108.784 15.4111Z" fill="#090F30"/>
<path d="M119.195 15.2777C119.495 15.1888 119.75 15.0333 119.95 14.8221C120.15 14.611 120.295 14.311 120.395 13.9555C120.495 13.5999 120.539 13.1443 120.539 12.5999V11.2333C120.539 10.2221 120.284 9.47768 119.762 8.99992C119.25 8.52213 118.55 8.2888 117.673 8.2888H115.039C114.928 8.2888 114.873 8.34435 114.873 8.45547V9.76659C114.873 9.87768 114.928 9.93323 115.039 9.93323H117.017C118.139 9.93323 118.695 10.411 118.695 11.3777V12.4777C118.695 12.7221 118.684 12.9221 118.65 13.0888C118.628 13.2555 118.562 13.3888 118.473 13.4888C118.384 13.5888 118.25 13.6666 118.073 13.711C117.895 13.7555 117.662 13.7777 117.362 13.7777H114.306C114.195 13.7777 114.139 13.8333 114.139 13.9443V15.2555C114.139 15.3666 114.195 15.4221 114.306 15.4221H118.128C118.539 15.4221 118.906 15.3777 119.206 15.2888L119.195 15.2777Z" fill="#090F30"/>
<path d="M57.4058 18.6C57.8946 18.4445 58.3279 18.2111 58.6834 17.9C59.0391 17.5889 59.3167 17.2 59.5058 16.7222C59.6946 16.2555 59.7946 15.7 59.7946 15.0778V4.4C59.7946 4.28888 59.7391 4.23333 59.6279 4.23333H58.1058C57.9946 4.23333 57.9391 4.28888 57.9391 4.4V15.0333C57.9391 15.7778 57.75 16.3222 57.3612 16.6555C56.9724 16.9889 56.4724 17.1555 55.8279 17.1555C55.5724 17.1555 55.3167 17.1222 55.05 17.0445C54.7834 16.9778 54.55 16.8445 54.3391 16.6778C54.1279 16.5 53.95 16.2667 53.8167 15.9778C53.6834 15.6889 53.6058 15.3333 53.6058 14.9C53.6058 14.4111 53.6834 13.9555 53.8391 13.5445C53.9946 13.1333 54.1612 12.7778 54.3391 12.4667C54.3612 12.4222 54.3724 12.3778 54.3612 12.3445C54.3612 12.3111 54.3279 12.2778 54.2724 12.2555L52.9391 11.7333C52.8167 11.6778 52.7391 11.6889 52.6946 11.7667C52.4167 12.2 52.1946 12.7 52.0058 13.3C51.8167 13.8889 51.7279 14.4889 51.7279 15.0778C51.7279 15.7111 51.8279 16.2667 52.0279 16.7445C52.2279 17.2111 52.5167 17.6111 52.8724 17.9222C53.2391 18.2333 53.6612 18.4667 54.15 18.6222C54.6391 18.7778 55.1724 18.8555 55.75 18.8555C56.3279 18.8555 56.8946 18.7778 57.3946 18.6222L57.4058 18.6Z" fill="#090F30"/>
<path d="M82.7057 13.7778H79.139C79.0502 13.7445 78.9281 13.6778 78.7836 13.5889C78.639 13.5001 78.4948 13.3667 78.3614 13.2001C78.2281 13.0334 78.1057 12.8334 77.9948 12.6001C77.8948 12.3667 77.839 12.0889 77.839 11.7556C77.839 11.2001 77.9948 10.7556 78.2948 10.4334C78.5948 10.1111 79.0281 9.94448 79.5836 9.94448C80.2614 9.94448 80.8502 10.2111 81.3281 10.7334C81.4057 10.8223 81.4836 10.8223 81.5614 10.7445L82.4502 9.82227C82.539 9.7556 82.5502 9.67781 82.4948 9.58893C82.2057 9.21115 81.8169 8.91115 81.3057 8.6556C80.8057 8.41115 80.1836 8.28893 79.4614 8.28893C78.7948 8.28893 78.2281 8.38893 77.7724 8.60005C77.3169 8.81115 76.9502 9.07781 76.6724 9.40005C76.3948 9.72227 76.1948 10.0889 76.0724 10.4778C75.9502 10.8778 75.8948 11.2667 75.8948 11.6556C75.8948 12.1334 75.9614 12.5445 76.1057 12.8889C76.2502 13.2334 76.4281 13.5223 76.6502 13.7778H74.6057C74.339 13.7778 74.1057 13.6778 73.9057 13.4889C73.7057 13.3001 73.5948 12.9778 73.5836 12.5111C73.5836 12.4223 73.5948 12.3334 73.5948 12.2445V11.9556C73.5948 11.2889 73.5057 10.7223 73.339 10.2445C73.1724 9.77781 72.9281 9.40005 72.6281 9.11115C72.3281 8.82227 71.9614 8.62227 71.5502 8.48893C71.1281 8.3556 70.6836 8.28893 70.1948 8.28893C69.7057 8.28893 69.2614 8.3556 68.8614 8.47781C68.4502 8.60005 68.0948 8.81115 67.7948 9.08893C67.4948 9.36672 67.2614 9.73339 67.0836 10.1667C66.9169 10.6111 66.8169 11.1445 66.8169 11.7778V12.0223C66.8169 12.1001 66.8169 12.1778 66.8281 12.2667C66.8281 12.8334 66.7057 13.2223 66.4948 13.4445C66.2836 13.6556 66.0502 13.7667 65.7836 13.7667H65.139H64.5614C64.2836 13.7667 64.0836 13.7001 63.9614 13.5778C63.839 13.4556 63.7724 13.2223 63.7724 12.9001V4.38893C63.7724 4.27781 63.7169 4.22227 63.6057 4.22227H62.0948C61.9836 4.22227 61.9281 4.27781 61.9281 4.38893V13.3334C61.9281 14.0445 62.0724 14.5667 62.3724 14.9001C62.6724 15.2334 63.1502 15.4001 63.839 15.4001H65.139H65.7169C65.8724 15.4001 66.039 15.4001 66.2057 15.3667C66.3836 15.3445 66.5502 15.3001 66.7169 15.2445C66.8836 15.1889 67.039 15.1001 67.1948 14.9889C67.3502 14.8778 67.4836 14.7334 67.5948 14.5556C67.8948 14.9001 68.2614 15.1445 68.6948 15.3001C69.1281 15.4445 69.6281 15.5223 70.1724 15.5223C70.7169 15.5223 71.239 15.4445 71.6836 15.2889C72.1281 15.1334 72.4948 14.8778 72.7948 14.5223C72.939 14.7334 73.1057 14.9001 73.2836 15.0111C73.4614 15.1223 73.6614 15.2111 73.8614 15.2778C74.0614 15.3445 74.2724 15.3778 74.4724 15.3889C74.6614 15.3889 74.8281 15.4001 75.0057 15.4001C75.0057 15.4001 75.0169 15.4001 75.0281 15.4001H82.6836C82.7948 15.4001 82.8502 15.3445 82.8502 15.2334V13.9223C82.8502 13.8111 82.7948 13.7556 82.6836 13.7556L82.7057 13.7778ZM71.3836 13.4223C71.1281 13.7334 70.739 13.8889 70.2057 13.8889C69.6724 13.8889 69.2948 13.7334 69.039 13.4334C68.7836 13.1223 68.6614 12.6223 68.6614 11.9223C68.6614 11.2778 68.7836 10.7889 69.039 10.4445C69.2948 10.1111 69.6724 9.93336 70.2057 9.93336C71.239 9.93336 71.7614 10.5889 71.7614 11.9111C71.7614 12.6001 71.639 13.1001 71.3836 13.4111V13.4223Z" fill="#090F30"/>
<path d="M87.2724 2.57778H85.6058C85.4836 2.5 85.3724 2.37778 85.2503 2.22222C85.1391 2.06667 85.0727 1.87778 85.0727 1.65555C85.0727 1.41111 85.1394 1.21111 85.2836 1.05555C85.4282 0.899997 85.6282 0.822219 85.8727 0.822219C86.0282 0.822219 86.1724 0.855552 86.2948 0.933328C86.4282 0.999995 86.5503 1.09999 86.6615 1.19999C86.706 1.24443 86.7615 1.23333 86.8282 1.18889L87.2503 0.777773C87.2503 0.777773 87.2836 0.7 87.2503 0.633333C87.1058 0.444445 86.917 0.299995 86.6727 0.177773C86.4282 0.0666621 86.1615 0 85.8503 0C85.5391 0 85.2615 0.0555549 85.0394 0.155554C84.817 0.255554 84.6391 0.388888 84.4948 0.555555C84.3503 0.711112 84.2503 0.888891 84.1948 1.07778C84.1391 1.26667 84.1058 1.45555 84.1058 1.64445C84.1058 1.83333 84.1282 2 84.1836 2.16667C84.2282 2.32222 84.2948 2.46666 84.3727 2.58888H83.7615C83.6948 2.58888 83.6615 2.62222 83.6615 2.7V3.31112C83.6615 3.38888 83.6948 3.42221 83.7615 3.42221H87.2503C87.317 3.42221 87.3503 3.38888 87.3503 3.31112V2.7C87.3503 2.62222 87.317 2.58888 87.2503 2.58888L87.2724 2.57778Z" fill="#090F30"/>
<path d="M84.8057 4.23333H86.3169C86.4057 4.23333 86.4836 4.31112 86.4836 4.4V15.2555C86.4836 15.3445 86.4057 15.4222 86.3169 15.4222H84.8057C84.7169 15.4222 84.639 15.3445 84.639 15.2555V4.4C84.639 4.31112 84.7169 4.23333 84.8057 4.23333Z" fill="#090F30"/>
</g>
</g>
</g>
</g>
<defs>
<clipPath id="clip0_5610_2191">
<rect width="166.93" height="40" fill="white"/>
</clipPath>
<clipPath id="clip1_5610_2191">
<rect width="166.93" height="40" fill="white"/>
</clipPath>
<clipPath id="clip2_5610_2191">
<rect width="166.933" height="40" fill="white" transform="translate(-0.00170898)"/>
</clipPath>
</defs>
</svg>
