<svg width="104" height="27" viewBox="0 0 104 27" fill="none" xmlns="http://www.w3.org/2000/svg">
<path d="M10.141 6.22881C7.96186 6.22881 6.01323 6.82877 4.35094 8.01133L3.43365 8.66459V1.72415C3.43365 0.775868 2.66511 0.00732422 1.71682 0.00732422C0.76854 0.00732422 0 0.775868 0 1.72415V16.3699C0 19.2035 0.969354 21.5513 2.96509 23.5458C4.95958 25.5416 7.30736 26.5109 10.141 26.5109C12.9747 26.5109 15.3225 25.5416 17.317 23.5458C19.3127 21.5501 20.2821 19.2035 20.2821 16.3699C20.2821 13.5362 19.3127 11.1896 17.317 9.1939C15.3213 7.19816 12.9735 6.22881 10.141 6.22881ZM10.141 9.66246C11.9843 9.66246 13.5797 10.3232 14.8837 11.6272C16.1877 12.9312 16.8484 14.5266 16.8484 16.3699C16.8484 18.2131 16.1877 19.8085 14.8837 21.1125C13.5797 22.4166 11.9843 23.0773 10.141 23.0773C8.29779 23.0773 6.70244 22.4166 5.39839 21.1125C4.09435 19.8085 3.43365 18.2131 3.43365 16.3699C3.43365 14.5266 4.09435 12.9312 5.39839 11.6272C6.70244 10.3232 8.29779 9.66246 10.141 9.66246Z" fill="#01064B"/>
<path d="M34.1047 6.22949C31.271 6.22949 28.9232 7.19885 26.9287 9.19458C24.933 11.1903 23.9636 13.5368 23.9636 16.3705C23.9636 19.2042 24.933 21.552 26.9287 23.5465C28.9232 25.5422 31.271 26.5116 34.1047 26.5116C36.9384 26.5116 39.2861 25.5422 41.2806 23.5465C43.2764 21.5508 44.2457 19.2042 44.2457 16.3705C44.2457 13.5368 43.2764 11.1903 41.2806 9.19458C39.2849 7.19885 36.9371 6.22949 34.1047 6.22949ZM34.1047 9.66315C35.9479 9.66315 37.5433 10.3238 38.8473 11.6279C40.1514 12.9319 40.8121 14.5273 40.8121 16.3705C40.8121 18.2138 40.1514 19.8092 38.8473 21.1132C37.5433 22.4172 35.9479 23.0779 34.1047 23.0779C32.2614 23.0779 30.6661 22.4172 29.362 21.1132C28.058 19.8092 27.3973 18.2138 27.3973 16.3705C27.3973 14.5273 28.058 12.9319 29.362 11.6279C30.6661 10.3238 32.2614 9.66315 34.1047 9.66315Z" fill="#01064B"/>
<path d="M59.0279 16.3716C59.0279 18.2223 59.6948 19.8239 61.01 21.1316C62.2818 22.3948 64.0209 23.0976 65.8133 23.079C67.6851 23.0604 69.2991 22.3539 70.6093 20.9816C71.8055 19.7272 72.4451 18.0426 72.4451 16.3084V1.7222C72.4451 0.773915 73.2137 0.00537109 74.162 0.00537109C75.1102 0.00537109 75.8788 0.773915 75.8788 1.7222V16.3716C75.8788 19.2053 74.9094 21.5531 72.9137 23.5476C70.9192 25.5433 68.5714 26.5127 65.7377 26.5127C62.904 26.5127 60.5563 25.5433 58.5618 23.5476C56.566 21.5519 55.5967 19.2053 55.5967 16.6716V9.21053C55.5967 8.26225 56.3652 7.49371 57.3135 7.49371C58.2618 7.49371 59.0303 8.26225 59.0303 9.21053V16.3704L59.0279 16.3716Z" fill="#01064B"/>
<path d="M58.1043 0.0449219C60.938 0.0449219 63.2858 1.01428 65.2803 3.01001C67.276 5.00574 68.2454 7.35228 68.2454 10.186V17.3706C68.2454 18.3189 67.4768 19.0874 66.5285 19.0874C65.5803 19.0874 64.8117 18.3189 64.8117 17.3706V10.2492C64.8117 8.50509 64.1634 6.81058 62.9548 5.55364C61.6309 4.17646 59.9984 3.47857 58.1043 3.47733C56.2821 3.47733 54.5256 4.23224 53.2613 5.54496C52.0229 6.83041 51.3957 8.39105 51.3957 10.186V24.7957C51.3957 25.744 50.6272 26.5126 49.6789 26.5126C48.7306 26.5126 47.962 25.744 47.962 24.7957V10.186C47.962 7.35228 48.9314 5.00574 50.9271 3.01001C52.9229 1.01428 55.2706 0.0449219 58.1031 0.0449219H58.1043Z" fill="#2359EE"/>
<path d="M97.8269 23.0791H80.0153C79.0671 23.0791 78.2985 23.8478 78.2985 24.7959C78.2985 25.7441 79.0671 26.5128 80.0153 26.5128H97.8269C98.7751 26.5128 99.5437 25.7441 99.5437 24.7959C99.5437 23.8478 98.7751 23.0791 97.8269 23.0791Z" fill="#FF226F"/>
<path d="M42.5214 0H25.6878C24.7396 0 23.9709 0.76865 23.9709 1.71683C23.9709 2.665 24.7396 3.43365 25.6878 3.43365H42.5214C43.4695 3.43365 44.2382 2.665 44.2382 1.71683C44.2382 0.76865 43.4695 0 42.5214 0Z" fill="#FFD000"/>
<path d="M78.535 15.5742C78.0292 16.4456 78.3639 17.5625 79.2663 18.0125C79.7163 18.2368 80.1316 18.4401 80.3225 18.5294C80.8852 18.7835 81.6216 19.0475 82.5339 19.319C83.4462 19.588 84.5148 19.8235 85.7531 20.033C86.6493 20.1793 87.6199 20.2772 88.6661 20.3181C89.0578 20.3342 89.4607 20.3429 89.8722 20.3429C90.2416 20.3429 90.6024 20.3342 90.9532 20.3181C93.5699 20.1979 95.6165 19.6239 97.0879 18.6025C98.7588 17.4497 99.5906 15.9077 99.5906 13.9764C99.5906 12.2608 98.9435 10.9543 97.6544 10.0642C96.3664 9.18042 94.5529 8.59534 92.2299 8.31519L87.936 7.8144C86.8167 7.683 85.1234 7.48467 84.5495 6.35665C84.4825 6.22525 84.4292 6.0827 84.3958 5.92527C84.2606 5.30424 84.4912 4.61875 84.9722 4.20473C85.3279 3.89979 85.7891 3.74608 86.2477 3.64815C87.4873 3.37916 88.831 3.38536 90.0929 3.46593C91.3796 3.54774 92.6564 3.76839 93.8972 4.11548C94.6385 4.32249 95.2706 4.52454 95.7813 4.71667C95.9636 4.78857 96.2859 4.92988 96.633 5.08731C97.4486 5.45547 98.4105 5.14557 98.8592 4.37207C99.3737 3.48576 99.0167 2.35031 98.0895 1.91521C97.942 1.84579 97.818 1.78877 97.7349 1.75034C97.6506 1.71192 97.5701 1.67969 97.4858 1.63878C96.918 1.39582 96.1755 1.14295 95.2582 0.891313C94.3397 0.642156 93.2712 0.423989 92.0279 0.244249C90.7883 0.064509 89.4161 -0.0160635 87.9025 0.012447C87.2443 0.0236033 86.6258 0.0682261 86.0333 0.130205C86.0221 0.130205 86.0159 0.130208 86.0047 0.136406C85.887 0.147562 85.7804 0.169872 85.6688 0.192185C85.3527 0.247966 85.0478 0.317385 84.7614 0.388041C83.5417 0.710334 82.55 1.15287 81.7951 1.71688C81.1654 2.18916 80.6782 2.71598 80.3336 3.29611C80.263 3.41635 80.196 3.53907 80.1353 3.66302C79.782 4.39562 79.6085 5.1778 79.6085 5.99964C79.6085 6.11988 79.611 6.23764 79.6172 6.3554C79.6593 7.15618 79.8465 7.85283 80.1762 8.44659C80.5518 9.12712 81.0823 9.69733 81.7517 10.1572C82.4285 10.6245 83.2318 10.9915 84.1726 11.2604C85.111 11.5257 86.1423 11.7166 87.2679 11.8195L90.5503 12.1616C92.0638 12.3191 93.1162 12.5818 93.7013 12.9537C94.2926 13.3256 94.5852 13.8723 94.5852 14.5912C94.5852 15.4416 94.124 16.0403 93.2018 16.3824C92.2733 16.732 91.0796 16.9055 89.6218 16.9055C88.5025 16.9055 87.4662 16.8274 86.5117 16.6737C85.5597 16.5175 84.7094 16.3316 83.9669 16.1171C83.2231 15.8965 82.6008 15.6833 82.0938 15.4812C81.872 15.3895 81.3464 15.1404 80.8133 14.8788C79.9915 14.4772 78.9998 14.7796 78.5399 15.5705L78.535 15.5742Z" fill="#01064B"/>
<path d="M101.279 0.244798H100.742V0.00927734H102.076V0.244798H101.542V1.64057H101.278V0.244798H101.279Z" fill="#01064B"/>
<path d="M103.741 0.390543L103.186 1.16157H103.13L102.582 0.390543V1.64253H102.32V0.0112305H102.623L103.161 0.776057L103.698 0.0112305H104V1.64253H103.738V0.390543H103.741Z" fill="#01064B"/>
</svg>
