<svg width="396" height="112" viewBox="0 0 396 112" fill="none" xmlns="http://www.w3.org/2000/svg">
<g clip-path="url(#clip0_6985_1016)">
<path d="M347.056 2.3721L334.698 19.3415C333.433 21.0542 334.803 23.4521 336.911 23.2676C338.36 23.1359 339.52 23.0832 340.047 23.0832C358.228 23.0832 372.932 38.129 372.431 56.4159C371.93 74.0704 359.757 73.9124 342.102 73.9124H310.113C307.083 73.9124 305.238 70.6186 306.793 68.0363L314.751 51.3304C315.278 49.8284 313.249 48.7481 312.3 50.0392L271.906 105.48C270.325 108.088 272.222 111.408 275.252 111.408H337.728C369.401 111.408 395.645 85.7698 395.224 54.0971C394.881 28.2214 377.042 6.48269 353.037 0.185042C350.771 -0.421008 348.4 0.501247 347.03 2.3721H347.056Z" fill="#7338F0"/>
<path d="M154.938 88.9845L156.203 86.5077C158.39 88.642 162.263 90.1966 166.242 90.1966C171.934 90.1966 174.411 87.7988 174.411 84.7949C174.411 76.442 155.649 81.5802 155.649 70.3024C155.649 65.8229 159.128 61.9495 166.875 61.9495C170.3 61.9495 173.884 62.9508 176.308 64.6372L175.227 67.1931C172.619 65.5067 169.562 64.6635 166.875 64.6635C161.315 64.6635 158.811 67.1404 158.811 70.197C158.811 78.55 177.573 73.5171 177.573 84.6105C177.573 89.09 174.015 92.9107 166.216 92.9107C161.657 92.9107 157.178 91.3034 154.912 88.9582L154.938 88.9845Z" fill="#7338F0"/>
<path d="M195.227 91.3036C194.041 92.384 192.223 92.911 190.431 92.911C186.11 92.911 183.739 90.4604 183.739 86.2444V64.7955H186.821V69.802H193.752V72.4107H186.821V86.0863C186.821 88.774 188.165 90.276 190.748 90.276C192.065 90.276 193.277 89.8807 194.147 89.0902L195.227 91.3036Z" fill="#7338F0"/>
<path d="M197.73 81.2638C197.73 74.4655 202.684 69.6434 209.403 69.6434C216.123 69.6434 221.024 74.4655 221.024 81.2638C221.024 88.0621 216.096 92.9368 209.403 92.9368C202.71 92.9368 197.73 88.0621 197.73 81.2638ZM217.862 81.2638C217.862 75.9147 214.252 72.3311 209.377 72.3311C204.502 72.3311 200.84 75.8884 200.84 81.2638C200.84 86.6392 204.502 90.1964 209.377 90.1964C214.252 90.1964 217.862 86.6392 217.862 81.2638Z" fill="#7338F0"/>
<path d="M238.863 69.6434V72.6473C238.599 72.6473 238.336 72.5946 238.125 72.5946C233.329 72.5946 230.431 75.6512 230.431 81.0266V92.6997H227.348V69.8015H230.299V74.281C231.748 71.2244 234.647 69.6171 238.863 69.6171V69.6434Z" fill="#7338F0"/>
<path d="M260.997 87.1662L262.736 89.1688C260.681 91.593 257.545 92.9105 253.935 92.9105C246.794 92.9105 241.893 88.0357 241.893 81.2374C241.893 74.4391 246.636 69.6171 253.197 69.6171C259.337 69.6171 263.948 74.0966 264.159 80.526L245.371 84.1886C246.504 87.8776 249.719 90.1437 253.988 90.1437C256.807 90.1437 259.31 89.1424 260.997 87.1398V87.1662ZM244.897 81.0266C244.897 81.3692 244.897 81.6854 244.95 81.9752L261.102 78.8396C260.443 75.0979 257.44 72.2784 253.224 72.2784C248.349 72.2784 244.923 75.8357 244.923 81.0266H244.897Z" fill="#7338F0"/>
<path d="M0 62.45H14.0182C24.1102 62.45 31.014 68.5368 31.014 77.8647C31.014 87.1926 24.1102 93.2795 14.0182 93.2795H0V62.45ZM13.6493 87.4298C19.7625 87.4298 23.7677 83.7671 23.7677 77.8647C23.7677 71.9623 19.7625 68.2997 13.6493 68.2997H7.14085V87.4034H13.6493V87.4298Z" fill="#7338F0"/>
<path d="M59.9463 69.5911V93.2797H53.3851V90.5393C51.6724 92.621 49.1691 93.6223 45.9808 93.6223C39.2879 93.6223 34.1233 88.8529 34.1233 81.4222C34.1233 73.9915 39.2879 69.2222 45.9808 69.2222C48.8793 69.2222 51.3562 70.1444 53.0689 72.0943V69.5911H59.9463ZM53.2007 81.4222C53.2007 77.338 50.5657 74.8611 47.1665 74.8611C43.7674 74.8611 41.0797 77.338 41.0797 81.4222C41.0797 85.5065 43.7147 87.9834 47.1665 87.9834C50.5657 87.9834 53.2007 85.5065 53.2007 81.4222Z" fill="#7338F0"/>
<path d="M66.2703 85.4273V60.5792H73.1476V85.032C73.1476 87.061 74.2016 88.1677 76.0988 88.1677C76.8366 88.1677 77.6535 87.9569 78.0487 87.7197L78.3649 93.0424C77.1792 93.4377 75.9934 93.6221 74.8077 93.6221C69.485 93.6221 66.2966 90.7236 66.2966 85.4273H66.2703Z" fill="#7338F0"/>
<path d="M99.1813 85.8225L102.844 89.775C100.631 92.2783 97.3368 93.5958 93.0681 93.5958C84.8732 93.5958 79.5505 88.4312 79.5505 81.3957C79.5505 74.3603 84.9259 69.1957 92.2249 69.1957C98.9178 69.1957 104.425 73.5961 104.478 81.1849L86.9549 84.5841C87.9562 86.9292 90.1696 88.115 93.2525 88.115C95.7558 88.115 97.5739 87.3772 99.2076 85.8225H99.1813ZM86.2698 80.737L97.8111 78.4972C97.1523 76.073 95.0707 74.4393 92.2249 74.4393C88.7994 74.4393 86.4015 76.7318 86.2698 80.737Z" fill="#7338F0"/>
<path d="M126.954 85.8225L130.617 89.775C128.403 92.2783 125.11 93.5958 120.841 93.5958C112.646 93.5958 107.323 88.4312 107.323 81.3957C107.323 74.3603 112.699 69.1957 119.998 69.1957C126.691 69.1957 132.198 73.5961 132.251 81.1849L114.728 84.5841C115.729 86.9292 117.943 88.115 121.025 88.115C123.529 88.115 125.347 87.3772 126.981 85.8225H126.954ZM114.043 80.737L125.584 78.4972C124.925 76.073 122.844 74.4393 119.998 74.4393C116.572 74.4393 114.174 76.7318 114.043 80.737Z" fill="#7338F0"/>
<path d="M136.862 85.4273V60.5792H143.739V85.032C143.739 87.061 144.793 88.1677 146.69 88.1677C147.428 88.1677 148.245 87.9569 148.64 87.7197L148.956 93.0424C147.771 93.4377 146.585 93.6221 145.399 93.6221C140.077 93.6221 136.888 90.7236 136.888 85.4273H136.862Z" fill="#7338F0"/>
<path d="M83.1078 22.2668H78.8128C78.4966 22.2668 78.3648 22.425 78.3648 22.7148V43.0043C78.3648 44.3218 78.075 45.3231 77.5216 45.9555C76.9419 46.6143 76.0197 46.9304 74.7285 46.9304H73.7009C73.3847 46.9304 73.2266 47.0885 73.2266 47.4047V51.0938C73.2266 51.41 73.3847 51.5417 73.7009 51.5417H75.4136C80.8681 51.5417 83.5821 48.7223 83.5821 43.1097V22.7148C83.5821 22.3986 83.424 22.2668 83.1078 22.2668Z" fill="#7338F0"/>
<path d="M166.005 23.4262H161.71C161.394 23.4262 161.236 23.5843 161.236 23.8742V33.1494C161.236 34.1243 161.209 34.9148 161.157 35.4945C161.104 36.0742 160.972 36.5222 160.761 36.8647C160.551 37.1809 160.234 37.3917 159.813 37.4971C159.391 37.6025 158.785 37.6552 158.047 37.6552C157.072 37.6552 156.282 37.4181 155.702 36.9438C155.122 36.4695 154.833 35.7317 154.833 34.7567V25.9558C154.833 25.6396 154.675 25.5079 154.385 25.5079H150.09C149.773 25.5079 149.642 25.666 149.642 25.9558V34.1507C149.642 34.9412 149.615 35.5736 149.536 36.0479C149.457 36.5222 149.299 36.8647 149.088 37.0755C148.851 37.3127 148.535 37.4708 148.14 37.5235C147.744 37.6025 147.191 37.6289 146.532 37.6289C144.319 37.6289 143.212 36.6803 143.212 34.7567V25.9295C143.212 25.6133 143.054 25.4815 142.764 25.4815H138.469C138.153 25.4815 137.995 25.6396 137.995 25.9295V34.1243C137.995 35.4418 137.863 36.3641 137.626 36.8647C137.389 37.3654 136.783 37.6289 135.834 37.6289H126.981C125.821 37.6289 124.873 37.3917 124.188 36.8911C123.502 36.3904 123.16 35.679 123.16 34.7567V25.9822C123.16 25.666 123.002 25.5342 122.712 25.5342H118.733C118.549 25.5342 118.364 25.5606 118.206 25.6133C118.048 25.666 117.943 25.7977 117.943 25.9822V33.0967C117.943 33.9135 117.943 34.625 117.89 35.2047C117.864 35.7844 117.785 36.2323 117.626 36.6012C117.495 36.9438 117.284 37.2073 116.994 37.3917C116.704 37.5498 116.283 37.6552 115.729 37.6552H107.613V32.4379C107.613 30.5671 107.376 28.9861 106.928 27.6949C106.48 26.4038 105.822 25.3498 104.978 24.5593C104.162 23.7688 103.16 23.1627 102.001 22.7938C100.841 22.4249 99.5767 22.2405 98.2065 22.2405C96.9417 22.2405 95.7559 22.4249 94.5965 22.8202C93.4635 23.2154 92.4622 23.8215 91.5926 24.6647C90.7231 25.5079 90.038 26.6146 89.511 27.9321C88.984 29.2496 88.7205 30.8833 88.7205 32.7541C88.7205 34.5196 88.9313 35.9952 89.3529 37.1809C89.7745 38.393 90.3542 39.368 91.1183 40.1058C91.8825 40.8699 92.8311 41.3969 93.9641 41.7131C95.0972 42.0293 96.362 42.1874 97.8112 42.1874H102.475C102.475 43.136 102.396 43.9265 102.212 44.5326C102.027 45.1386 101.764 45.6129 101.421 45.9555C101.079 46.298 100.657 46.5352 100.13 46.6669C99.603 46.7987 98.997 46.8777 98.2855 46.8777H92.8838C92.5676 46.8777 92.4095 47.0358 92.4095 47.352V51.041C92.4095 51.3572 92.5676 51.489 92.8838 51.489H99.1024C101.869 51.489 103.977 50.8302 105.426 49.5127C106.876 48.1952 107.587 46.0872 107.587 43.1887V42.1611H116.994C118.47 42.1611 119.655 42.003 120.525 41.6604C121.394 41.3179 122.053 40.7118 122.475 39.8159C123.002 40.7909 123.713 41.4496 124.609 41.7395C125.505 42.0293 126.559 42.1874 127.745 42.1874H137.363C138.785 42.1874 139.892 42.003 140.709 41.6341C141.526 41.2652 142.158 40.6328 142.58 39.7369C143.37 41.3706 144.872 42.1874 147.059 42.1874H149.088C150.485 42.1874 151.565 42.003 152.382 41.6604C153.199 41.3179 153.831 40.6855 154.253 39.7896C154.648 40.5537 155.228 41.1598 155.992 41.555C156.756 41.9503 157.652 42.1874 158.732 42.1874H160.709C162.79 42.1874 164.292 41.7395 165.162 40.8699C166.031 40.0004 166.479 38.4984 166.479 36.3641V23.7951C166.479 23.4789 166.321 23.3472 166.005 23.3472V23.4262ZM102.422 37.6816H98.3119C96.8363 37.6816 95.7032 37.339 94.9127 36.6276C94.1222 35.9161 93.727 34.5986 93.727 32.6487C93.727 30.8833 94.1222 29.4867 94.9127 28.4591C95.7032 27.4051 96.7836 26.8781 98.1538 26.8781C99.6294 26.8781 100.71 27.3524 101.395 28.2746C102.08 29.2232 102.422 30.5934 102.422 32.4116V37.6816Z" fill="#7338F0"/>
<path d="M224.818 46.2186H220.945C220.629 46.2186 220.47 46.3767 220.47 46.6666V50.6454C220.47 50.9616 220.629 51.0934 220.945 51.0934H224.818C225.134 51.0934 225.266 50.9353 225.266 50.6454V46.6666C225.266 46.3504 225.108 46.2186 224.818 46.2186Z" fill="#7338F0"/>
<path d="M217.914 46.2186H214.041C213.725 46.2186 213.593 46.3767 213.593 46.6666V50.6454C213.593 50.9616 213.751 51.0934 214.041 51.0934H217.914C218.231 51.0934 218.362 50.9353 218.362 50.6454V46.6666C218.362 46.3504 218.204 46.2186 217.914 46.2186Z" fill="#7338F0"/>
<path d="M240.417 13.413H236.122C235.806 13.413 235.648 13.5711 235.648 13.8873V35.2571C235.648 36.1794 235.464 36.8118 235.121 37.1807C234.778 37.5232 234.199 37.7077 233.435 37.7077H226.03C224.871 37.7077 223.922 37.4705 223.237 36.9699C222.552 36.4692 222.209 35.7578 222.209 34.8355V26.061C222.209 25.7448 222.051 25.613 221.762 25.613H217.783C217.598 25.613 217.414 25.6394 217.256 25.6921C217.098 25.7448 216.992 25.8765 216.992 26.061V33.1755C216.992 33.9923 216.992 34.7038 216.939 35.2835C216.913 35.8632 216.834 36.3111 216.676 36.68C216.544 37.0226 216.333 37.2861 216.017 37.4705C215.727 37.6286 215.306 37.734 214.752 37.734H208.613C207.453 37.734 206.505 37.4969 205.82 36.9962C205.135 36.4956 204.792 35.7841 204.792 34.8619V13.9136C204.792 13.5974 204.634 13.4393 204.344 13.4393H200.049C199.733 13.4393 199.601 13.5974 199.601 13.9136V41.1859C199.601 43.2675 199.074 44.7958 197.994 45.7181C196.913 46.6667 195.491 47.1146 193.699 47.1146C192.987 47.1146 192.276 47.0092 191.538 46.8248C190.8 46.614 190.142 46.2714 189.535 45.7971C188.929 45.2965 188.455 44.6641 188.06 43.8472C187.665 43.0304 187.48 42.0291 187.48 40.817C187.48 39.4204 187.691 38.1556 188.139 37.0226C188.587 35.8632 189.061 34.8619 189.535 33.9923C189.588 33.8606 189.615 33.7552 189.615 33.6498C189.615 33.5444 189.509 33.4653 189.351 33.3863L185.609 31.9107C185.267 31.7526 185.03 31.7789 184.924 32.0161C184.16 33.2282 183.501 34.6511 182.974 36.3111C182.447 37.9712 182.184 39.6312 182.184 41.2913C182.184 43.0831 182.474 44.6377 183.027 45.9552C183.607 47.2727 184.397 48.3794 185.399 49.249C186.426 50.1185 187.612 50.7773 188.982 51.1989C190.352 51.6205 191.854 51.8576 193.488 51.8576C195.122 51.8576 196.729 51.6468 198.099 51.1989C199.496 50.7773 200.682 50.1185 201.683 49.249C202.684 48.3794 203.448 47.2727 204.002 45.9552C204.529 44.6377 204.818 43.0831 204.818 41.344V40.8433C205.372 41.5021 206.031 41.8973 206.768 42.0554C207.533 42.2135 208.402 42.3189 209.377 42.3189H216.07C217.546 42.3189 218.731 42.1608 219.601 41.8183C220.47 41.4757 221.129 40.8697 221.551 39.9738C222.078 40.9487 222.789 41.6075 223.685 41.8973C224.581 42.1872 227.796 42.3453 229.008 42.3453H235.49C237.44 42.3453 238.81 41.871 239.653 40.9487C240.47 40.0001 240.892 38.5509 240.892 36.5483V13.9663C240.892 13.6501 240.734 13.492 240.417 13.492V13.413Z" fill="#7338F0"/>
<path d="M261.998 24.2958C260.549 22.952 258.573 22.2932 256.122 22.2932H248.744C248.428 22.2932 248.296 22.4513 248.296 22.7675V26.4565C248.296 26.7727 248.454 26.9045 248.744 26.9045H254.277C257.413 26.9045 258.994 28.2483 258.994 30.9624V34.0453C258.994 34.7304 258.968 35.2838 258.889 35.7581C258.81 36.2324 258.652 36.6013 258.388 36.8911C258.125 37.181 257.756 37.3918 257.255 37.5235C256.754 37.6553 256.096 37.708 255.279 37.708H246.689C246.372 37.708 246.241 37.8661 246.241 38.1823V41.8186C246.241 42.1348 246.399 42.2665 246.689 42.2665H257.387C258.546 42.2665 259.574 42.1348 260.443 41.8976C261.313 41.6605 262.024 41.2125 262.578 40.6065C263.131 40.0004 263.553 39.1836 263.816 38.1823C264.106 37.181 264.238 35.9162 264.238 34.3879V30.5671C264.238 27.7477 263.5 25.666 262.051 24.3222L261.998 24.2958Z" fill="#7338F0"/>
<path d="M125.768 16.048H121.895C121.579 16.048 121.421 16.2061 121.421 16.4959V20.4748C121.421 20.791 121.579 20.9227 121.895 20.9227H125.768C126.085 20.9227 126.216 20.7646 126.216 20.4748V16.4959C126.216 16.1797 126.058 16.048 125.768 16.048Z" fill="#7338F0"/>
<path d="M118.891 16.048H115.018C114.702 16.048 114.57 16.2061 114.57 16.4959V20.4748C114.57 20.791 114.728 20.9227 115.018 20.9227H118.891C119.207 20.9227 119.339 20.7646 119.339 20.4748V16.4959C119.339 16.1797 119.181 16.048 118.891 16.048Z" fill="#7338F0"/>
</g>
<defs>
<clipPath id="clip0_6985_1016">
<rect width="395.229" height="111.408" fill="white"/>
</clipPath>
</defs>
</svg>
